<?xml version="1.0" standalone="no"?>
<!DOCTYPE svg PUBLIC "-//W3C//DTD SVG 1.1//EN" "http://www.w3.org/Graphics/SVG/1.1/DTD/svg11.dtd" >
<svg>
<metadata>
Created by FontForge 20090622 at Fri Sep 18 19:13:25 2015
 By deploy user
Copyright (c) 2012 by Nick Cooke, G-Type. All rights reserved.
</metadata>
<defs>
<font id="Rollerscript-Smooth" horiz-adv-x="656" >
  <font-face 
    font-family="Rollerscript-Smooth"
    font-weight="400"
    font-stretch="normal"
    units-per-em="1000"
    panose-1="3 5 6 0 4 3 7 0 0 0"
    ascent="648"
    descent="-352"
    x-height="335"
    cap-height="622"
    bbox="-5115 -548 1508.03 1009.36"
    underline-thickness="50"
    underline-position="-50"
    unicode-range="U+0020-U+1F632"
  />
<missing-glyph horiz-adv-x="352" 
 />
    <glyph glyph-name="f_f" unicode="ff" horiz-adv-x="568" 
d="M-16 237q56 2 117 6q6 43 14 83.5t19 78.5t17.5 57.5t19 53.5t12.5 35q3 11 21.5 50t23.5 45q3 4 3 11.5t4 12.5q7 8 26.5 23.5t24.5 16.5q28 5 45 -28t17 -84q0 -36 -1 -56t-3.5 -38.5t-8 -26t-15.5 -6.5q-1 4 -2.5 22t-4.5 37t-7.5 39t-11.5 32.5t-17 12.5
q-15 0 -32 -27.5t-18 -40.5q0 -3 -1 -5t-2 -2.5t-2.5 -1t-3 -2t-3.5 -4.5q-50 -86 -80 -286q91 7 200 20q18 76 72 221q3 9 21.5 46.5t22.5 43.5q3 3 3 9.5t4 10.5q24 27 36 29q25 4 48.5 -12t23.5 -33q0 -37 -8 -65t-23 -31q-1 17 -10 30.5t-23 13.5q-6 0 -11 -2.5t-9 -8.5
l-6.5 -9.5t-6.5 -12t-5 -9.5q-3 -5 -9.5 -7t-9.5 -6q-41 -76 -72 -204l237 32q9 1 15.5 7t13.5 6q17 0 38 -5.5t21 -17.5q0 -14 -9.5 -19t-35.5 -10q-6 -1 -9 -2q-5 -1 -11.5 2t-14.5 2l-254 -31q-23 -112 -23 -201q0 -10 -3 -17t-3 -8t2.5 -7t2.5 -10q2 -139 28 -217
q5 -15 19.5 -30t14.5 -20q0 -7 -13 -20t-20 -13q-6 0 -16 10q-19 17 -47.5 37.5t-41.5 31.5q-7 6 -4.5 12.5t10.5 6.5q19 -17 49 -34q13 1 10 22q-26 106 -26 241q0 105 23 212l-196 -23q-7 -65 -7 -100q0 -11 -3 -19.5t-3 -9.5q0 -2 2.5 -8t2.5 -12q2 -170 23 -341
q0 -6 10 -26t10 -26q0 -8 -20.5 -21t-29.5 -13q-6 0 -11 6t-7 6q-46 8 -90.5 84t-44.5 131q0 6 1 12.5t1 7.5t-2 4.5t-3 6.5q-2 20 0.5 83.5t8.5 91.5q3 16 10 16q4 0 7.5 -5t2.5 -10q-7 -53 -7 -136q0 -22 8 -58t22.5 -76t41.5 -72t60 -39q-23 247 -23 391q0 68 6 128
l-84 -8q-19 -2 -32 1t-17.5 8t-4.5 11q0 23 26 23z" />
    <glyph glyph-name="fi" unicode="fi" horiz-adv-x="647" 
d="M417 351q10 10 23.5 11t17.5 -5q3 -4 1.5 -11t1.5 -8q30 -21 32 -42q3 -8 -14.5 -49.5l-41.5 -98.5t-33 -89q-9 -28 -6 -42.5t23 -9.5q65 30 150.5 97.5t139.5 126.5q12 4 13 -9q0 -9 -9 -21q-47 -58 -159 -146.5t-143 -89.5q-27 -13 -48.5 3.5t-15.5 43.5q-5 19 5 61.5
t30.5 105.5t27.5 92q-111 -55 -272 -69q-4 -1 -12 -1q-18 -98 -39 -244t-34 -226t-20 -83q-12 -2 -25 -10t-21 -8q-25 0 -51 22.5t-46.5 57.5t-35 66t-23.5 58q13 6 18 -5q11 -30 41 -72t53 -59q23 -19 41.5 -15.5t29.5 37.5q1 3 -1 3q-1 1 -1 3q11 52 37 220t41 253
q-23 0 -52 1.5t-44.5 1t-23.5 -4.5q-22 13 -27.5 27.5t2.5 24t23 10.5q16 0 55.5 -5t75.5 -6q46 246 90 335q5 11 5.5 22t4.5 20q30 71 50.5 102t43.5 31q24 0 40 -35.5t15 -90.5q-1 -62 -16 -134.5t-38 -118.5q-27 -54 -73 -44q54 86 76.5 184t12.5 163q-24 -10 -44.5 -36
t-38.5 -69t-29 -77.5t-27 -91.5q-16 -56 -37 -160l30 2q120 7 253 58q4 27 -2 43zM551 534q-21 -4 -42.5 11t-20.5 35t68 27q14 -14 14 -21q0 -10 -5.5 -30.5t-13.5 -21.5z" />
    <glyph glyph-name="fl" unicode="fl" horiz-adv-x="675" 
d="M-14 123q45 -5 96 -7q78 424 113 526q3 10 4.5 26.5t5.5 26.5q9 20 18.5 46t14 37t11 23t13.5 16t16 4q21 0 55 -23.5t33 -51.5q-1 -29 6 -147.5t1 -149.5q-4 -20 -10.5 -28.5t-11.5 -8.5t-15.5 4t-13.5 5q10 278 -19 298q-68 -52 -105 -208q-23 -96 -78 -394
q171 7 296 93q10 83 38 165.5t66 148t57.5 95.5t39.5 57q25 33 51.5 38.5t40.5 -9.5t10 -35q-64 -314 -258 -467v-4q-7 -96 12 -139t63 -43q46 0 94 32.5t78 68.5q8 9 12 -11l1 -10q0 -32 -74.5 -77.5t-132.5 -45.5q-47 0 -75 42.5t-28 110.5q0 28 1 41q-127 -82 -300 -97
q-85 -475 -97 -481q-12 -2 -25 -10t-21 -8q-33 0 -84 54.5t-89.5 123t-44.5 111.5q-8 38 20 84t55 50q6 1 13 -3t11 -9t3 -6q-1 -3 -14.5 -16.5t-24 -35t-6.5 -47.5q8 -53 51.5 -126t63.5 -92q14 -13 23.5 -19.5t19 -8.5t17 5.5t13.5 24.5q1 3 -1 3q-1 1 -1 3q17 62 80 400
q-46 -2 -71 -1q-18 0 -28 10t-10 23q0 12 5.5 18t15.5 5zM602 591q-18 -27 -39.5 -67t-52.5 -120.5t-43 -153.5q143 130 201 370q3 15 -1 23t-10 8t-22.5 -17.5t-32.5 -42.5z" />
    <glyph glyph-name="s_t" unicode="st" horiz-adv-x="650" 
d="M783 409q-58 0 -172 -17q-16 -36 -22 -53q-2 -5 -8 -5.5t-9 -5.5q-30 -58 -57 -139t-36 -152q-2 -14 0 -17.5t14 1.5q98 58 168.5 118t173.5 167q12 -2 18.5 -13t-5.5 -25q-231 -220 -337 -287q-9 -6 -22.5 -10t-27.5 -5.5t-22.5 6t-6.5 23.5q5 109 113 386
q-101 -19 -157 -38q-18 -13 -35 -15q-14 -3 -19 17q-7 25 13 35q3 1 7 2q2 0 4 -1t4 -1.5t10 1t21 6.5q68 22 167 34q57 144 95 220q22 1 38 -15t13 -36t-22 -37q-8 -23 -56 -126q44 3 137 6q16 0 20.5 -7.5t-2.5 -16.5zM232 426q19 0 56.5 -38t37.5 -48q0 -7 -11.5 -12.5
t-18.5 -5.5q-4 0 -12 4.5t-11 4.5q-22 0 -35 -19.5t-13 -41.5t33.5 -113.5t33.5 -133.5q0 -47 -83 -64q-3 -1 -7.5 1.5t-6.5 2.5q-1 0 -5.5 -2.5t-7.5 -2.5q-25 0 -69.5 17.5t-69.5 44.5q-46 49 -13 71q25 -35 66.5 -61t82.5 -26q18 0 35.5 8t17.5 18q0 34 -34 143.5
t-30 128.5q1 3 3.5 8t2.5 6l-2 6q-2 6 -1 9q5 29 22 62t39 33z" />
    <glyph glyph-name="C_a" unicode="Ca" horiz-adv-x="980" 
d="M387 537q-83 0 -155.5 -54t-111.5 -130.5t-39 -150.5q0 -164 140 -164q62 0 153.5 60t151.5 132q26 49 61 77.5t63 28.5q48 0 83 -19q21 -13 24 -25q31 51 35 59q12 8 32.5 0.5t28.5 -15.5q11 -11 1 -31q-25 -51 -38 -54q-28 -60 -37 -116q-10 -59 5 -74.5t61 8.5
q53 28 131.5 89.5t117.5 110.5q13 0 17.5 -7t1 -17t-13.5 -20q-56 -54 -146 -125t-142 -94q-14 -6 -30 -7t-32.5 5t-25.5 27.5t-7 56.5q2 29 29 122q2 7 -1 7q-2 -1 -4 -4q-4 -7 -25.5 -38.5t-55 -76t-56.5 -70.5q-24 -27 -54 -30t-49.5 21.5t-15.5 68.5q3 41 13 63
q-71 -69 -141.5 -113t-149.5 -44q-87 0 -133.5 61.5t-46.5 135.5q0 83 35 159t86 124t106.5 76.5t99.5 28.5q68 0 105.5 -31.5t37.5 -75.5q0 -53 -17 -82t-49 -12q22 139 -43 159zM567 51q30 22 78 81.5t94 130.5h-6q-4 0 -27 14.5t-49 14.5q-22 0 -42 -20q-65 -65 -76 -182
q-5 -48 10 -48q7 0 18 9z" />
    <glyph glyph-name="C_e" unicode="Ce" horiz-adv-x="832" 
d="M929 244q10 1 16 -2.5t-2 -16.5q-24 -29 -59.5 -62.5t-86 -73.5t-111 -68.5t-115.5 -32.5q-81 -27 -105 54q-125 -62 -254 -58q-87 4 -136.5 63.5t-49.5 143.5q0 71 23 135t59.5 109t80.5 78.5t86.5 49.5t77.5 16q67 0 104 -33.5t37 -78.5q0 -52 -16 -79.5t-48 -9.5
q22 139 -43 159q-77 0 -149 -52t-114.5 -129.5t-42.5 -153.5q0 -87 45.5 -131t118.5 -44q112 0 214 53q0 14 1 20q6 73 56.5 145t122.5 119q12 8 27 -1q3 -2 7.5 2t8.5 4q15 0 34 -32t21 -58q1 -23 -16 -38l-1 -7q-1 -8 -5 -13q-63 -77 -196 -150q3 -26 18 -35.5t39.5 -6.5
t65.5 17q68 22 145.5 74.5t141.5 123.5zM660 316q-36 0 -84 -65t-57 -138q57 27 117 80.5t61 95.5q0 7 -15 17t-22 10z" />
    <glyph glyph-name="C_h" unicode="Ch" horiz-adv-x="999" 
d="M241 3q163 0 294 161q16 80 61.5 222.5t47.5 196.5q8 11 26 11l14 10q15 11 22 11q20 0 31 -21t11 -35q0 -13 -14 -44t-16 -51q-7 -56 -39 -129t-82 -143q-32 -44 -40 -104q-1 -7 2 -12t7 -4.5t7 3.5q54 69 136 155.5t92 86.5q9 0 22.5 -6t18.5 -11q3 -4 -2 -10t-2 -8
q16 -12 19 -39q4 -10 -14.5 -103t-10.5 -114q137 97 255 227q7 2 12.5 -2.5t6 -12.5t-7.5 -17l-32.5 -33l-45.5 -45.5l-48.5 -47.5t-52.5 -49.5l-46 -40t-41 -31t-26 -10.5q-10 0 -18.5 18t-3.5 42q-11 18 5.5 113.5t7.5 112.5q-56 -15 -182 -184q-9 -60 -35 -84
q-3 -6 -13 -1t-11 5q-3 0 -13.5 -10t-14.5 -10t-8 5t-9 12.5t-6 8.5q-2 2 -2 3t1 2t2.5 5.5t2.5 11.5q4 31 16 91q-147 -149 -308 -143q-93 4 -144.5 68t-51.5 151q0 88 35.5 166t88 127t108.5 77t100 28q68 0 105.5 -31.5t37.5 -75.5q0 -53 -17 -82t-49 -12q22 139 -43 159
q-118 0 -214 -102.5t-96 -242.5q0 -93 48.5 -141t115.5 -48zM686 521q-6 -4 -11 -14.5t-8 -22l-6 -22t-6 -17.5t-6 -7q-16 -38 -44 -140q-10 -35 -4 -35q5 0 14 19q47 92 66 166q3 13 5.5 25t4 23.5t0.5 18t-5 6.5z" />
    <glyph glyph-name="C_i" unicode="Ci" horiz-adv-x="839" 
d="M610 351q10 10 23.5 11t17.5 -5q3 -4 1.5 -11t1.5 -8q20 -14 17 -51q1 -24 -35 -109t-45 -118q-8 -28 -2.5 -43t25.5 -10q65 30 150.5 97.5t139.5 126.5q12 4 13 -9q0 -9 -9 -21q-47 -58 -159 -146.5t-143 -89.5q-27 -13 -48.5 3.5t-15.5 43.5q-7 24 19 112
q-183 -168 -344 -162q-86 4 -138.5 73.5t-52.5 155.5q0 71 23 135t59.5 109t80.5 78.5t86.5 49.5t77.5 16q68 0 105.5 -31.5t37.5 -75.5q0 -53 -17 -82t-49 -12q22 139 -43 159q-73 0 -144 -53.5t-114 -131.5t-43 -150q0 -88 45 -142.5t108 -54.5q82 0 188 65.5t164 151.5
q31 102 19 129zM744 534q-21 -4 -42.5 11t-20.5 35t68 27q14 -14 14 -21q0 -10 -5.5 -30.5t-13.5 -21.5z" />
    <glyph glyph-name="C_l" unicode="Cl" horiz-adv-x="845" 
d="M239 5q151 0 344 182q16 101 66.5 215.5t85.5 171t59 88.5q15 21 31 31t28.5 9.5t22 -7t15 -17t5.5 -22.5q1 -99 -75 -230.5t-194 -245.5q-5 -40 -5 -71q0 -45 12.5 -57.5t43.5 -5.5q44 10 127.5 80.5t149.5 149.5q6 7 15 -0.5t5 -13.5q-41 -65 -152.5 -166t-142.5 -101
q-47 -16 -75.5 16.5t-28.5 84.5q0 26 1 39q-92 -80 -185.5 -126.5t-174.5 -46.5q-86 0 -141 70.5t-55 156.5q0 71 23.5 135.5t60.5 109.5t82 78.5t88 50t78 16.5q68 0 110.5 -36t42.5 -80q0 -53 -17 -82t-49 -12q12 75 -4 116.5t-49 51.5q-73 0 -146.5 -53t-119 -131
t-45.5 -150q0 -87 49.5 -142.5t113.5 -55.5zM775 545q-96 -148 -135 -300q80 86 135 176.5t66 152.5q3 15 -1 23t-10 8t-22.5 -17.5t-32.5 -42.5z" />
    <glyph glyph-name="C_o" unicode="Co" horiz-adv-x="946" 
d="M736 329q28 0 52.5 -15.5t24.5 -28.5q0 -14 -21.5 -22.5t-59.5 -4.5q-6 0 -32 -28t-51.5 -68.5t-25.5 -65.5q0 -70 49 -70q23 0 61.5 33.5t71.5 91.5t33 114q0 17 26 17q48 0 48 -74q0 -7 -3 -10t-7.5 -4.5t-6.5 -3.5q-2 -3 -26.5 -34.5t-33 -41.5l-32 -37.5t-37.5 -39
l-34.5 -28t-38 -23t-34.5 -6.5q-33 0 -61.5 36t-28.5 73q0 23 3 44q-77 -74 -173 -124t-182 -47q-86 4 -138.5 73.5t-52.5 155.5q0 71 23 135t59.5 109t80.5 78.5t86.5 49.5t77.5 16q68 0 105.5 -31.5t37.5 -75.5q0 -53 -17 -82t-49 -12q22 139 -43 159q-73 0 -144 -53.5
t-114 -131.5t-43 -150q0 -88 45 -142.5t108 -54.5q78 0 181 60.5t189 164.5q28 44 66.5 71.5t60.5 27.5z" />
    <glyph glyph-name="C_o_o" unicode="Coo" horiz-adv-x="1248" 
d="M239 5q63 0 146 41.5t161 115.5q18 61 72 126l13 17q29 32 68 11q0 2 0.5 4t0.5 3q0 8 7 14.5t16 6.5q37 0 51 -18q9 -6 7.5 -20.5t1.5 -23.5q47 -51 212 8q4 1 24.5 9t25.5 9q-3 3 -8 6.5t-7 4.5q-32 23 -32 55q0 9 8.5 18.5t18.5 9.5q24 0 41 -24q20 -12 38 -43
q50 -26 121 -37t130 1q8 2 22.5 8t17.5 6q17 0 13 -27q-4 -25 -50 -32q-42 -6 -111 1t-116 28q-6 2 -8.5 0t-0.5 -7q15 -31 15 -69q0 -66 -53.5 -145t-104.5 -93q-2 -1 -9.5 -3.5t-15 -4.5t-12.5 -2q-80 0 -65 84q17 111 96 204q-115 -39 -190 -22q-7 1 -10 -5.5t-6 -21.5
q-1 -3 -1 -5q-15 -73 -53 -135.5t-81 -73.5q-18 -5 -37 -5q-27 0 -48 37.5t-15 80.5q-73 -61 -156.5 -99.5t-158.5 -35.5q-86 4 -138.5 73.5t-52.5 155.5q0 71 23 135t59.5 109t80.5 78.5t86.5 49.5t77.5 16q68 0 105.5 -31.5t37.5 -75.5q0 -53 -17 -82t-49 -12
q22 139 -43 159q-73 0 -144 -53.5t-114 -131.5t-43 -150q0 -88 45 -142.5t108 -54.5zM1095 205q0 31 -14 59q-102 -61 -134 -155q-1 -3 -2.5 -3.5l-3 -1t-1.5 -2.5v-16q0 -2 -5 -10t-6 -13q-5 -26 3.5 -41t23.5 -15q45 0 92 74.5t47 123.5zM704 296q-11 -31 -43 -73.5
t-72 -78.5q-14 -19 -14 -47q0 -36 11 -55.5t29 -19.5q39 0 69 53t40 113t1 88q-16 10 -21 20z" />
    <glyph glyph-name="C_r" unicode="Cr" horiz-adv-x="916" 
d="M620 333q-9 2 -9 21q0 5 9 10t17 5t25 -9.5t21 -17.5q4 -10 -4 -37.5t-24.5 -72.5t-23.5 -67q-2 -7 1 -8.5t7 4.5q33 40 121 107.5t121 67.5q15 0 35.5 -24t20.5 -45q0 -20 -14.5 -32t-31.5 -9q-8 2 -19.5 22t-17.5 21q-42 -6 -112 -62.5t-126 -120.5q-4 -7 -16.5 -43.5
t-19.5 -47.5q-7 1 -17 -5t-12 -6q-7 1 -17.5 13t-6.5 22q21 48 45 116q-76 -75 -172 -125.5t-183 -47.5q-92 4 -144 72.5t-52 156.5q0 71 23.5 135t60.5 109t82 78.5t88 49.5t78 16q68 0 110.5 -36t42.5 -80q0 -53 -17 -82t-49 -12q12 75 -4 116.5t-49 51.5
q-83 0 -156.5 -54t-114 -131t-40.5 -150q0 -87 49.5 -142t113.5 -55q76 0 175.5 57.5t184.5 157.5q18 67 21 113z" />
    <glyph glyph-name="C_u" unicode="Cu" horiz-adv-x="1085" 
d="M641 338q28 15 48.5 -12t15.5 -43q-8 -26 -45 -63q-16 -21 -31.5 -76.5t-17.5 -94.5q-1 -14 4 -17t24 4q40 15 101.5 74.5t85.5 112.5q-2 8 2.5 17.5t12.5 10.5q14 2 34 -3q6 -2 12 -19.5t4 -30.5q0 -2 -3 -3.5t-7 -3t-6 -3.5q-4 -22 -8 -56t-3.5 -72t11.5 -43
q27 -13 141.5 71t158.5 139q7 -1 7 -9t-7 -17q-67 -81 -168 -155t-134 -72q-4 3 -9.5 3t-8.5 2q-28 16 -39 49t-8.5 62t10.5 58q2 7 -1 6q-1 0 -4 -4q-41 -53 -91 -105.5t-76 -65.5q-29 -14 -39 -7q-3 2 -13.5 -4t-20.5 -3q-16 5 -24.5 23t-0.5 47q0 30 23 99
q-75 -74 -171 -124.5t-183 -47.5q-86 4 -138.5 73.5t-52.5 155.5q0 71 23 135t59.5 109t80.5 78.5t86.5 49.5t77.5 16q68 0 105.5 -31.5t37.5 -75.5q0 -53 -17 -82t-49 -12q22 139 -43 159q-83 0 -156 -53t-113 -129t-40 -149q0 -92 43 -146.5t118 -54.5t176 58.5t185 156.5
q33 92 41 118z" />
    <glyph glyph-name="D_e" unicode="De" horiz-adv-x="1207" 
d="M1094 236q0 -29 -54 -29q-69 11 -158 11q-18 -49 -18 -105q0 -38 12.5 -71.5t31.5 -33.5q44 0 104 31.5t119 81t84.5 72.5t45.5 43q11 11 24 2q9 -8 2 -18q-52 -58 -149.5 -138t-161.5 -104q-8 -6 -22 -6l-13 1q-16 -4 -33 -4q-89 0 -89 127q0 70 16 121
q-106 -4 -236 -28q-71 -95 -171.5 -165.5t-161.5 -70.5q-38 0 -69 18q-21 1 -33 17.5t-12 29.5q0 7 2.5 11t2.5 6q0 10 -11 10q-1 0 -2 -3q-1 -1 -7 0q-9 1 -13.5 17.5t0.5 29.5q3 9 18.5 23t21.5 26l231 485q-86 35 -245 78.5t-176 48.5q-41 13 -41 46q0 13 10.5 20.5
t21.5 2.5q77 -33 232.5 -85.5t213.5 -75.5l19 43q3 6 6.5 19t7 19.5t10.5 7.5q23 5 38 -10t9 -50q-1 -6 -41 -50q107 -49 165 -106.5t58 -136.5q0 -77 -55 -164q101 16 218 16q15 34 45 73t33 44q1 2 2.5 2.5t3 -0.5t4 -2t5.5 -1q1 0 9.5 4t15.5 -1q10 -3 19.5 -9t18 -13.5
t15.5 -14.5t13.5 -16t10.5 -14t9 -12l4 -7q1 -2 20.5 -18t19.5 -25zM636 395q0 119 -197 209q-48 -80 -120 -231.5t-108 -245.5q-9 -25 1 -33q3 -3 8 0q165 89 357 127q59 86 59 174zM226 23q0 -18 25 -19h13h6q35 0 121 50t150 122q-135 -31 -225 -74.5t-90 -78.5z
M1013 235q20 -1 26 4q-2 2 -20 27.5t-31.5 40t-21.5 14.5q-16 0 -36.5 -21t-36.5 -56q22 -1 120 -9z" />
    <glyph glyph-name="F_e" unicode="Fe" horiz-adv-x="734" 
d="M61 559q23 3 197.5 37t228.5 34q4 0 7 -3.5t8 -2.5q4 0 8.5 3.5t10.5 3.5q43 1 90.5 -5.5t59.5 -11.5q9 -4 16.5 -15.5t6.5 -18.5q-1 -9 -5.5 -19.5t-11.5 -10.5q-4 0 -7 6t-14 9q-99 32 -281 4q-52 -153 -107 -339q142 12 200 19q5 14 12.5 27.5l13 23t14 21t12.5 16.5
t12.5 14t9.5 11q3 0 12.5 2.5t16.5 4t15 1t11 -5.5q19 -3 44 -30t35 -45q1 -2 21.5 -19t20.5 -30q0 -15 -38 -26q-5 -1 -24.5 4t-29.5 3q-31 7 -117 0q-15 -58 -15 -100q0 -40 10 -71t29 -29q27 3 57 18.5t63.5 45.5t55 51t57 60t43.5 47q7 7 14 5q15 -5 12 -17
q-1 -3 -6.5 -9t-14 -14.5t-12.5 -13.5q-15 -15 -54 -57l-63 -66.5t-58 -51t-60 -34.5q-15 -5 -38 -5q-42 0 -63.5 36t-21.5 90q0 63 14 111q-47 -4 -202 -25q-36 -123 -53 -190q-2 -10 2 -18.5t4 -13.5q-1 -9 -14 -15.5t-29 -6.5t-25 11t-5 28q16 67 59 196l-182 -27
q-14 -2 -22.5 9t-10.5 21t-2 18q0 7 8.5 14t16.5 5q37 -10 63 -10q16 0 143 12l41 119l44 128l29 88q-59 -11 -134.5 -29.5t-84.5 -20.5q-25 -5 -44 5t-19 19q0 8 6.5 16t13.5 9zM584 331q-38 0 -65 -77l56 5q4 1 23 2q34 3 35 5q-6 6 -19.5 35.5t-29.5 29.5z" />
    <glyph glyph-name="F_l" unicode="Fl" horiz-adv-x="833" 
d="M314 260q177 0 329 101q27 69 64.5 139.5t60 105t37.5 54.5q15 21 31 31t28.5 9.5t22 -7t15 -17t5.5 -22.5q0 -72 -61 -154.5t-161 -152.5q-52 -133 -52 -240q0 -45 12.5 -57.5t43.5 -5.5q80 18 225 191q7 8 15 -8q4 -9 2 -14q-42 -65 -126 -142.5t-114 -77.5
q-47 -16 -75.5 16.5t-28.5 84.5q0 94 38 215q-176 -102 -345 -102h-19q-47 -158 -58 -205q-2 -10 2 -18.5t4 -13.5q-1 -9 -14 -15.5t-29 -6.5t-25 11t-5 28q15 67 70 227q-45 8 -72 25.5t-27 32.5q0 16 10.5 22.5t19.5 2.5q40 -20 87 -29l99 292q-59 -11 -134.5 -29.5
t-84.5 -20.5q-25 -5 -44 5t-19 19q0 8 6.5 16t13.5 9q23 3 197.5 37t228.5 34q4 0 7 -3.5t8 -2.5q4 0 8.5 3.5t10.5 3.5q43 1 90.5 -5.5t59.5 -11.5q9 -4 16.5 -15.5t6.5 -18.5q-1 -9 -5.5 -19.5t-11.5 -10.5q-4 0 -7 6t-14 9q-99 32 -281 4q-48 -143 -98 -308q11 -1 37 -1z
M786 543q-32 -48 -70 -124q87 79 134 175q5 9 5.5 17t-2 12t-6.5 4q-6 0 -61 -84z" />
    <glyph glyph-name="F_o" unicode="Fo" horiz-adv-x="899" 
d="M158 297q32 -10 70 -18l34 101l36.5 106t24.5 74q-59 -11 -134.5 -29.5t-84.5 -20.5q-25 -5 -44 5t-19 19q0 8 6.5 16t13.5 9q23 3 197.5 37t228.5 34q4 0 7 -3.5t8 -2.5q4 0 8.5 3.5t10.5 3.5q43 1 90.5 -5.5t59.5 -11.5q9 -4 16.5 -15.5t6.5 -18.5q-1 -9 -5.5 -19.5
t-11.5 -10.5q-4 0 -7 6t-14 9q-99 32 -281 4q-55 -164 -95 -298q158 -23 323 13q43 45 75 45q36 0 64 -24q-7 20 1 33.5t18 13.5q39 0 67 -23t28 -52q0 -9 -8 -14.5t-9 -8.5q-9 -53 -40.5 -116.5t-84 -115t-106.5 -51.5q-34 0 -65 36t-31 73q0 73 52 154q-67 -13 -146.5 -18
t-130.5 1q-7 0 -23 2q-49 -166 -61 -217q-2 -10 2 -18.5t4 -13.5q-1 -9 -14 -15.5t-29 -6.5t-25 11t-5 28q16 68 74 241q-52 9 -59 4q-9 1 -16.5 17.5t-5.5 29.5q3 27 29 18zM775 264q-13 10 -20 20q-1 -12 -22.5 -18t-74.5 -14q-6 0 -28 -26.5t-43.5 -65.5t-21.5 -64
q0 -39 18 -62.5t39 -23.5q47 0 100 76t53 178z" />
    <glyph glyph-name="F_r" unicode="Fr" horiz-adv-x="827" 
d="M94 270q70 -10 127 -9q90 260 102 299q-59 -11 -134.5 -29.5t-84.5 -20.5q-25 -5 -44 5t-19 19q0 8 6.5 16t13.5 9q23 3 197.5 37t228.5 34q4 0 7 -3.5t8 -2.5q4 0 8.5 3.5t10.5 3.5q43 1 90.5 -5.5t59.5 -11.5q9 -4 16.5 -15.5t6.5 -18.5q-1 -9 -5.5 -19.5t-11.5 -10.5
q-4 0 -7 6t-14 9q-99 32 -281 4l-97 -305q99 11 245 77q1 1 2 1q8 5 17 5q8 0 25 -9.5t21 -17.5q4 -10 -2.5 -32.5t-22 -60.5t-22.5 -62q-2 -7 1 -8.5t7 4.5q33 40 121 107.5t121 67.5q15 0 35.5 -24t20.5 -45q0 -20 -14.5 -32t-31.5 -9q-8 2 -19.5 22t-17.5 21
q-42 -6 -112 -62.5t-126 -120.5q-4 -7 -16.5 -43.5t-19.5 -47.5q-7 1 -17 -5t-12 -6q-7 1 -17.5 13t-6.5 22q79 186 87 283q-41 -32 -115 -56.5t-147 -33.5q-35 -115 -59 -210q-2 -10 2 -18.5t4 -13.5q-1 -9 -14 -15.5t-29 -6.5t-25 11t-5 28q16 67 68 222q-16 0 -45.5 0.5
t-43.5 0t-18 -5.5q-9 -1 -19 16.5t-9 26.5q2 26 25 23z" />
    <glyph glyph-name="F_u" unicode="Fu" horiz-adv-x="984" 
d="M95 276q64 -13 127 -13q83 240 101 297q-59 -11 -134.5 -29.5t-84.5 -20.5q-25 -5 -44 5t-19 19q0 8 6.5 16t13.5 9q23 3 197.5 37t228.5 34q4 0 7 -3.5t8 -2.5q4 0 8.5 3.5t10.5 3.5q43 1 90.5 -5.5t59.5 -11.5q9 -4 16.5 -15.5t6.5 -18.5q-1 -9 -5.5 -19.5t-11.5 -10.5
q-4 0 -7 6t-14 9q-102 32 -284 3q-40 -116 -97 -303q134 9 264 69q0 3 1 4q28 15 48.5 -12t15.5 -43q-8 -26 -45 -63q-17 -22 -34.5 -79.5t-19.5 -95.5q-1 -13 6.5 -15t26.5 6q40 15 101.5 74.5t85.5 112.5q-2 8 2.5 17.5t12.5 10.5q14 2 34 -3q6 -2 12 -19.5t4 -30.5
q0 -2 -3 -3.5t-7 -3t-6 -3.5q-4 -22 -8 -56t-3.5 -72t11.5 -43q27 -13 141.5 71t158.5 139q8 -1 8 -9t-8 -17q-67 -81 -168 -155t-134 -72q-4 3 -9.5 3t-8.5 2q-28 16 -39 49t-8.5 62t10.5 58q2 7 -1 6q-1 0 -4 -4q-41 -53 -91 -105.5t-76 -65.5q-29 -14 -39 -7
q-3 2 -13.5 -4t-20.5 -3q-16 5 -24.5 23t-0.5 47q0 13 4.5 33.5t14.5 51.5l17 52l21 61t19 53q-85 -44 -262 -65q-45 -152 -62 -221q-2 -10 2 -18.5t4 -13.5q-2 -20 -39 -20q-16 0 -25 11t-5 28q11 49 70 229q-27 -1 -49.5 -0.5t-40.5 -0.5t-22 -5q-9 0 -18 18t-8 27
q3 26 27 21z" />
    <glyph glyph-name="F_y" unicode="Fy" horiz-adv-x="944" 
d="M99 287q67 -13 126 -15q85 247 98 288q-59 -11 -134.5 -29.5t-84.5 -20.5q-25 -5 -44 5t-19 19q0 8 6.5 16t13.5 9q23 3 197.5 37t228.5 34q4 0 7 -3.5t8 -2.5q4 0 8.5 3.5t10.5 3.5q43 1 90.5 -5.5t59.5 -11.5q9 -4 16.5 -15.5t6.5 -18.5q-1 -9 -5.5 -19.5t-11.5 -10.5
q-4 0 -7 6t-14 9q-101 33 -287 3l-96 -295q121 5 280 66q9 6 30 4q11 -2 20 -10t2 -20q-3 -6 -25 -46l-34 -63t-26.5 -62t-20.5 -71q-3 -17 -0.5 -21t7.5 -2t11 9q29 36 111 122t106 86q30 0 46.5 -70.5t9.5 -160.5q31 21 58 23q19 0 33 -13t16 -33q2 -13 -4 -24t-15 -14
q-2 -3 -8.5 -1t-8.5 3t-9.5 6t-12.5 8q-23 -2 -59 -30q-20 -100 -60 -205.5t-79 -142.5q-12 -12 -26.5 1t-18.5 34q-14 66 32 171t114 176q14 109 -4 195q-7 28 -33 10q-38 -26 -75 -70t-60 -80.5t-48 -65t-44 -30.5q-17 -2 -30.5 13t-12.5 34q0 4 3 11.5t3 11.5
q9 101 88 271q-44 -30 -121.5 -50.5t-151.5 -23.5q-44 -145 -62 -217q-2 -10 2 -18.5t4 -13.5q-2 -22 -34 -22q-16 0 -25 11t-5 28q16 69 72 233q-15 1 -46 3.5t-45 2t-19 -4.5q-9 0 -18 18t-8 27q3 26 27 21zM650 -307q50 94 77 215q-87 -102 -90 -210q0 -9 1 -13.5t4.5 -2
t7.5 10.5z" />
    <glyph glyph-name="R_a" unicode="Ra" horiz-adv-x="1373" 
d="M290 732q131 0 252.5 -49.5t194 -123t76.5 -146.5q0 -4 1 -13.5t1 -15.5q0 -106 -71.5 -181.5t-187.5 -88.5q-14 -2 -19 -8t2 -15l44.5 -45.5l47 -48l43 -43t44.5 -41t39 -29.5t38.5 -22t31.5 -7q13 0 30 28t17 59q0 42 8 42q5 0 9 -14.5t0 -20.5q-3 -4 3.5 -6t6.5 -4
t-2.5 -5t-1.5 -8q0 -2 4.5 -11t3.5 -14q-2 -35 -26 -68.5t-41 -33.5q-38 0 -94.5 39t-104.5 87l-112 113t-101 96l-18.5 14.5t-19 16t-5.5 10.5q0 7 11.5 16t19.5 9q5 0 7 -4t5 -4q4 0 8 4t7 3q2 0 29.5 -20t37.5 -20q107 -1 184 56.5t77 168.5q0 67 -48.5 125.5t-121.5 96
t-153.5 59t-148.5 21.5q-137 0 -195.5 -20t-103.5 -80q-58 0 -58 46q0 18 20 35t60.5 32t110 24t159.5 9zM1163 284q32 0 43 -44q-24 -51 -33 -108q-10 -59 5 -74.5t61 8.5q53 28 131.5 89.5t117.5 110.5q13 0 17.5 -7t1 -17t-13.5 -20q-56 -54 -146 -125t-142 -94
q-14 -6 -30 -7t-32.5 5t-25.5 27.5t-7 56.5q1 14 4 28.5t5.5 23.5l7.5 26t8 26q1 5 0 5.5t-5 -2.5q-13 -10 -64 -76t-83 -96q-28 -27 -63 -30t-58 21.5t-19 68.5q5 54 48.5 113t93 95t78.5 36t66 -20q20 -11 24 -23q6 3 10 3zM494 610q11 0 26.5 -10.5t15.5 -19.5
q0 -21 -21 -63q-3 -5 -6.5 -3.5t-7 3.5t-3.5 1l4 -8q5 -8 3 -14q-2 -5 -8 -8t-6 -5q0 -1 1 -3q2 -3 -4 -17q0 -1 -24.5 -54l-37 -79l-40.5 -84.5t-49.5 -98l-49 -89.5t-54.5 -89.5t-52 -69.5q-1 -1 -10 -5t-21 -22q0 -4 -8.5 -3t-10.5 0q-3 -1 -11 -9t-12 -8q-6 0 -10 4t1 9
q37 33 56 57q62 82 167 295.5t144 324.5q3 8 3.5 27.5t5 30t19.5 10.5zM954 66q31 22 94 99.5t72 86.5q-1 1 -13 9.5t-24.5 13t-29.5 4.5q-22 0 -42 -20q-30 -30 -46 -48t-36.5 -53.5t-24.5 -69.5q-3 -25 15 -30.5t35 8.5z" />
    <glyph glyph-name="R_e" unicode="Re" horiz-adv-x="962" 
d="M276 571q7 0 13 -4q88 -13 145 -68.5t57 -105.5q0 -4 1.5 -10.5t1.5 -9.5t-4 -10.5t-3 -10.5q3 -9 -1 -35q-7 -39 -48 -86.5t-92 -75.5q-21 -12 -14 -29q19 -49 55 -83.5t80 -34.5q37 0 123 51q-4 19 -2 41q6 73 56.5 145t122.5 119q12 8 27 -1q3 -2 7.5 2t8.5 4
q15 0 34 -32t21 -58q1 -23 -16 -38l-1 -7q-1 -8 -5 -13q-16 -20 -74 -68.5t-121 -92.5q8 -29 38 -31t84 17q68 22 145.5 74.5t141.5 123.5q10 1 16 -2.5t-2 -16.5q-24 -29 -59.5 -62.5t-86 -73.5t-111 -68.5t-115.5 -32.5q-73 -25 -100 40q-91 -54 -135 -57q-41 -2 -75 12.5
t-59 44.5t-37.5 50.5t-27.5 50.5q-2 4 -4.5 12.5t-4.5 14t-4 5.5q-7 1 1 18q1 3 7 6t16.5 5.5t25.5 -0.5q47 7 95 55.5t54 107.5q0 4 3.5 10.5t2.5 9.5q0 2 -6.5 6.5t-6.5 8.5q-3 40 -42.5 78.5t-107.5 52.5q-7 -37 -47.5 -126t-96.5 -201t-72 -149q-3 -7 -3 -21.5t-1 -18.5
q-3 -9 -15 -16.5t-19 -7.5q-11 0 -15.5 14.5t-1.5 32.5q2 8 9 13.5t10 10.5q20 44 71.5 149l84.5 176.5t41 105.5q6 24 8 44q-7 1 -21 1q-67 0 -114 -22t-47 -45q0 -6 5 -23q-7 -9 -19 -6q-12 4 -30 22t-18 36q0 24 28 41.5t69.5 26t77.5 12t64 3.5q8 0 26 -2q4 2 8 2z
M788 316q-39 0 -89 -72.5t-53 -148.5q74 52 126 105.5t53 88.5q0 7 -15 17t-22 10z" />
    <glyph glyph-name="T_h" unicode="Th" horiz-adv-x="1067" 
d="M195 719q168 0 346 -70l16 50q2 5 -1 14t-2 13q11 49 24 49q15 0 27 -13.5t12 -32.5q0 -5 -1 -6.5t-2.5 -1.5t-4 -2.5t-4.5 -7.5l-28 -76q45 -19 180 -71q11 -4 17.5 2t6.5 25q-3 45 9 66.5t29 21.5q25 0 36 -41.5t11 -79.5q0 -21 -13 -42t-22 -21q-3 0 -9.5 2.5
t-11.5 2.5t-8 -6q-41 -78 -107 -339q-8 -31 4 -34q8 -1 18 11l29 40l54 72.5t55.5 62.5t45.5 30q10 0 15.5 -11t8 -25.5t2.5 -15.5q5 -11 -4 -22t-8 -19q4 -10 -11 -105.5t-7 -116.5q135 96 258 231q7 2 12.5 -2.5t6 -12.5t-7.5 -17l-32.5 -33l-45.5 -45.5l-48.5 -47.5
t-52.5 -49.5l-46 -40t-41 -31t-26 -10.5q-10 0 -20 18t-5 42q-11 18 5.5 113.5t7.5 112.5q-6 -4 -16 -15t-24 -29.5l-26.5 -35l-30.5 -41.5l-29 -40q2 -18 -9.5 -29.5t-29 -20t-21.5 -11.5q-13 3 -24.5 11t-11.5 18q0 120 118 468q-82 35 -192 76l-52 -156.5l-58.5 -178
t-54 -151t-55.5 -130.5q-42 -84 -87 -84q-36 0 -63 29q8 9 22 6q4 -1 12 -5t12 -4q17 0 31.5 18t37.5 61q61 112 219 607q-162 57 -253 58q-3 0 -11 4.5t-14 2.5q-22 -7 -29 -6q-71 5 -119.5 -12t-48.5 -56q0 -7 6.5 -26.5l12 -36.5t7 -36t-7.5 -25q-28 37 -49.5 81.5
t-21.5 72.5q0 85 193 85z" />
    <glyph glyph-name="W_h" unicode="Wh" horiz-adv-x="1328" 
d="M978 583q9 12 25 12q9 0 27.5 -12.5t17.5 -22.5q-2 -20 -22.5 -71.5t-24.5 -64.5q-2 -6 -4.5 -8.5t-4 -2.5t-6.5 1t-7 1q-19 -43 -45 -143t-43 -184q-1 -7 1.5 -12t7 -4.5t7.5 3.5q54 69 136 155.5t92 86.5q9 0 22.5 -6t18.5 -11q3 -4 -2 -10t-2 -8q16 -12 19 -39
q4 -10 -14.5 -103t-10.5 -114q137 97 255 227q7 2 12.5 -2.5t6 -12.5t-7.5 -17l-32.5 -33l-45.5 -45.5l-48.5 -47.5t-52.5 -49.5l-46 -40t-41 -31t-26 -10.5q-10 0 -18.5 18t-3.5 42q-11 18 5.5 113.5t7.5 112.5q-56 -15 -182 -184q-9 -60 -35 -84q-3 -6 -13 -1t-11 5
q-3 0 -13.5 -10t-14.5 -10t-8 5t-9 12.5t-6 8.5q-2 2 -2 3t1 2t2.5 5.5t2.5 11.5q15 112 66.5 286.5t55.5 192.5q-42 -1 -146.5 -8.5t-131.5 -8.5q-32 -1 -25 -31q23 -92 23 -169q0 -64 -22 -131.5t-60 -114.5t-79 -47q-42 0 -70.5 32.5t-40 84t-15 92.5t-2.5 79q0 21 -11 5
q-72 -103 -223 -285q-21 -25 -31 -25q-7 0 -14.5 1.5t-9.5 1.5q-8 0 -15 -8t-11 -8q-23 0 -42.5 36t-13.5 69q16 93 94 261t147 277q-4 25 5 38t25 13q18 0 32.5 -20t14.5 -38q0 -6 -3 -14t-8 -16t-9.5 -14l-10 -13.5t-6.5 -8.5q-3 -5 -10 -6t-14 -10q-55 -73 -117 -185
t-91 -216q-2 -6 -8 -9.5t-6 -4.5q-1 -2 3 -5.5t3 -7.5q-3 -24 5.5 -46t19.5 -22q40 0 141.5 123t161.5 228q3 45 28 45q19 0 27 -12q7 -10 1 -36q-1 -5 0.5 -10t1.5 -6q-5 -120 11 -217.5t58 -97.5q37 0 81.5 79.5t44.5 151.5q0 77 -12 137.5t-24 92t-12 36.5q0 20 22 20
q8 0 23 -9t19 -10q77 -8 150 -3.5t126 14.5q7 1 13 3.5t10 5t7 6.5l4.5 6t2.5 6.5t1 6.5t0.5 6.5t0.5 5.5z" />
    <glyph glyph-name="a_b" unicode="ab" horiz-adv-x="1023" 
d="M503 338q40 -12 139 -39q45 193 101 362q11 87 28 87q33 0 33 -55q0 -36 -27 -75q-48 -111 -94 -331q236 -67 249 -102q26 -12 26 -34q0 -7 -7.5 -10.5t-7.5 -6.5q-2 -42 -93 -66.5t-205 -19.5q-4 -61 -3 -83q0 -26 -7 -26q-2 0 -5.5 2.5t-5.5 2.5t-5.5 -6.5t-7.5 -6.5
q-6 0 -14 8t-8 16q0 93 31 248q-60 -56 -138.5 -116t-125.5 -81q-14 -6 -30 -7t-32.5 5t-25.5 27.5t-7 56.5q2 29 29 122q2 7 -1 7q-2 -1 -4 -4q-4 -7 -25.5 -38.5t-55 -76t-56.5 -70.5q-24 -27 -54 -30t-49.5 21.5t-15.5 68.5q10 107 64 177.5t102 70.5t83 -19
q21 -13 24 -25q31 51 35 59q12 8 32.5 0.5t28.5 -15.5q11 -11 1 -31q-25 -51 -38 -54q-28 -60 -37 -116q-10 -59 5 -74.5t61 8.5q49 25 121 81t115 104q-95 26 -130 37q-12 4 -12.5 16.5t6 22.5t13.5 8zM112 51q30 22 78 81.5t94 130.5h-6q-4 0 -27 14.5t-49 14.5
q-22 0 -42 -20q-65 -65 -76 -182q-5 -48 10 -48q8 1 18 9zM673 241q-11 -60 -22 -137q83 -11 136 -1.5t87 34.5q16 11 16.5 22t-10.5 15q-76 30 -207 67z" />
    <glyph glyph-name="a_j" unicode="aj" horiz-adv-x="864" 
d="M665 464q11 4 33 -9t23 -24q2 -41 -19 -135q-1 -3 -7.5 -12t-7.5 -11q-14 -41 -31 -124q169 91 324 143q28 -2 30 -15q1 -7 -11 -13q-19 -9 -86 -34.5t-138 -57.5t-128 -67l-24 -130l-26 -140t-24 -110.5t-26 -88.5q-8 -36 -33 -37q-25 -2 -48 32t-35.5 81t-12.5 88
q0 43 4.5 77t17.5 73.5t42 74.5t72 64q38 25 59 37q13 68 24 141q-63 -76 -149 -158.5t-132 -102.5q-14 -6 -30 -7t-32.5 5t-25.5 27.5t-7 56.5q2 29 29 122q2 7 -1 7q-2 -1 -4 -4q-4 -7 -25.5 -38.5t-55 -76t-56.5 -70.5q-24 -27 -54 -30t-49.5 21.5t-15.5 68.5
q10 107 64 177.5t102 70.5t83 -19q21 -13 24 -25q31 51 35 59q12 8 32.5 0.5t28.5 -15.5q11 -11 1 -31q-25 -51 -38 -54q-28 -60 -37 -116q-10 -59 5 -74.5t61 8.5q44 23 124 104.5t131 151.5q0 7 1 10q-3 49 2.5 87t16.5 42zM530 -273q18 56 74 348q-134 -101 -134 -222
q0 -130 36 -180l4 2t3.5 4t2.5 5.5l3 7.5t3 9t3.5 12zM112 51q30 22 78 81.5t94 130.5h-6q-4 0 -27 14.5t-49 14.5q-22 0 -42 -20q-65 -65 -76 -182q-5 -48 10 -48q8 1 18 9zM730 641q-21 -4 -46 16.5t-24 40.5q1 18 43 22q38 -38 38 -49q0 -28 -11 -30z" />
    <glyph glyph-name="a_l" unicode="al" horiz-adv-x="857" 
d="M912 656q-9 -98 -85.5 -224.5t-181.5 -239.5q-7 -39 -7 -83q0 -45 12.5 -57.5t43.5 -5.5q44 10 127.5 80.5t149.5 149.5q6 7 15 -0.5t5 -13.5q-41 -65 -152.5 -166t-142.5 -101q-47 -16 -75.5 16.5t-28.5 84.5q0 14 2 44q-82 -81 -147 -114q-56 -28 -93 -28q-69 0 -69 85
q0 30 11 76q6 26 0 31t-25 -17l-31.5 -38.5l-31 -38.5t-31.5 -34.5t-43 -39.5q-28 -23 -60 -23q-27 0 -43 19t-12 59q10 105 87.5 192t127.5 87q41 0 75 -38q2 -3 5 -5q1 3 5 9q13 9 43.5 14.5t35.5 -0.5q6 -6 13.5 -26t4.5 -27q-2 -4 -11.5 -26.5t-17.5 -37.5t-13 -16
q-26 -56 -26 -104q0 -51 37 -51q21 0 52 17q70 36 163 127q13 77 44 160t67 148t60 103.5t39 58.5q15 21 31 31t28.5 9.5t22 -7t15 -17t5.5 -22.5zM101 61q42 32 97.5 92.5t99.5 132.5q-37 8 -61 8q-53 0 -105 -63t-59 -135q-2 -16 -1 -25t2.5 -14t6 -5.5t9 2t11.5 7.5z
M791 545q-93 -141 -132 -290q141 162 190 310q13 40 -3 40q-6 0 -22.5 -17.5t-32.5 -42.5z" />
    <glyph glyph-name="a_s" unicode="as" horiz-adv-x="868" 
d="M211 359q21 0 42.5 -14.5t33.5 -34.5q6 30 25 30q17 0 42 -20.5t25 -37.5q0 -11 -6 -38t-12 -40q-3 -6 -5.5 -10t-3.5 -5t-1.5 -3t-0.5 -6q6 -49 23.5 -91.5t38.5 -42.5q44 0 110.5 60.5t114.5 131.5q-3 23 -3 43q0 56 26 89.5t77 33.5q33 0 42 -11q25 3 54.5 -15
t29.5 -34q0 -17 -18 -35q-46 38 -82 38q-29 0 -53 -28t-24 -65q0 -72 62 -198q16 -29 16 -48q0 -11 -10.5 -23t-20.5 -12q-6 0 -37 9l-69 20.5t-54 15.5q-7 2 -6 7.5t7 9.5q46 -15 113 -17q7 0 9.5 0.5t4 3.5t-1.5 9q-3 16 -25 76.5t-31 98.5q-113 -185 -185 -191
q-28 -19 -41 -12q-37 -7 -64.5 16.5t-41 64.5t-12.5 88q0 9 -3 12.5t-10 1t-16 -12.5q-11 -12 -40 -50.5t-41 -51.5q-9 -22 -36.5 -47.5t-45.5 -25.5q-82 0 -82 88q0 4 2.5 4.5t2.5 2.5q0 3 -2 5.5t-2 4.5q0 93 70 174.5t115 81.5zM110 57q30 19 100.5 114.5t73.5 98.5
q-44 27 -63 27q-46 0 -93 -59.5t-47 -142.5q0 -22 6.5 -35t22.5 -3z" />
    <glyph glyph-name="b_b" unicode="bb" horiz-adv-x="956" 
d="M228 715q17 0 29 -35.5t4 -80.5q-3 -14 -11 -18.5t-10 -7.5q-26 -60 -65 -191t-58 -208q-1 -7 1.5 -11t6.5 -3.5t7 3.5q36 57 95.5 104t94.5 47q37 0 60 -31l49 27.5l57.5 32l53.5 31t54 34.5q55 38 71.5 59.5t35.5 79.5l18 51q34 94 64 94q58 0 23 -104
q-18 -53 -88 -137q-49 -108 -133 -350q-8 -25 2 -25q6 0 14 10q53 59 121 118t104 59q45 0 42 -84q-1 -51 -28.5 -113.5t-62.5 -94.5q-4 -3 -12 -2t-10 0l-4.5 -4.5t-6.5 -5.5t-7 -2q-26 0 -46.5 18.5t-30.5 37.5q-16 10 -16 20q0 3 4 7.5t7 4.5q5 -4 15 -15t16.5 -17
t15 -11.5t15.5 -5.5q32 0 67.5 70t35.5 115q0 38 -31 21q-8 -4 -16.5 -9.5l-16 -10.5t-17.5 -13.5l-15.5 -13.5t-16.5 -16l-15 -15l-15.5 -16l-14 -14.5t-14.5 -15.5l-11 -13q-2 -3 -3 -12.5t-5 -14.5q-33 -44 -70 -44q-27 0 -30.5 34.5t20.5 76.5q14 61 82 249q9 22 6 27.5
t-7 4t-15 -7.5q-25 -15 -102 -54.5t-120 -66.5q5 -17 5 -32q0 -57 -40 -124.5t-90 -109.5q-2 -2 -7 -1t-8 -2t-6 -6.5t-4 -5.5q-8 -9 -27.5 -11t-26.5 1q-35 9 -35 70q0 32 43 90t109 112q9 8 27 19q-7 10 -14 10q-23 0 -75 -40.5t-74 -86.5q-13 -28 -33.5 -44.5
t-39.5 -16.5q-40 0 -34 40q5 42 50 189.5t84 263.5q1 17 5.5 45.5t5.5 41.5t0 41q-1 7 4.5 11t13.5 4zM213 86q0 -2 -2.5 -13.5t-3.5 -18.5t-1.5 -17t1.5 -16t7 -8q16 -7 49.5 22t62.5 77t29 87q0 11 -6 28q-93 -67 -136 -141z" />
    <glyph glyph-name="b_e" unicode="be" horiz-adv-x="908" 
d="M-35 338q50 -15 139 -39q45 193 101 362q11 87 28 87q33 0 33 -55q0 -36 -27 -75q-48 -111 -94 -331q236 -67 249 -102q26 -12 26 -34q0 -7 -7.5 -10.5t-7.5 -6.5q-2 -42 -93 -66.5t-205 -19.5q-4 -61 -3 -83q0 -26 -7 -26q-2 0 -5.5 2.5t-5.5 2.5t-5.5 -6.5t-7.5 -6.5
q-6 0 -14 8t-8 16q0 106 42 298l-65.5 18t-69.5 20q-12 4 -12.5 16.5t6 22.5t13.5 8zM488 196q10 0 23 -8.5t29.5 -21t27.5 -18.5q7 108 73 175t108 55q34 9 53 -14.5t19 -48.5q0 -44 -63 -119.5t-125 -93.5q11 -32 31 -46t39 -14q47 0 155.5 76t155.5 132q28 -11 -3 -47
q-43 -49 -139 -117t-158 -88q-4 -1 -10.5 -0.5t-9.5 -0.5t-3.5 -4t-4.5 -3q-39 -1 -73.5 29.5t-42.5 81.5q-33 6 -59 23.5t-37 32.5t-11 22q0 17 25 17zM135 240q-11 -58 -22 -136q83 -11 136 -1.5t87 34.5q16 11 16.5 22t-10.5 15q-67 26 -207 66zM624 167q0 -13 1 -19
q50 20 100 73t50 95q0 22 -19 22q-42 0 -87 -57.5t-45 -113.5z" />
    <glyph glyph-name="b_l" unicode="bl" horiz-adv-x="788" 
d="M253 736q12 11 34 11q11 0 19.5 -17.5t8.5 -48.5q0 -28 -41 -123q-4 -10 -19.5 -25t-21.5 -24q0 -1 -13.5 -36.5l-30 -83t-34.5 -105t-33 -117.5t-20 -105q-3 -29 -1 -43q4 -25 19 -38t28 -11q36 4 92 59.5t74 105.5q-15 17 -3 53q-8 10 -25 12q-3 0 -11.5 -1t-21 -1
t-28.5 4q-26 6 -42.5 27.5t-9.5 43.5q3 14 20 12q1 0 8.5 2.5t12.5 1.5q1 0 15 -5l30 -10.5t37.5 -10t39.5 -4.5q49 -1 100 33t87 75q3 3 5 3t4 2t1.5 6t1.5 7q79 91 121 185q0 2 1 3q19 53 33 83q29 13 41 -3q15 -5 17 -35t-16 -41q-6 -12 -14 -33t-14.5 -36.5t-14 -31.5
t-15.5 -24.5t-17 -8.5q-58 -143 -76 -354q-1 -20 -1 -38.5t10.5 -29.5t30.5 -6q43 11 122.5 82t137.5 142q13 4 12 -10q-1 -9 -8 -20q-44 -67 -130.5 -148t-131.5 -90q-34 -7 -55.5 3.5t-27 29.5t-7 39.5t3.5 34.5q-1 92 62 313q0 2 2 6q-5 10 -8 4q-40 -64 -98.5 -118
t-109.5 -67q-11 -3 -5 -7q2 -1 3.5 -7t0.5 -7q-9 -9 -9 -13l2 -6q2 -7 2.5 -13t-1.5 -13q-27 -68 -97.5 -142t-109.5 -74q-18 0 -22 1t-12.5 -3.5t-11.5 -4.5t-6 3t-7 4q-35 6 -51 42t-7 98q1 5 3.5 9.5t3.5 6.5q1 3 -0.5 11t-0.5 12q15 59 35 124.5t41.5 125.5l36.5 102.5
t32.5 87t18.5 46.5q23 60 29 137z" />
    <glyph glyph-name="c_c" unicode="cc" horiz-adv-x="752" 
d="M258 284q-40 7 -105 -49.5t-79 -128.5q-7 -39 1.5 -61t29.5 -22q22 0 98.5 37t153.5 82q45 27 65 44.5t44 47.5q9 11 18.5 21t17.5 17l8 6q5 4 5 10t4 9q12 8 22 13l16.5 8t14.5 4.5t10.5 1.5h10h8.5q20 0 41.5 -19t21.5 -49q0 -15 -10 -26t-24 -11q-35 0 -41 27
q-35 6 -72.5 -38.5t-48.5 -103.5q-9 -51 1.5 -66t43.5 -6q73 21 204 125q15 16 24 10l2 -3q0 -8 -12 -20q-43 -43 -98.5 -84.5t-96.5 -57.5q-5 -2 -9 -5.5t-7 -4.5q-66 -21 -96 8.5t-19 97.5q6 35 16 60q-186 -140 -281 -156q-5 -1 -9 -5t-7 -5q-50 -14 -78.5 17t-17.5 96
q19 112 114 186q5 3 5 9.5t4 9.5q37 24 75 34.5t48 -1.5q2 -3 8 -4t9 -3q41 -26 41 -51q0 -15 -10 -26t-24 -11q-31 0 -40 36z" />
    <glyph glyph-name="c_e" unicode="ce" horiz-adv-x="753" 
d="M648 221q-66 -81 -196 -154q4 -23 19.5 -32t39.5 -5.5t64 16.5q68 22 145.5 74.5t141.5 123.5q10 1 16 -2.5t-2 -16.5q-24 -29 -59.5 -62.5t-86 -73.5t-111 -68.5t-115.5 -32.5q-80 -27 -104 51q-118 -58 -210 -73q-5 -1 -15 0t-13 0q-65 -20 -105.5 25t-28.5 114
q19 111 119 184q2 2 3 2q4 3 11 10.5t12 10.5q67 45 88 17q2 -2 7 1t8 1q38 -24 38 -50q0 -15 -10 -26t-24 -11q-35 0 -41 27q-37 6 -89.5 -48t-65.5 -122q-19 -100 66 -100q102 0 243 72q-2 14 0 27q6 73 56.5 145t122.5 119q12 8 27 -1q3 -2 7.5 2t8.5 4q15 0 34 -32
t21 -58q1 -23 -16 -38l-1 -7q-1 -8 -5 -13zM593 316q-38 0 -87 -68.5t-55 -143.5q78 46 128 96t51 89q0 7 -15 17t-22 10z" />
    <glyph glyph-name="c_h" unicode="ch" horiz-adv-x="897" 
d="M415 14q4 30 7 46q7 33 -7 26q-4 -2 -9 -6q-72 -66 -178 -106q-6 -2 -25 -6t-21 -4q-66 -21 -115 26t-38 115q9 53 35 100.5t42.5 65t27.5 26.5q5 3 5 9.5t4 9.5q34 23 63.5 27.5t35.5 -7.5q1 -2 5.5 1t7.5 1q32 -22 32 -43q0 -13 -8.5 -22.5t-20.5 -9.5q-30 0 -35 23
q-34 6 -80.5 -51.5t-56.5 -138.5q-7 -57 23 -79t84 -12q94 16 204 109q31 27 43 45.5t20 57.5q12 59 50 188.5t41 176.5q9 12 25 12l15 10q14 11 21 11q20 0 31 -21t11 -35q0 -31 -27 -95q-18 -142 -137 -291q-18 -25 -27 -85q-1 -7 2 -12t7 -4.5t7 3.5q54 69 136 155.5
t92 86.5q9 0 22.5 -6t18.5 -11q2 -2 5.5 -25.5t9.5 -31.5q4 -10 -14.5 -103t-10.5 -114q137 97 255 227q7 2 12.5 -2.5t6 -12.5t-7.5 -17l-32.5 -33l-45.5 -45.5l-48.5 -47.5t-52.5 -49.5l-46 -40t-41 -31t-26 -10.5q-10 0 -18.5 18t-3.5 42q-11 18 5.5 113.5t7.5 112.5
q-56 -15 -182 -184q-7 -47 -36 -74q-7 -6 -23 -6q-3 0 -13.5 -10t-14.5 -10t-8 5t-9 12.5t-6 8.5q-2 2 -2 3t1 2t2.5 5.5t2.5 11.5zM592 521q-8 -8 -20.5 -45.5t-13.5 -39.5q-17 -40 -44 -139q-6 -24 -1 -25q2 0 7 8q0 1 1 2q45 86 66 166q3 13 5.5 25t4 23.5t0.5 18t-5 6.5
z" />
    <glyph glyph-name="c_l" unicode="cl" horiz-adv-x="738" 
d="M193 5q150 30 285 206q11 132 74.5 277t133.5 219q8 25 26 37.5t30 12.5q9 0 21 -16.5t12 -29.5q0 -29 -42 -76q-82 -256 -212 -428q-1 -12 -1 -35q0 -63 27 -110t80 -47q35 0 77 29.5t73 60t36 31.5t9.5 -0.5t3.5 -4.5q-1 -6 -6.5 -14.5t-11.5 -9.5q-118 -137 -197 -137
q-43 0 -87.5 48t-47.5 134q-114 -127 -248 -178q-6 -2 -25 -6t-21 -4q-66 -21 -115 26t-38 115q9 53 35 100.5t42.5 65t27.5 26.5q5 3 5 9.5t4 9.5q34 23 63.5 27.5t35.5 -7.5q1 -2 5.5 1t7.5 1q32 -22 32 -43q0 -13 -8.5 -22.5t-20.5 -9.5q-30 0 -35 23q-34 6 -80.5 -51.5
t-56.5 -138.5q-7 -58 23.5 -80t83.5 -11zM630 549q-69 -115 -97 -259q84 134 133 277q4 11 5 20.5t-2 10.5q-8 0 -28 -36q-2 -4 -5 -6t-6 -7z" />
    <glyph glyph-name="d_d" unicode="dd" horiz-adv-x="1060" 
d="M1155 137q10 0 13 -8.5t-7 -18.5q-66 -65 -152 -117t-130 -52q-35 0 -56 26.5t-23 70.5q-3 51 23 143q4 15 1.5 19t-7.5 1t-10 -10q-82 -125 -141 -178q-16 -32 -39.5 -54t-47.5 -22q-27 0 -41 12.5t-15.5 36.5t1 43t8.5 47q3 11 1.5 14t-5.5 1t-10 -8
q-129 -129 -188 -129q-27 0 -49 25t-21 56q-4 29 18 126q4 14 1.5 17.5t-6.5 1t-9 -8.5q-46 -59 -94 -106q-33 -65 -76 -65q-78 0 -49 118q22 83 74 135.5t93 52.5q47 0 81 -45q37 55 86 146l43 89.5t49 104.5q32 97 58 97q15 0 23.5 -19t3.5 -38q-36 -91 -99 -179
q-90 -156 -118 -227q-32 -81 -39 -150q-4 -39 8 -67t35 -28q35 0 103.5 61t127.5 137q27 49 59 78t59 29q28 0 61.5 -22t41.5 -47q32 48 97 165q90 210 122 210q17 0 24 -13.5t-1 -31.5q-34 -72 -95 -162q-45 -92 -65 -150t-32 -134q-11 -75 7.5 -103.5t61.5 -18.5
q89 19 241 149zM641 28q28 28 111 137q14 21 3 40q-21 36 -57 36q-28 0 -63 -50.5t-57 -130.5q-8 -29 -9 -46.5t5.5 -24.5t23 2.5t43.5 36.5zM146 87q67 67 98 108q10 16 9.5 21t-6.5 13q-18 21 -42 21q-26 0 -62.5 -41t-55.5 -107q-15 -57 9 -52q16 3 50 37z" />
    <glyph glyph-name="d_s" unicode="ds" horiz-adv-x="881" 
d="M722 426q19 0 56.5 -38t37.5 -48q0 -7 -11.5 -12.5t-18.5 -5.5q-4 0 -12 4.5t-11 4.5q-22 0 -35 -19.5t-13 -41.5t33.5 -113.5t33.5 -133.5q0 -47 -83 -64q-3 -1 -7.5 1.5t-6.5 2.5q-1 0 -5.5 -2.5t-7.5 -2.5q-24 0 -64.5 16t-69.5 47l-19 -14q-35 -24 -66.5 -30t-57 5.5
t-39.5 49.5t-11 100q4 82 48 219q-34 -45 -78 -97q11 -23 8 -46q0 -2 0.5 -2.5t2 0t3 -1.5t1.5 -8q1 -28 -19.5 -44.5t-37.5 -9.5q-11 4 -13 24q9 21 10 37q-51 -60 -111 -121q-26 -51 -83 -76q-38 -16 -59.5 1t-20 50t12.5 65q42 94 102 140.5t106 46.5q47 0 78 -28
q81 94 133 171l72 183l12.5 28l12.5 28l10.5 22.5t11.5 17t11 5.5q31 0 29 -35q16 0 0 -41q-55 -141 -137 -241q-51 -150 -63 -264q-7 -61 5.5 -96t39.5 -39t64 14q6 3 20 13q-25 36 -21 51q2 9 12 16q15 -27 32 -47q58 55 132 160q-16 61 -13 75q1 3 3.5 8t2.5 6l-2 6
q-2 6 -1 9q5 29 22 62t39 33zM139 113q73 73 126 133q-13 26 -41 26q-46 0 -95.5 -52.5t-70.5 -96.5q-32 -76 -1 -70q26 4 82 60zM682 191q-71 -100 -119 -147q47 -40 106 -40q18 0 35.5 8t17.5 18q0 30 -40 161z" />
    <glyph glyph-name="d_v" unicode="dv" horiz-adv-x="1006" 
d="M631 364q5 5 26.5 -1t41 -19t18.5 -25q0 -2 -2 -10q-9 -33 -40 -86q0 -3 4 -30l5.5 -36.5t6 -33.5t9.5 -38t13 -32t18 -32q11 -16 24 9q78 147 140 227.5t92 80.5q25 0 35 -39q51 -44 50 -50q-3 -20 -28 -20q-1 0 -8 5t-18.5 14t-19.5 14q-25 17 -55 -16
q-28 -30 -77.5 -102.5t-73.5 -133.5q-2 -39 -62 -39q-32 0 -57 52t-36 140q-56 -81 -121.5 -137t-116.5 -56q-36 0 -58 26t-24 74q-3 63 15 127q4 15 1.5 19t-7.5 1t-10 -10q-14 -18 -38.5 -53l-45.5 -62.5t-42 -49.5q-36 -71 -82 -71q-87 0 -53 129q24 95 71 151.5t90 56.5
q99 0 111 -38q54 80 92 149l91 201q34 108 63 108q16 0 25 -21.5t4 -41.5q-47 -92 -97 -166q-118 -242 -136 -360q-9 -57 3 -90.5t45 -33.5q45 0 108 60t107 135q-1 5 -4.5 27t-5 36.5t-3 34.5t1.5 34t10 22zM170 71q37 37 114 138q18 27 3 40q-5 4 -11 7t-15 4t-13 1h-17
h-14q-28 0 -61 -46.5t-54 -125.5q-10 -37 -7.5 -54t21 -8.5t54.5 44.5z" />
    <glyph glyph-name="e_e" unicode="ee" horiz-adv-x="652" 
d="M567 225l-166 -112q-2 -22 -2 -31q0 -46 16.5 -56.5t49.5 5.5q48 21 81.5 43t111.5 83q5 1 8.5 0.5t5.5 -3.5t-6 -11q-132 -135 -217 -155q-52 -17 -77 12.5t-28 74.5q-105 -66 -182 -87q-68 -14 -109 21t-36 91q6 74 50.5 140.5t115.5 112.5q12 8 27 -1q3 -2 7.5 2
t8.5 4q20 0 47.5 -14t28.5 -37q1 -12 -10.5 -32t-20.5 -28q-2 -2 -26 -18q-16 -12 -38 -23t-34.5 -16.5t-46 -18.5t-42.5 -17q-11 -35 -11 -71q0 -37 27 -51.5t70 -6.5q47 8 176 87q12 65 57.5 127.5t108.5 103.5q5 3 9.5 3.5t7 0t5.5 -2.5t4 -2q2 -2 6.5 1.5t7.5 3.5
q16 0 40 -23t25 -45q1 -24 -18 -43q-1 -1 -14 -4.5t-18 -6.5zM532 297q-28 0 -66 -44t-56 -101q156 100 156 119q0 7 -14 16.5t-20 9.5zM219 302q-26 0 -61.5 -31.5t-58.5 -78.5q50 17 97 48.5t48 52.5q0 9 -25 9z" />
    <glyph glyph-name="e_j" unicode="ej" horiz-adv-x="745" 
d="M576 379q11 4 34.5 -9t21.5 -24q-12 -54 -44 -153q161 77 307 108q26 -26 -8 -34q-143 -35 -316 -124q-92 -272 -140 -507q-6 -26 -54 -29q-9 -1 -24 14q-52 10 -87.5 76.5t-35.5 150.5t85.5 167t221.5 153q19 81 29 140q-41 -49 -85.5 -95t-105.5 -99.5t-125.5 -85.5
t-117.5 -32q-36 -9 -59.5 -2.5t-36 28t-17 43t-2.5 41.5q7 71 59 141.5t126 116.5q13 8 28 -1q2 -1 7 2.5t10 3.5q16 0 35.5 -31.5t21.5 -57.5q1 -22 -17 -37l-1 -7q-1 -8 -5 -12q-58 -66 -210 -146q5 -36 39 -41t95 16q75 23 176 113.5t186 203.5q1 6 9 9zM414 -273
q72 235 111 392q-254 -142 -254 -256q0 -163 91 -220q30 13 52 84zM224 317q-38 0 -91 -65.5t-62 -136.5l2 2q58 24 120.5 74.5t63.5 92.5q0 7 -13.5 20t-19.5 13zM701 567q-21 -4 -46 16.5t-24 40.5q1 18 43 22q38 -38 38 -49q0 -28 -11 -30z" />
    <glyph glyph-name="e_v" unicode="ev" horiz-adv-x="806" 
d="M397 364q5 5 26.5 -1t41 -19t18.5 -25q-1 -16 -19.5 -49.5t-22.5 -43.5q1 -4 4 -30t5 -36.5l6.5 -34.5t9.5 -38.5t13 -33t18 -32.5q11 -16 24 9q78 147 140 227.5t92 80.5q25 0 35 -39q51 -44 50 -50q-3 -20 -28 -20q-1 0 -8 5t-18.5 14t-19.5 14q-25 17 -55 -16
q-28 -30 -77.5 -102.5t-73.5 -133.5q-2 -39 -62 -39q-33 0 -59.5 57.5t-36.5 153.5q-50 -63 -130 -134t-114 -74q-1 0 -14.5 -2.5t-24.5 -2.5q-39 0 -60 39t-21 92q0 42 8 80.5t23 68t27 49t28.5 40.5t19.5 26q36 6 47 -9q28 -4 59 -61q1 -2 18.5 -17t17.5 -28
q0 -15 -38 -26q-104 -32 -157 -42q-9 -35 -9 -62q0 -48 13 -80.5t34 -30.5q34 2 86.5 40.5t86 71.5t83.5 87q9 10 14 15q-1 7 -1 21l-6 29q-7 28 -6 53t13 39zM175 317q-39 0 -74 -96q36 6 79.5 18t41.5 18q-23 60 -47 60z" />
    <glyph glyph-name="eight_eight" unicode="&#x38;&#x38;" horiz-adv-x="1121" 
d="M805 -62q-22 0 -60 12t-79.5 34t-71 60t-29.5 82q0 65 110 131q-18 38 -25 57q-1 3 -1 10.5t-1 10.5t-4.5 7t-4.5 7q-11 38 -11 72q0 77 45 117.5t110 40.5q44 0 82.5 -27.5t42.5 -54.5q6 -42 -17 -63q-66 27 -51 70q-1 1 -3 4l-3 4.5t-3.5 4l-4 4t-4.5 3.5t-6 3t-7 1.5
t-8 0.5q-55 0 -86.5 -35t-31.5 -86q0 -69 26 -132q36 20 103 51.5t110.5 55.5t63.5 46q28 14 50 15t32.5 -7t10.5 -20q-5 -20 -19 -31.5t-34 -1.5q-34 -19 -141.5 -66.5t-158.5 -77.5q22 -41 64 -93.5t67 -91t25 -73.5q0 -10 -15 -22q-1 -1 -5.5 -2t-6.5 -2q-28 -18 -50 -18
zM278 -57q-24 0 -59.5 5.5t-76 17t-69 33.5t-28.5 50q0 34 31 43q30 40 98 82q-35 43 -52 95q-1 3 -0.5 17t-0.5 17t-4.5 7t-4.5 7q-5 6 -3 20t2 20q0 55 45 97t98.5 60t98.5 18q62 0 112.5 -50.5t55.5 -85.5q3 -19 -8 -31.5t-23 -11.5q-17 7 -22.5 20.5t-4.5 44.5
q-1 1 -7 12t-9 15.5t-11.5 14t-17.5 13.5t-24 8t-33 4q-62 0 -108 -20q-2 -1 -9 -2.5t-9 -2.5q-5 -2 -10 -7.5t-8 -7.5q-51 -38 -51 -105q0 -82 46 -144q28 16 86.5 44.5t98 51t64.5 44.5q13 -2 18.5 -7t6 -8.5t0.5 -12.5q-12 -44 -48 -37q-32 -18 -102 -51.5t-101 -50.5
q14 -15 46 -41q3 -2 5.5 -6.5t4.5 -6.5q1 -1 6 -2.5t7 -2.5q13 -10 36 -26t35 -25t26 -21t20 -21.5t6 -18.5q0 -18 -26 -30l-18 -4q-18 -4 -20 -5q-30 -16 -85 -16zM834 1q0 13 -20.5 44l-57.5 83t-61 93q-82 -57 -82 -113q0 -34 60 -78t111 -44q17 0 33 4.5t17 10.5z
M346 13q0 11 -21.5 28.5l-60.5 47.5t-66 58q-93 -57 -93 -117q0 -8 20.5 -17.5t60.5 -16t86 -6.5q17 0 45 8.5t29 14.5z" />
    <glyph glyph-name="f_e" unicode="fe" horiz-adv-x="677" 
d="M322 421q10 278 -19 298q-68 -52 -105 -208q-19 -79 -58 -281q39 -7 79 -11q54 -7 129 -5q8 27 22 54t22.5 40t25 34.5t17.5 22.5q38 6 50 -10q19 -3 44 -28.5t34 -41.5l22 -21t21 -33q0 -15 -38 -26q-69 -24 -186 -30q-7 -31 -7 -58q0 -25 4 -49t13.5 -42t22.5 -17
q55 4 129 51t126.5 97t74.5 83q5 8 14 5q15 -5 12 -17q-1 -3 -6.5 -9t-14 -14.5t-12.5 -13.5q-42 -58 -139 -135.5t-150 -82.5q-3 0 -9 -1.5t-13.5 -2.5t-15.5 -1q-79 0 -79 129q0 41 6 76q-76 -3 -161 4q-19 1 -46 5l-29 -154.5l-29 -154.5l-24 -120.5t-21 -93.5t-12 -32
q-12 -2 -25 -10t-21 -8q-33 0 -84 54.5t-89.5 123t-44.5 111.5q-8 37 20 77t56 44q6 1 13 -3t11 -9t3 -6q-1 -3 -9.5 -10l-18 -15t-15.5 -24.5t-3 -36.5q8 -53 51.5 -126t63.5 -92q14 -13 23.5 -19.5t19 -8.5t17 5.5t13.5 24.5q1 3 -1 3q-1 1 -1 3q20 75 98 483l-39 7.5
t-32 6t-25 3.5t-18 0q-33 25 -25 44t37 16q15 -1 31 -5t38.5 -10.5t41.5 -11.5q59 308 93 404q3 10 4.5 26.5t5.5 26.5q9 20 18.5 46t14 37t11 23t13.5 16t16 4q21 0 55 -23.5t33 -51.5q-1 -29 6 -147.5t1 -149.5q-4 -20 -10.5 -28.5t-11.5 -8.5t-15.5 4t-13.5 5zM472 322
q-44 0 -79 -106q87 5 151 14q-13 30 -34 61t-38 31z" />
    <glyph glyph-name="f_r" unicode="fr" horiz-adv-x="704" 
d="M-20 257q16 2 55 -1t76 -1q10 41 22.5 79.5t26 72t23 54.5l23 49t15.5 33q4 11 27 47.5t28 41.5q3 4 4 11.5t6 11.5q6 7 27.5 21t26.5 14q29 2 43 -32t9 -85q-3 -35 -6 -55.5t-7.5 -38.5t-11 -24.5t-15.5 -4.5q-1 3 -1.5 42.5t-6.5 70.5t-22 33q-14 1 -34 -24t-23 -38
q-1 -5 -2.5 -6.5t-5 -2.5t-6.5 -5q-58 -78 -105 -262q6 0 22 2q102 11 233 67v6q0 5 9 10t17 5t25 -9.5t21 -17.5q4 -10 -3 -33t-22.5 -61t-22.5 -62q-2 -7 1 -8.5t7 4.5q33 40 121 107.5t121 67.5q15 0 35.5 -24t20.5 -45q0 -20 -14.5 -32t-31.5 -9q-8 2 -19.5 22t-17.5 21
q-42 -6 -112 -62.5t-126 -120.5q-4 -7 -16.5 -43.5t-19.5 -47.5q-7 1 -17 -5t-12 -6q-7 1 -17.5 13t-6.5 22q78 185 88 278q-102 -59 -263 -83l-11 -2q-14 -68 -18 -105q-1 -10 -5 -18.5t-4 -9.5q0 -2 2 -8.5t1 -11.5q-14 -155 -11 -340q0 -6 8 -27t7 -27q-1 -8 -23 -19
t-31 -10q-6 1 -10.5 7.5t-6.5 6.5q-45 12 -82.5 92t-31.5 134q1 11 4 20q0 1 -2 4.5t-2 6.5q-1 21 8 83.5t18 89.5q5 15 12 15q5 -1 8 -6t1 -10q-13 -51 -21 -134q-2 -22 2 -58.5t15 -77.5t35 -75.5t56 -44.5q2 252 17 390q6 67 20 130q-21 -2 -49.5 -2.5t-43 -2t-22.5 -5.5
q-22 11 -28.5 25t1 23t21.5 10z" />
    <glyph glyph-name="f_t" unicode="ft" horiz-adv-x="626" 
d="M-15 283q14 0 123 -15q58 288 87 374q3 10 4.5 26.5t5.5 26.5q9 20 18.5 46t14 37t11 23t13.5 16t16 4q21 0 55 -23.5t33 -51.5q-1 -29 6 -147.5t1 -149.5q-4 -20 -10.5 -28.5t-11.5 -8.5t-15.5 4t-13.5 5q10 278 -19 298q-68 -52 -105 -208q-27 -114 -52 -248
q54 -6 136 -9q67 -2 127 1q24 91 78 262q16 49 18 112q0 6 9 11.5t16 6.5q16 1 28.5 -8.5t13.5 -20.5q1 -10 -6 -39.5t-13 -45.5q-4 -8 -13.5 -18t-14.5 -20q-45 -118 -72 -237q174 11 298 33q17 -1 16.5 -9.5t-24.5 -15.5q-101 -31 -298 -45q-10 -54 -13 -91
q-14 -133 38 -129q19 2 37 11.5t26.5 17.5t24.5 25q12 -8 4 -25q-5 -9 -24.5 -28l-21.5 -21q-5 -5 -31 -13t-34 -8q-9 -1 -26.5 5t-22.5 15q-2 3 -1.5 8t-0.5 5q-1 1 -3 1t-3 2q-4 4 -9 23.5t-4 36.5q-7 54 19 162q-89 -5 -170 -3q-9 0 -93 3l-30 -161l-31 -165.5
l-25 -127.5t-22.5 -102.5t-12.5 -34.5q-12 -2 -21 -8t-17 -6q-53 0 -128 83t-84 148q-8 37 20 77t56 44q6 1 11.5 -2.5t8 -7.5t1.5 -5q-1 -3 -9.5 -10l-18 -15t-15.5 -24.5t-3 -36.5q12 -78 107 -167q14 -13 23.5 -19.5t19 -8.5t17 5.5t13.5 24.5q1 3 -1 3q-1 1 -1 3
q12 44 27 117.5l41 210.5l36 188q-123 9 -135 7q-34 17 -24 36.5t45 18.5z" />
    <glyph glyph-name="f_t_e" unicode="fte" horiz-adv-x="946" 
d="M532 648q10 0 24 -14t14 -25q0 -27 -19 -73q-2 -6 -7 -9t-8 -10q-35 -85 -79 -250q99 2 177 -1q13 28 28.5 51.5t35 47t20.5 25.5q39 6 51 -10q27 -3 74 -84q1 -1 22.5 -21t21.5 -34q0 -11 -22 -21q-5 -5 -15 -5q-142 9 -185 11q-20 -54 -20 -95q0 -42 10.5 -76.5
t30.5 -32.5q83 5 204 86t156 133q5 8 15 5q15 -5 12 -17q-1 -3 -6.5 -9t-14 -14.5l-13.5 -13.5q-39 -54 -150.5 -128t-167.5 -79q-1 0 -14.5 -2.5t-24.5 -2.5q-81 0 -81 131q0 62 18 116q-75 3 -172 1q-37 -150 -51 -256q-1 -6 3 -15t3 -12q-4 -9 -17 -17.5t-21 -8.5
q-9 0 -19.5 6t-10.5 15q0 8 5 20t6 14q20 119 54 251q-28 -1 -75 -5q-109 -11 -192 -28l-29.5 -156.5l-29.5 -157.5l-23.5 -122t-21 -96t-12.5 -33q-12 -2 -25 -10t-21 -8q-33 0 -84 54.5t-89.5 123t-44.5 111.5q-8 37 20 77t56 44q6 1 13 -3t11 -9t3 -6q-1 -3 -9.5 -10
l-18 -15t-15.5 -24.5t-3 -36.5q8 -53 51.5 -126t63.5 -92q14 -13 23.5 -19.5t19 -8.5t17 5.5t13.5 24.5q1 3 -1 3q-1 1 -1 3q17 62 97 478q-63 -14 -97 -17q-43 -3 -55.5 14.5t36.5 44.5q23 -3 127 14q60 312 92 403q3 10 4.5 26.5t5.5 26.5q9 20 18.5 46t14 37t11 23
t13.5 16t16 4q21 0 55 -23.5t33 -51.5q-1 -29 6 -147.5t1 -149.5q-4 -20 -10.5 -28.5t-11.5 -8.5t-15.5 4t-13.5 5q10 278 -19 298q-68 -52 -105 -208q-23 -97 -56 -266q62 9 120 14q83 6 148 7q32 124 73 248q6 17 10.5 41.5t7 44.5t2.5 22q2 8 11 17t18 9zM756 346
q-38 0 -76 -83q90 -5 141 -14q-39 97 -65 97z" />
    <glyph glyph-name="five_five" unicode="&#x35;&#x35;" horiz-adv-x="1272" 
d="M212 456q-5 12 -5 19q0 29 48.5 39t145.5 14q22 2 74.5 8t82 9t75.5 5t54 -3q14 1 21.5 -6t7.5 -16q0 -14 -14 -13q-13 1 -30.5 1t-39.5 -1t-45.5 -3t-48 -4.5l-47 -5t-42.5 -5t-34.5 -4.5t-23.5 -3l-9 -1q-8 -4 -31.5 -11t-42 -15t-39.5 -22t-33.5 -38t-14.5 -56
q0 -38 35.5 -70t78 -50.5t78 -43t35.5 -48.5q0 -39 -52.5 -77t-121 -60t-120.5 -22q-32 0 -60 31t-28 66q0 31 25 49q-1 -63 12.5 -81t54.5 -20q37 -2 120.5 31.5t108.5 76.5q0 16 -38.5 40.5t-84.5 48.5t-84 65t-38 87q0 30 13 51q1 2 6 5t6 4t2.5 4.5t3.5 5.5q15 11 39 19
zM758 451q0 3 -10 15t-8 23.5t26 22.5q29 4 161 27.5t245 40.5t135 12q8 -10 -2 -20t-28 -12q-27 -4 -62.5 -10.5t-70 -14l-70 -15.5t-65.5 -15.5l-54 -13.5t-37 -9l-14 -4q-63 -39 -123.5 -100t-60.5 -110q5 -42 47 -58t113 -20q3 0 10.5 -2t11.5 -2t12 1t12 1q3 0 9.5 -1
t9.5 -1q75 2 111 -6.5t36 -36.5q0 -29 -55 -69t-117 -66.5t-89 -26.5q-32 0 -60 16t-34.5 35t8.5 35q24 -30 45 -39q15 -6 34 -7q23 -1 96 39t101 76q-13 5 -58 6.5t-93 5t-97 14t-81.5 40.5t-34.5 78q-2 35 23.5 71.5t51.5 63t26 36.5z" />
    <glyph glyph-name="four_four" unicode="&#x34;&#x34;" horiz-adv-x="1120" 
d="M1036 535q20 6 32.5 -5t12.5 -26q0 -4 -6 -17.5t-20 -35t-30 -38.5q-53 -105 -56 -115q-3 -7 -2.5 -10.5t3.5 -4.5t9 -1q8 0 24 1t24 1q30 0 50 -5t27 -11t7 -12l-9 -27q-5 -11 -28 -15.5t-32 16.5q-12 7 -62 7q-22 0 -34.5 -10t-23.5 -41l-13.5 -42.5t-7 -34t-3.5 -49.5
t25 -48q10 -9 1.5 -24t-22.5 -14q-10 0 -15 12q-13 3 -24.5 25t-11.5 40q0 75 34 150q4 9 5 15.5t-1.5 10t-9.5 2.5q-10 -2 -39 -6l-43 -6l-39 -5.5t-39.5 -4t-31.5 -0.5t-27.5 2t-15.5 7q-19 -7 -38 19.5t-19 41.5q0 40 16 56q35 50 123 141t119 133q22 3 36 -22t-6 -52
q-26 -31 -77 -58q-5 -4 -31.5 -28.5t-38.5 -36.5t-31.5 -34.5t-29.5 -42.5t-13 -40q-5 -18 13 -31t53 -13q13 0 41.5 4t66.5 11t53 9q6 1 10 1.5t8 2t6 2t4.5 3t3.5 3t3 4.5t2.5 5.5t3.5 8t4 8.5l30 65.5l29 59l20 39.5q1 21 10 39.5t21 20.5zM428 476q11 0 33.5 -7.5
t22.5 -13.5q0 -17 -3 -34q-1 -5 -5.5 -9.5t-5.5 -6.5q-50 -124 -66 -191q179 -9 179 -32q0 -40 -11 -43q-12 -3 -34.5 1.5t-40.5 15.5q-16 9 -102 11q-1 -4 -1.5 -8t-1 -9t-0.5 -8q-6 -71 -1 -105q0 -3 -2 -3.5t-4.5 -1t-2.5 -2.5q0 -5 -4.5 -13t-9.5 -8q-44 0 -39 42
q1 9 3.5 13t2.5 10q1 39 13 94q-197 0 -209 1q-41 -9 -69.5 -1t-28.5 28q0 21 20 29q65 92 226 288q22 49 45 57q20 3 40 -16.5t8 -35.5q-20 -29 -70 -55q-67 -63 -170 -209q-14 -20 -10.5 -30t36.5 -10q11 0 87 0.5t106 0.5q8 33 26 98.5l25 92.5q1 6 1 6.5t-1 1.5l-2 2
q-1 3 3 7q-2 1 -6 8.5t-3 11.5q1 7 9.5 20t16.5 13z" />
    <glyph glyph-name="g_a" unicode="ga" horiz-adv-x="1041" 
d="M241 425q38 8 53.5 -9t15.5 -42q0 -75 -70 -76q2 5 5.5 23.5t5.5 33t-1 15.5q-105 -46 -188 -273q-7 -19 -2 -29t23 14q25 18 67.5 70.5l75.5 94t40 41.5q88 0 92 -155q9 5 48 24l52 25.5l44 23t47.5 26.5t38 24.5t38.5 27.5q47 52 87 52q48 0 83 -19q21 -13 24 -25
q31 51 35 59q12 8 32.5 0.5t28.5 -15.5q11 -11 1 -31q-25 -51 -38 -54q-28 -60 -37 -116q-10 -59 5 -74.5t61 8.5q53 28 131.5 89.5t117.5 110.5q13 0 17.5 -7t1 -17t-13.5 -20q-56 -54 -146 -125t-142 -94q-14 -6 -30 -7t-32.5 5t-25.5 27.5t-7 56.5q2 29 29 122q2 7 -1 7
q-2 -1 -4 -4q-4 -7 -25.5 -38.5t-55 -76t-56.5 -70.5q-24 -27 -54 -30t-49.5 21.5t-15.5 68.5q6 64 32 122q-29 -18 -223 -116q-11 -119 -89.5 -307.5t-138.5 -234.5q-5 -3 -5.5 -6t-6.5 -8q-16 -15 -55 -15q-48 0 -82 41.5t-34 137.5q0 57 21 109t52.5 91.5t82 78.5
t96.5 66t110 60q-3 86 -27 108q-13 11 -26 -6q-34 -43 -74.5 -84.5t-54.5 -50.5q-7 -31 -37.5 -58.5t-48.5 -27.5q-25 0 -31.5 28t6.5 67q15 75 59 164t93 143t75 35zM63 -438q48 0 104 95.5t94 213t45 197.5q-70 -37 -121.5 -71t-100 -78.5t-74 -98.5t-25.5 -114
q0 -89 44 -140q10 -4 34 -4zM630 51q30 22 78 81.5t94 130.5h-6q-4 0 -27 14.5t-49 14.5q-22 0 -42 -20q-65 -65 -76 -182q-5 -48 10 -48q7 0 18 9z" />
    <glyph glyph-name="g_e" unicode="ge" horiz-adv-x="809" 
d="M612 10q23 0 51.5 15t65 48l56.5 52t61 63.5t43 46.5q7 7 15 5q4 -1 5.5 -9.5t-0.5 -13.5q0 -1 -27 -32q-45 -59 -123.5 -131t-116.5 -80q-3 -1 -9.5 -3.5t-15 -4.5t-17.5 -2q-43 0 -62 37t-19 94q0 39 4 64q-119 -71 -194 -132q-53 -348 -98 -429q-2 -24 -18.5 -38
t-35.5 -14q-23 0 -52.5 30.5t-26.5 75.5q-29 114 78 271q34 52 112 113q11 92 19 197q1 16 -1 21.5t-7 1t-13 -18.5l-26.5 -49.5t-29.5 -53.5t-31 -46t-46 -56q-6 -5 -12.5 -5.5t-11.5 -5.5q-34 -30 -73 -5.5t-39 72.5q0 91 73.5 162t154.5 91q48 36 66 33q6 -2 10 -4
q12 9 24 9q28 0 22 -55q-14 -122 -32 -253q36 26 107.5 71.5l88.5 56.5q10 36 26 65t38.5 58.5t30.5 42.5q40 6 52 -10q19 -3 45 -31t36 -45q1 -2 23 -19.5t22 -30.5q0 -6 -5.5 -9.5t-11.5 -5t-15.5 -3t-11.5 -2.5q-1 0 -59 -9q-26 0 -122 -17q-6 -20 -8 -59.5t8 -76.5
t33 -37zM128 -281q2 -7 3 -29.5t3 -41.5t10.5 -34.5t23.5 -15.5q67 73 113 388q-75 -69 -106 -130t-47 -137zM196 286q-52 -36 -88 -95.5t-38 -115.5q-1 -19 16 -19q19 -1 39 23q52 39 128 183q7 14 4.5 20t-14.5 4q-19 -2 -47 0zM717 235l22 5q-8 7 -21.5 28.5t-26.5 37.5
t-26 16t-40 -34t-35 -68q17 4 46.5 7.5t53.5 5t27 2.5z" />
    <glyph glyph-name="g_g" unicode="gg" horiz-adv-x="900" 
d="M243 -312q3 1 10 -7.5l21.5 -25t34.5 -34t56 -35t81 -27.5q85 -20 145 45q72 79 117 253t56 340q1 16 -1 21.5t-7 1t-13 -18.5l-26.5 -49.5t-29.5 -53.5t-31 -46t-46 -56q-6 -5 -12.5 -5.5t-11.5 -5.5q-34 -30 -73 -5.5t-39 72.5q0 60 36 116l-154 -72
q-13 -123 -105.5 -342.5t-153.5 -266.5q-5 -3 -5.5 -6t-6.5 -8q-22 -21 -63 -21q-58 0 -94.5 48t-36.5 147q0 66 24.5 126.5t62 106t95 90t111 76t122.5 65.5q-3 83 -27 104q-12 11 -25 -6q-34 -43 -74.5 -84.5t-54.5 -50.5q-7 -31 -37.5 -58.5t-48.5 -27.5q-25 0 -31.5 28
t6.5 67q15 75 59 164t93 143t75 35q38 8 53.5 -9t15.5 -42q0 -75 -70 -76q2 5 5.5 23.5t5.5 33t-1 15.5q-105 -46 -188 -273q-7 -19 -2 -29t23 14q25 18 67.5 70.5l75.5 94t40 41.5q88 0 92 -152q24 12 75 35.5l85 39.5t60 31q59 46 124 63q48 36 66 33q6 -2 10 -4
q12 9 24 9q26 0 22 -55q-36 -514 -197 -698q-42 -48 -99.5 -62.5t-90.5 9.5q-9 6 -11.5 3t-15.5 1q-148 61 -167 147zM28 -507q48 0 113 113t111.5 249.5t53.5 216.5q-63 -31 -112 -59.5t-101.5 -69t-87 -83t-57 -98.5t-22.5 -117q0 -53 19 -95.5t49 -52.5q10 -4 34 -4z
M653 250q-52 -36 -88 -95.5t-38 -115.5q-1 -19 16 -19q19 -1 39 23q52 39 128 183q7 14 4.5 20t-14.5 4q-19 -2 -47 0z" />
    <glyph glyph-name="g_h" unicode="gh" horiz-adv-x="1008" 
d="M652 583q9 12 25 12q9 0 27.5 -12.5t17.5 -22.5q-2 -20 -22.5 -71.5t-24.5 -64.5q-2 -6 -4.5 -8.5t-4 -2.5t-6.5 1t-7 1q-19 -43 -45 -143t-43 -184q-1 -7 1.5 -12t7 -4.5t7.5 3.5q54 69 136 155.5t92 86.5q9 0 22.5 -6t18.5 -11q6 -7 8 -28.5t7 -28.5q4 -10 -14.5 -103
t-10.5 -114q101 58 255 227q7 2 13 -3t6 -12.5t-8 -16.5q-23 -21 -90 -94t-118.5 -117.5t-83.5 -45.5q-10 0 -18.5 18t-3.5 42q-11 18 5.5 113.5t7.5 112.5q-56 -15 -182 -184q-7 -44 -35 -70q-11 -10 -24 -10q-3 0 -13.5 -10t-14.5 -10q-14 0 -21 22q-1 5 2 26
q15 133 66 300q-75 -94 -225 -195q-2 -109 -83 -315.5t-145 -255.5q-5 -3 -5.5 -6t-6.5 -8q-22 -21 -63 -21q-49 0 -85 41.5t-36 136.5q0 35 6 67t19.5 60t27.5 51.5t39.5 48l44.5 42t53.5 41.5l56 38l62.5 40l63 41q-6 83 -30 97q-11 7 -22 -8q-34 -43 -74.5 -84.5
t-54.5 -50.5q-7 -31 -37.5 -58.5t-48.5 -27.5q-25 0 -31.5 28t6.5 67q15 75 59 164t93 143t75 35q38 8 53.5 -9t15.5 -42q0 -75 -70 -76q2 5 5.5 23.5t5.5 33t-1 15.5q-105 -46 -188 -273q-7 -19 -2 -29t23 14q25 18 67.5 70.5l75.5 94t40 41.5q82 0 91 -133
q161 113 253 242q40 129 42 186zM61 -446q49 0 108 104t97 229.5t40 198.5q-148 -96 -197 -137q-129 -108 -139 -235q-1 -12 -1 -25q0 -95 58 -131q10 -4 34 -4z" />
    <glyph glyph-name="g_i" unicode="gi" horiz-adv-x="859" 
d="M629 351q10 10 23.5 11t17.5 -5q3 -4 1.5 -11t1.5 -8q22 -16 25 -46q3 -8 -12.5 -48l-38 -96.5t-31.5 -88.5q-9 -28 -6 -42.5t23 -9.5q65 30 150.5 97.5t139.5 126.5q12 4 13 -9q0 -9 -9 -21q-47 -58 -159 -146.5t-143 -89.5q-27 -13 -48.5 3.5t-15.5 43.5q-4 13 1 40
t12 51l20 67l19 63q-18 -13 -39 -25.5t-51 -28l-49.5 -25l-60 -29.5l-57.5 -28q-12 -122 -105 -342.5t-154 -267.5q-5 -3 -5.5 -6t-6.5 -8q-22 -21 -63 -21q-58 0 -94.5 48t-36.5 147q0 67 24.5 127.5t61 105.5t95 89.5t110.5 74.5t124 66q-3 84 -27 106q-12 10 -25 -7
q-34 -43 -74.5 -84.5t-54.5 -50.5q-7 -31 -37.5 -58.5t-48.5 -27.5q-25 0 -31.5 28t6.5 67q15 75 59 164t93 143t75 35q38 8 53.5 -9t15.5 -42q0 -75 -70 -76q2 5 5.5 23.5t5.5 33t-1 15.5q-105 -46 -188 -273q-7 -19 -2 -29t23 14q25 18 67.5 70.5l75.5 94t40 41.5
q88 0 92 -153q7 4 49 24.5l53.5 26t44 22.5t48 26.5l37 23t37.5 26.5q10 49 2 67zM28 -507q48 0 113 113t111.5 249.5t53.5 216.5q-82 -42 -141.5 -80t-118 -91t-89.5 -117.5t-31 -138.5q0 -53 19 -95.5t49 -52.5q10 -4 34 -4zM763 534q-21 -4 -42.5 11t-20.5 35t68 27
q14 -14 14 -21q0 -10 -5.5 -30.5t-13.5 -21.5z" />
    <glyph glyph-name="g_n" unicode="gn" horiz-adv-x="1016" 
d="M873 238q-13 -46 -20.5 -80.5t-12 -76.5t6 -70t36.5 -37q22 3 30.5 5t28.5 12t48 28q6 -2 9 -6t2.5 -7t-2.5 -5q-82 -64 -134 -65q-14 0 -37 11.5t-31 32.5q-16 18 -13.5 71t10 96t17.5 77q3 10 -5.5 10t-16.5 -9q-51 -58 -77 -94t-73 -109q-6 -9 -34 -12.5t-31 11.5
q-9 4 -11.5 28.5t2.5 44.5q12 57 41 133q-23 -15 -56.5 -33.5t-53.5 -28.5l-73 -36l-66 -32q-11 -120 -94.5 -317t-144.5 -244q-5 -3 -5.5 -6t-6.5 -8q-22 -21 -63 -21q-49 0 -85 41.5t-36 136.5q0 63 22.5 119t56 98t87.5 83t102.5 69.5t115.5 61.5q-3 84 -27 106
q-12 10 -25 -7q-34 -43 -74.5 -84.5t-54.5 -50.5q-7 -31 -37.5 -58.5t-48.5 -27.5q-25 0 -31.5 28t6.5 67q15 75 59 164t93 143t75 35q38 8 53.5 -9t15.5 -42q0 -75 -70 -76q2 5 5.5 23.5t5.5 33t-1 15.5q-105 -46 -188 -273q-7 -19 -2 -29t23 14q25 18 67.5 70.5l75.5 94
t40 41.5q88 0 92 -152q180 87 240 128q18 12 32 23q17 40 34 70q7 1 11.5 0.5t12.5 -2.5t10 -2q4 -1 11 -12t6 -17q-5 -21 -16 -34l-15.5 -33l-19.5 -40.5t-18.5 -41t-14.5 -40.5t-5 -33.5t7 -24.5q4 5 44.5 60.5t78 99t78.5 79.5q14 12 34 11q42 -3 14 -80q-1 -3 -6 -3.5
t-3 -5.5zM49 -458q48 0 108 101t101 225t48 203q-76 -38 -131.5 -74t-108.5 -84.5t-81 -108t-28 -127.5q0 -95 58 -131q10 -4 34 -4z" />
    <glyph glyph-name="g_o" unicode="go" horiz-adv-x="922" 
d="M602 336q0 13 22 19t43 6q12 0 19 -26q27 -1 69.5 -19.5t64.5 -35.5q25 -18 39.5 -42t9.5 -45q-5 -22 -68 -89t-106 -100q-51 -38 -100 -24q-79 23 -55 137q2 10 34 90q-30 -18 -217 -110q-11 -120 -94.5 -317t-144.5 -244q-5 -3 -5.5 -6t-6.5 -8q-22 -21 -63 -21
q-49 0 -85 41.5t-36 136.5q0 63 22.5 119t56 98t87.5 83t102.5 69.5t115.5 61.5q-3 84 -27 106q-12 10 -25 -7q-34 -43 -74.5 -84.5t-54.5 -50.5q-7 -31 -37.5 -58.5t-48.5 -27.5q-25 0 -31.5 28t6.5 67q15 75 59 164t93 143t75 35q38 8 53.5 -9t15.5 -42q0 -75 -70 -76
q2 5 5.5 23.5t5.5 33t-1 15.5q-105 -46 -188 -273q-7 -19 -2 -29t23 14q25 18 67.5 70.5l75.5 94t40 41.5q88 0 92 -152q174 84 233 123q11 36 11 77zM49 -458q48 0 108 101t101 225t48 203q-76 -38 -131.5 -74t-108.5 -84.5t-81 -108t-28 -127.5q0 -95 58 -131q10 -4 34 -4
zM764 272q-65 -4 -85 4l-15 -23t-20 -32.5l-19.5 -35t-19 -40.5t-12.5 -39.5t-5.5 -41.5t7.5 -37q14 -37 89 22q90 76 119 137q12 23 1.5 49t-40.5 37z" />
    <glyph glyph-name="g_s" unicode="gs" horiz-adv-x="862" 
d="M682 411q19 0 56.5 -36.5t37.5 -45.5q0 -7 -11.5 -12t-18.5 -5q-4 0 -12 4t-11 4q-22 0 -35 -18.5t-13 -39.5q0 -20 33.5 -107.5t33.5 -127.5q0 -44 -83 -61q-3 -1 -7.5 1.5t-6.5 2.5q-1 0 -5.5 -2.5t-7.5 -2.5q-26 0 -71 17t-70 42q-46 46 -13 68q25 -33 67 -58t84 -25
q19 0 36 8t17 17q0 21 -10 57t-25.5 82t-21.5 68q-18 -14 -40 -27.5t-54 -30l-51 -26.5t-63.5 -31t-59.5 -29q-11 -120 -94.5 -317t-144.5 -244q-5 -3 -5.5 -6t-6.5 -8q-22 -21 -63 -21q-49 0 -85 41.5t-36 136.5q0 63 22.5 119t56 98t87.5 83t102.5 69.5t115.5 61.5
q-3 84 -27 106q-12 10 -25 -7q-34 -43 -74.5 -84.5t-54.5 -50.5q-7 -31 -37.5 -58.5t-48.5 -27.5q-25 0 -31.5 28t6.5 67q15 75 59 164t93 143t75 35q38 8 53.5 -9t15.5 -42q0 -75 -70 -76q2 5 5.5 23.5t5.5 33t-1 15.5q-105 -46 -188 -273q-7 -19 -2 -29t23 14
q25 18 67.5 70.5l75.5 94t40 41.5q88 0 92 -152q197 95 259 142q0 11 1 15q1 3 3.5 8t2.5 6l-1 3q-1 2 -1.5 5t-0.5 5q5 28 22 59.5t39 31.5zM49 -458q48 0 108 101t101 225t48 203q-76 -38 -131.5 -74t-108.5 -84.5t-81 -108t-28 -127.5q0 -95 58 -131q10 -4 34 -4z" />
    <glyph glyph-name="h_e" unicode="he" horiz-adv-x="928" 
d="M1033 252q10 -3 12 -14t-6 -20q-84 -93 -188.5 -160t-184.5 -70q-78 -26 -104 49q-135 -75 -181 -75q-38 0 -52.5 17t-8.5 45q-11 18 5.5 113.5t7.5 112.5q-56 -15 -182 -184q-7 -44 -35 -70q-11 -10 -24 -10q-3 0 -13.5 -10t-14.5 -10q-14 0 -21 22q-1 5 2 26
q13 112 46.5 228.5l60 202t28.5 138.5q9 12 25 12q9 0 27.5 -12.5t17.5 -22.5q-2 -20 -22.5 -71.5t-24.5 -64.5q-2 -6 -4.5 -8.5t-4 -2.5t-6.5 1t-7 1q-19 -43 -45 -143t-43 -184q-1 -7 1.5 -12t7 -4.5t7.5 3.5q54 69 136 155.5t92 86.5q9 0 22.5 -6t18.5 -11q6 -7 8 -28.5
t7 -28.5q2 -7 -3.5 -37t-12 -71.5t-5.5 -69.5q2 -49 27 -60q64 20 156 69q-2 14 0 26q6 73 56.5 145t122.5 119q12 8 27 -1q3 -2 7.5 2t8.5 4q15 0 34 -32t21 -58q1 -23 -16 -38l-1 -7q-1 -8 -5 -13q-57 -69 -196 -153q4 -24 19.5 -33t39 -5.5t64.5 16.5q63 21 148.5 77
t147.5 129zM755 316q-37 0 -85.5 -67.5t-55.5 -141.5q175 108 178 182q0 7 -15 17t-22 10z" />
    <glyph glyph-name="i_f" unicode="if" horiz-adv-x="603" 
d="M254 259q15 0 44.5 -5.5t42.5 -7.5l74 68l20.5 62.5t22 57.5t19.5 44l19 40t13 28q4 11 26.5 48t27.5 42q3 4 4 11.5t6 11.5q6 7 27.5 21t26.5 14q28 2 42 -32t9 -85q-3 -35 -6 -56t-7.5 -39t-11 -24.5t-15.5 -4.5q0 1 -0.5 42.5t-7 72t-21.5 32.5q-14 1 -34 -24.5
t-23 -38.5q-1 -7 -5.5 -8.5t-7.5 -5.5q-61 -82 -110 -284h20q134 0 286 54q6 -1 9.5 -4.5t1 -10t-12.5 -13.5q-49 -31 -140.5 -50.5t-172.5 -21.5h-1q-11 -55 -13 -84q-1 -10 -5 -18.5t-4 -9.5q0 -2 2 -8.5t1 -11.5q-14 -157 -11 -342q0 -6 8 -27t7 -27q-1 -8 -22.5 -19
t-30.5 -10q-6 1 -10.5 7.5t-6.5 6.5q-45 12 -82 92.5t-31 134.5q1 11 4 20q0 1 -2 4.5t-2 6.5q-1 21 8 84t18 90q5 15 12 15q4 -1 7 -6t1 -10q-13 -53 -20 -135q-2 -22 2 -58.5t14.5 -78t34.5 -76t56 -44.5q2 253 16 392q7 64 16 111l-34.5 2.5t-26.5 1.5
q-134 -133 -226 -239q-17 -13 -53.5 12t-21.5 49q-4 30 38 156.5t35 163.5q10 10 23.5 11t17.5 -5q3 -4 1.5 -11t1.5 -8q16 -11 19 -44q3 -8 -10.5 -41.5l-34 -83t-29.5 -81.5q-13 -47 3 -54q7 -2 19 9l184 169q-25 3 -40 -2q-21 14 -25.5 29t4 24t23.5 9zM230 534
q-21 -4 -42.5 11t-20.5 35t68 27q14 -14 14 -21q0 -10 -5.5 -30.5t-13.5 -21.5zM396 240q3 17 7 30q-30 -27 -31 -28z" />
    <glyph glyph-name="i_f_f" unicode="iff" horiz-adv-x="845" 
d="M268 237q20 0 64 2q42 58 72 110q17 76 63 202q3 11 21.5 50t23.5 45q3 4 3 11.5t4 12.5q7 8 26.5 23.5t24.5 16.5q28 5 45 -28t17 -84q0 -36 -1 -56t-3.5 -38.5t-8 -26t-15.5 -6.5q-1 4 -2.5 22t-4.5 37t-7.5 39t-11.5 32.5t-17 12.5q-15 0 -32 -27.5t-18 -40.5
q0 -3 -1 -5t-2 -2.5t-2.5 -1t-3 -2t-3.5 -4.5q-50 -86 -80 -286q91 7 200 20q18 76 72 221q3 9 21.5 46.5t22.5 43.5q3 3 3 9.5t4 10.5q24 27 36 29q25 4 48.5 -12t23.5 -33q0 -37 -8 -65t-23 -31q-1 17 -10 30.5t-23 13.5q-6 0 -11 -2.5t-9 -8.5l-6.5 -9.5t-6.5 -12
t-5 -9.5q-2 -5 -9 -7t-10 -6q-41 -76 -72 -204l237 32q9 1 15.5 7t13.5 6q17 0 38 -5.5t21 -17.5q0 -14 -9.5 -19t-35.5 -10q-6 -1 -9 -2q-5 -1 -11.5 2t-14.5 2l-254 -31q-23 -112 -23 -201q0 -10 -3 -17t-3 -8t2.5 -7t2.5 -10q2 -139 28 -217q5 -15 19.5 -30t14.5 -20
q0 -7 -13 -20t-20 -13q-6 0 -16 10q-19 17 -47.5 37.5t-41.5 31.5q-7 6 -4.5 12.5t10.5 6.5q19 -17 49 -34q13 1 10 22q-26 106 -26 241q0 105 23 212l-196 -23q-7 -65 -7 -100q0 -11 -3 -19.5t-3 -9.5q0 -2 2.5 -8t2.5 -12q2 -170 23 -341q0 -6 10 -26t10 -26
q0 -8 -20.5 -21t-29.5 -13q-6 0 -11 6t-7 6q-46 8 -90.5 84t-44.5 131q0 6 1 12.5t1 7.5t-2 4.5t-3 6.5q-2 20 0.5 83.5t8.5 91.5q3 16 10 16q4 0 7.5 -5t2.5 -10q-7 -53 -7 -136q0 -22 8 -58t22.5 -76t41.5 -72t60 -39q-23 247 -23 391q0 68 6 128l-51 -5
q-69 -94 -141 -166.5t-103 -73.5q-27 -13 -48.5 3.5t-15.5 43.5q-8 28 37 173.5t31 173.5q10 10 23.5 11t17.5 -5q3 -4 1.5 -11t1.5 -8q22 -16 25 -46q3 -8 -12.5 -50l-38.5 -100.5t-31 -90.5q-8 -28 -3.5 -38.5t24.5 -5.5q79 36 200 187h-1q-19 -2 -32 1t-17.5 8t-4.5 11
q0 23 26 23zM223 534q-21 -4 -42.5 11t-20.5 35t68 27q14 -14 14 -21q0 -10 -5.5 -30.5t-13.5 -21.5zM385 243l7 48q-13 -23 -32 -50q7 0 25 2z" />
    <glyph glyph-name="i_l" unicode="il" horiz-adv-x="590" 
d="M626 558q-5 -78 -72 -177.5t-170 -197.5q-4 -21 -6 -39q-10 -75 9 -118.5t65 -32.5q35 8 61 19t57 34.5t44 34.5t56 50q20 2 20 -7t-17 -26q-133 -146 -238 -148q-50 -1 -81 35.5t-26 123.5q0 7 2 25q-144 -127 -245 -169q-27 -13 -48.5 3.5t-15.5 43.5q-8 28 37 169.5
t31 169.5q10 10 23.5 11t17.5 -5q3 -4 1.5 -11t1.5 -8q20 -14 17 -51q1 -24 -35 -109t-45 -118q-8 -28 -2.5 -43t25.5 -10q129 66 245 174q26 121 87.5 264.5t123.5 208.5q9 24 26 37t30 13q10 0 25 -20.5t15 -33.5q0 -1 0.5 -13t0 -20t-2 -20t-6 -22t-11.5 -17zM550 602
q-37 -50 -81.5 -156t-71.5 -207q168 177 202 351q5 23 -1 34t-17 7.5t-19 -17.5q-3 -4 -5.5 -5.5t-6.5 -6.5zM223 534q-21 -4 -42.5 11t-20.5 35t68 27q14 -14 14 -21q0 -10 -5.5 -30.5t-13.5 -21.5z" />
    <glyph glyph-name="i_s" unicode="is" horiz-adv-x="612" 
d="M472 404q33 0 42 -11q25 3 54.5 -15t29.5 -34q0 -17 -18 -35q-46 38 -82 38q-29 0 -53 -28t-24 -65q0 -72 62 -198q16 -29 16 -48q0 -11 -10.5 -23t-20.5 -12q-6 0 -37 9l-69 20.5t-54 15.5q-7 2 -6 7.5t7 9.5q46 -15 113 -17q7 0 9.5 0.5t4 3.5t-1.5 9q-3 12 -29.5 89
t-32.5 124q-37 -26 -79 -68.5t-68 -74l-66.5 -82.5l-51.5 -64q-17 -13 -57 9t-25 46q-4 30 37.5 160.5t34.5 167.5q10 10 23.5 11t17.5 -5q3 -4 1.5 -11t1.5 -8q16 -11 19 -44q3 -8 -9.5 -38.5l-31.5 -77t-28 -78.5q-12 -43 2 -53q7 -6 20 8q6 7 33 36.5l37.5 40.5l36.5 37
t44.5 41.5t46.5 37t58 40.5v6q0 56 26 89.5t77 33.5zM226 533q-18 -4 -39 13t-20 36q1 14 63 21q2 -3 8 -8t11 -10t5 -8q0 -6 -10.5 -24.5t-17.5 -19.5z" />
    <glyph glyph-name="i_t" unicode="it" horiz-adv-x="638" 
d="M512 492q26 48 47 111q16 49 34 49q10 0 32 -15.5t22 -25.5q0 -13 -72 -118q-1 -1 -23 -27t-30 -42l-12 -22q124 -2 221 12q6 -1 10 -5.5t1.5 -10t-13.5 -7.5q-84 -19 -236 -22q-42 -83 -76.5 -169t-37.5 -128q-1 -5 -7 -12t-6 -10q0 -2 6 -11t5 -14q-5 -32 7 -47.5
t31 -6.5q57 27 198.5 150t189.5 182q8 10 18 -1.5t-2 -24.5q-75 -80 -188.5 -183.5t-171.5 -141.5q-39 -36 -68 -28q-22 -11 -47 7t-19 55q-9 79 82 288q-67 -60 -163 -159.5t-145 -157.5q-17 -13 -53.5 12t-21.5 49q-4 30 38 156.5t35 163.5q10 10 23.5 11t17.5 -5
q3 -4 1.5 -11t1.5 -8q16 -11 19 -44q3 -8 -10.5 -41.5l-34 -83t-29.5 -81.5q-13 -47 3 -54q7 -2 19 9l89.5 83l122.5 118.5l121 117.5l9 19q-100 -1 -204 5q-26 3 -28 28q-1 21 15 24q3 1 6 0q102 -16 228 -22zM230 534q-21 -4 -42.5 11t-20.5 35t68 27q14 -14 14 -21
q0 -10 -5.5 -30.5t-13.5 -21.5zM649 156q1 0 0 -1v1z" />
    <glyph glyph-name="i_t_l" unicode="itl" horiz-adv-x="908" 
d="M411 -26q-29 -3 -50 18t-21 57q-1 64 32 169q-82 -100 -163.5 -174t-123.5 -79q-27 -13 -48.5 3.5t-15.5 43.5q-8 28 37 169.5t31 169.5q10 10 23.5 11t17.5 -5q3 -4 1.5 -11t1.5 -8q22 -16 25 -46q3 -8 -12.5 -48l-38 -96.5t-31.5 -88.5q-9 -28 -6 -42.5t23 -9.5
q110 43 310 296q16 41 50 121q-103 -13 -148 -29q-23 -28 -37 -34q-3 -1 -8.5 7t-9.5 20t-3 20q1 16 15 22t62 16q52 9 146 19q39 93 55 143q10 31 31 31q13 0 26.5 -14.5t13.5 -25.5q0 -2 0.5 -5.5t0 -5.5t-1.5 -5.5t-3.5 -6.5l-7 -8t-11.5 -12q-15 -37 -39 -86
q154 12 232 12q51 102 98 152q9 22 26 34.5t28 12.5q10 0 25 -19.5t15 -31.5q0 -1 0.5 -13t0 -19.5t-2 -19t-6 -21t-11.5 -16.5q-5 -76 -73 -178t-167 -198l-3 -20q-10 -85 18 -120q18 -22 42 -5q62 29 139 98t131 135q20 2 20 -6q0 -3 -2 -6t-7 -9.5l-8 -10.5
q-37 -54 -143.5 -151.5t-139.5 -98.5q-42 -16 -73 20t-25 121v7q-148 -130 -237 -145zM655 164q25 134 98 290q-75 -4 -237 -22l-56 -115.5t-38 -103.5t-27 -127q-4 -45 13 -58t47 3q95 40 200 133zM865 583q-38 -50 -84 -159t-71 -207q166 173 203 355q4 22 -2 33
t-16.5 7.5t-17.5 -17.5q-3 -4 -5.5 -5.5t-6.5 -6.5zM223 534q-21 -4 -42.5 11t-20.5 35t68 27q14 -14 14 -21q0 -10 -5.5 -30.5t-13.5 -21.5z" />
    <glyph glyph-name="i_t_t" unicode="itt" horiz-adv-x="878" 
d="M89 351q10 10 23.5 11t17.5 -5q3 -4 1.5 -11t1.5 -8q22 -16 25 -46q3 -8 -12.5 -48l-38 -96.5t-31.5 -88.5q-9 -28 -6 -42.5t23 -9.5q127 50 323 309q7 17 23 51q-128 -2 -203 3q-18 10 -24.5 24.5t3 23.5t29.5 5q74 -14 213 -17q45 92 80 151q13 23 12 39.5t1 23.5
q5 12 7.5 16.5t9 9.5t14.5 5q14 0 36.5 -14t22.5 -23q0 -11 -16.5 -41.5t-36.5 -49.5q-5 -4 -13.5 -7.5t-12.5 -10.5q-29 -44 -58 -100q106 0 199 4l56 68l43.5 53t15.5 19q16 49 34 49q9 0 30.5 -20t21.5 -31q0 -10 -70 -108l-21 -25q132 9 230 19q17 -1 17 -11
q-1 -9 -25 -14q-85 -17 -249 -29q-4 -6 -5 -9q-40 -72 -75 -160.5t-39 -139.5q-1 -5 -7 -12t-6 -10q0 -2 6 -11t5 -14q-5 -31 3 -42t30 -8q55 8 151.5 70.5t141.5 117.5q8 10 17 2t-1 -22q-33 -47 -119.5 -112t-142.5 -85q-32 -29 -71 -18q-22 -11 -44.5 5t-16.5 53
q-10 97 122 392q-7 -1 -20 -1q-43 -42 -108 -126t-114.5 -154t-50.5 -71q-13 -39 -44 -61q-6 -4 -19 -1t-24 -2q-14 -7 -26.5 2.5t-12.5 28.5q-1 71 62 233q-84 -102 -166.5 -178t-125.5 -81q-27 -13 -48.5 3.5t-15.5 43.5q-8 28 37 169.5t31 169.5zM672 373q-95 -4 -190 -6
q-106 -204 -114 -304q-1 -10 -1 -17t2 -11t7.5 -1t14.5 12q70 70 281 327zM223 534q-21 -4 -42.5 11t-20.5 35t68 27q14 -14 14 -21q0 -10 -5.5 -30.5t-13.5 -21.5z" />
    <glyph glyph-name="j_e" unicode="je" horiz-adv-x="763" 
d="M-155 -140q0 60 16 106.5t42 75.5t67 50t81.5 31.5t94.5 18.5q34 142 40 205q-12 26 5 32q11 4 34.5 -9t21.5 -24q-10 -47 -60 -199l76 9q2 0 9.5 -1.5t9.5 -1.5q4 1 8 3t8 3q40 3 105 13q28 56 81 106.5t108 75.5q14 7 27 -1q3 -2 7.5 2t8.5 4q20 0 45 -13.5t26 -36.5
t-16 -38q-1 -1 -2 -8t-4 -12q-42 -69 -235 -104q-11 -30 -11 -58q0 -49 36 -58t100 15q68 22 145.5 74.5t141.5 123.5q10 1 16 -2.5t-2 -16.5q-24 -29 -59.5 -62.5t-86 -73.5t-111 -68.5t-115.5 -32.5q-45 -10 -74.5 9.5t-38.5 47.5t-7 56q2 20 7 36q-31 -4 -106 -13
q-3 0 -29.5 -1t-29.5 -2q-5 -1 -16 -4t-16 -3l-18 -2q-86 -261 -129 -476q-6 -26 -54 -29q-9 -1 -24 14q-51 10 -87 81.5t-36 157.5zM29 -273q69 226 107 378q-60 -10 -101.5 -24t-79 -40t-56 -69.5t-18.5 -103.5q0 -160 100 -223q12 5 21 17.5t14 25t11 32.5q0 2 0.5 3.5
t1.5 3.5zM613 306q-28 0 -74 -37t-74 -87q6 1 25 5q65 13 111.5 40t47.5 58q0 7 -14.5 14t-21.5 7zM316 567q-21 -4 -46 16.5t-24 40.5q1 18 43 22q38 -38 38 -49q0 -28 -11 -30z" />
    <glyph glyph-name="j_i" unicode="ji" horiz-adv-x="690" 
d="M461 351q10 10 23.5 11t17.5 -5q3 -4 1.5 -11t1.5 -8q20 -14 17 -51q1 -24 -35 -109t-45 -118q-8 -28 -2.5 -43t25.5 -10q65 30 150.5 97.5t139.5 126.5q12 4 13 -9q0 -9 -9 -21q-47 -58 -159 -146.5t-143 -89.5q-27 -13 -48.5 3.5t-15.5 43.5q-5 19 6 64.5t31.5 108.5
t27.5 95q-126 -39 -266 -117q-99 -296 -146 -527q-6 -26 -54 -29q-9 -1 -24 14q-52 10 -87.5 76.5t-35.5 150.5q0 86 87 174t224 165q24 102 30 160q-12 26 5 32q11 4 34.5 -9t21.5 -24q-9 -42 -37 -131q132 67 254 100q3 24 -3 36zM29 -273q92 315 115 409
q-115 -69 -186.5 -140.5t-71.5 -132.5q0 -163 91 -220q30 13 52 84zM595 534q-21 -4 -42.5 11t-20.5 35t68 27q14 -14 14 -21q0 -10 -5.5 -30.5t-13.5 -21.5zM316 567q-21 -4 -46 16.5t-24 40.5q1 18 43 22q38 -38 38 -49q0 -28 -11 -30z" />
    <glyph glyph-name="j_o" unicode="jo" horiz-adv-x="823" 
d="M503 336q0 13 22 19t43 6q12 0 19 -26q27 -1 69.5 -19.5t64.5 -35.5q25 -18 39.5 -42t9.5 -45q-5 -22 -68 -89t-106 -100q-51 -38 -100 -24q-79 23 -55 137q3 17 27 74.5t31 98.5q-142 -38 -305 -129q-100 -299 -146 -525q-6 -26 -54 -29q-9 -1 -24 14q-52 10 -87.5 76.5
t-35.5 150.5q0 85 87 173t224 164q24 104 30 162q-12 26 5 32q11 4 34.5 -9t21.5 -24q-11 -52 -38 -133q163 82 291 110q0 2 0.5 6.5t0.5 6.5zM31 -273q92 315 115 407q-115 -69 -186.5 -139.5t-71.5 -131.5q0 -163 91 -220q30 13 52 84zM665 272q-65 -4 -85 4l-15 -23
t-20 -32.5l-19.5 -35t-19 -40.5t-12.5 -39.5t-5.5 -41.5t7.5 -37q14 -37 89 22q90 76 119 137q12 23 1.5 49t-40.5 37zM318 567q-21 -4 -46 16.5t-24 40.5q1 18 43 22q38 -38 38 -49q0 -28 -11 -30z" />
    <glyph glyph-name="j_u" unicode="ju" horiz-adv-x="952" 
d="M509 338q28 15 48.5 -12t15.5 -43q-8 -26 -45 -63q-17 -22 -34.5 -79.5t-19.5 -95.5q-1 -13 6.5 -15t26.5 6q40 15 101.5 74.5t85.5 112.5q-2 8 2.5 17.5t12.5 10.5q14 2 34 -3q6 -2 12 -19.5t4 -30.5q0 -2 -3 -3.5t-7 -3t-6 -3.5q-4 -22 -8 -56t-3.5 -72t11.5 -43
q27 -13 141.5 71t158.5 139q7 -1 7 -9t-7 -17q-67 -81 -168 -155t-134 -72q-4 3 -9.5 3t-8.5 2q-28 16 -39 49t-8.5 62t10.5 58q2 7 -1 6q-1 0 -4 -4q-41 -53 -91 -105.5t-76 -65.5q-29 -14 -39 -7q-3 2 -13.5 -4t-20.5 -3q-16 5 -24.5 23t-0.5 47q0 13 4.5 34t14.5 51.5
l17.5 53t21.5 61t19 53.5q-131 -34 -299 -127q-100 -299 -146 -525q-6 -26 -54 -29q-9 -1 -24 14q-52 10 -87.5 76.5t-35.5 150.5q0 85 87 173t224 164q24 104 30 162q-12 26 5 32q11 4 34.5 -9t21.5 -24q-11 -52 -38 -133q162 82 293 111zM31 -273q92 315 115 407
q-115 -69 -186.5 -139.5t-71.5 -131.5q0 -163 91 -220q30 13 52 84zM318 567q-21 -4 -46 16.5t-24 40.5q1 18 43 22q38 -38 38 -49q0 -28 -11 -30z" />
    <glyph glyph-name="k_s" unicode="ks" horiz-adv-x="862" 
d="M730 426q19 0 56.5 -38t37.5 -48q0 -7 -11.5 -12.5t-18.5 -5.5q-4 0 -12 4.5t-11 4.5q-22 0 -35 -19.5t-13 -41.5t33.5 -113.5t33.5 -133.5q0 -47 -83 -64q-3 -1 -7.5 1.5t-6.5 2.5q-1 0 -5.5 -2.5t-7.5 -2.5q-24 0 -68 17.5t-70 42.5q-61 -46 -111 -52
q-56 -6 -122.5 51.5t-79.5 125.5q-19 -24 -51 -70t-50 -68q-17 -18 -41 -17.5t-39 13.5q0 10 -3.5 17t-3.5 10q-5 92 71.5 274t186.5 362q33 9 49.5 -18.5t1.5 -55.5q-21 -40 -69.5 -99t-77.5 -82q-31 -48 -66 -143t-45 -141q-7 -35 -4 -55t14 -22q23 20 59.5 62l69.5 81.5
t87 89t112 86.5q18 -1 35 -12.5t19 -22.5q5 -23 -15 -38q-22 -33 -62.5 -73l-67 -68t-26.5 -44q0 -19 44 -63.5t85 -41.5q37 6 81 38q-19 33 5 49q6 -9 22 -27q79 69 131 157q-19 62 -15 81q1 3 3.5 8t2.5 6l-2 6q-2 6 -1 9q5 29 22 62t39 33zM692 184q-46 -76 -118 -140
q52 -40 103 -40q18 0 35.5 8t17.5 18q0 34 -38 154zM369 283q-64 -52 -113 -106q2 -1 8.5 -5.5t9 -3.5t12.5 4q14 9 49.5 47t46.5 56q6 10 2 13t-15 -5z" />
    <glyph glyph-name="l_e" unicode="le" horiz-adv-x="707" 
d="M306 669q-70 -243 -175 -409q-26 -42 -26 -81q0 -158 90 -158q51 0 139 49q-2 16 0 30q6 73 56.5 145t122.5 119q12 8 27 -1q3 -2 7.5 2t8.5 4q15 0 34 -32t21 -58q1 -23 -16 -38l-1 -7q-1 -8 -5 -13q-18 -22 -75 -69t-120 -88q6 -32 36.5 -35t85.5 17q68 22 145.5 74.5
t141.5 123.5q10 1 16 -2.5t-2 -16.5q-24 -29 -59.5 -62.5t-86 -73.5t-111 -68.5t-115.5 -32.5q-76 -26 -102 46q-104 -57 -168 -57q-47 0 -83 44.5t-36 148.5q0 132 67 311t139 263q15 52 52 52q9 0 20.5 -17t11.5 -31q0 -30 -40 -79zM534 316q-32 0 -75.5 -54.5
t-60.5 -120.5q-6 -24 -0.5 -27.5t25.5 10.5q63 44 105 88.5t43 76.5q0 7 -15 17t-22 10zM209 579q-43 -82 -75 -200q-3 -12 -4 -20.5t0.5 -10.5t6.5 3.5t13 19.5q53 99 92 227q4 12 5 21.5t-2 10.5q-5 0 -26 -37q-2 -4 -4.5 -6t-5.5 -8z" />
    <glyph glyph-name="l_f" unicode="lf" horiz-adv-x="585" 
d="M606 690q29 2 43 -32t9 -85q-3 -35 -6 -55.5t-7.5 -38.5t-11 -24.5t-15.5 -4.5q-1 3 -1.5 42.5t-6.5 70.5t-22 33q-15 1 -34 -21t-22 -34q-1 -5 -2.5 -8t-6 -6.5t-6.5 -6.5q-63 -85 -112 -279q194 -10 304 13q6 -1 8.5 -4.5t-0.5 -8.5t-13 -10q-33 -14 -87 -20.5
t-108 -6.5t-112 1q-13 -56 -17 -98q-1 -10 -5 -18.5t-4 -9.5q0 -2 2 -8.5t1 -11.5q-14 -155 -11 -340q0 -6 8 -27t7 -27q-1 -8 -23 -19t-31 -10q-6 1 -10.5 7.5t-6.5 6.5q-45 12 -82.5 92t-31.5 134q1 11 4 20q0 1 -2 4.5t-2 6.5q-2 44 18 140q-35 -27 -63 -44
q-49 -27 -83.5 7.5t-28.5 125.5q6 105 72.5 272.5t139.5 245.5q9 24 26 37t30 13q10 0 25 -20.5t15 -33.5q0 -1 0.5 -13t0 -20t-2 -20t-6 -22t-11.5 -17q-17 -89 -79.5 -191t-158.5 -190q-1 -2 -1 -6q-10 -77 5.5 -104.5t61.5 -11.5q84 30 192 150q-55 1 -96 -2
q-19 14 -22 26.5t6 19t23 5.5q48 -5 116 -11q10 43 23 83t27.5 75l24 57t24 51t16.5 34q4 11 27 47.5t28 41.5q3 3 9.5 13t11.5 15q7 7 22.5 18.5t20.5 11.5zM358 181q-56 -60 -121 -113q-10 -46 -18 -123q-2 -22 2 -58.5t15 -77.5t35 -75.5t56 -44.5q2 252 17 390
q4 49 14 102zM249 602q-42 -56 -87 -166.5t-66 -208.5q155 163 202 363q5 23 -1 34t-17 7.5t-19 -17.5q-3 -4 -5.5 -5.5t-6.5 -6.5z" />
    <glyph glyph-name="l_k" unicode="lk" horiz-adv-x="955" 
d="M665 664q33 9 49.5 -18.5t1.5 -55.5q-21 -40 -69.5 -99t-77.5 -82q-31 -48 -66 -143t-45 -141q-7 -35 -4 -55t14 -22q23 20 59.5 62l69.5 81.5t87 89t112 86.5q18 -1 36.5 -15.5t21.5 -25.5q5 -23 -15 -38q-18 -27 -52 -61q-3 -3 -10.5 -2t-11.5 -2q-21 -19 -53.5 -58.5
t-32.5 -55.5q0 -22 37.5 -63t89.5 -38q56 9 116 57.5t67 66.5q5 22 16 15q13 -8 5 -27q-1 -3 -3 -6q-33 -49 -96 -93.5t-116 -50.5q-56 -6 -121.5 50t-78.5 123q-19 -24 -51 -70t-50 -68q-17 -18 -41 -17.5t-39 13.5q0 10 -3.5 17t-3.5 10q-4 71 46 209q-195 -248 -288 -249
q-47 -1 -74.5 30.5t-22.5 117.5q6 104 74.5 271.5t142.5 246.5q9 24 26 37t30 13q10 0 25 -20.5t15 -33.5q0 -1 0.5 -13t0 -20t-2 -20t-6 -22t-11.5 -17q-17 -88 -81.5 -190t-161.5 -191q-1 -2 -1 -6q-3 -37 -1.5 -69.5t18 -53.5t47.5 -17q32 4 77 38.5t91 87.5t82 100
t68 94q67 151 165 313zM286 602q-43 -57 -90.5 -168.5t-68.5 -207.5q163 171 208 364q5 23 -1 34t-17 7.5t-19 -17.5q-3 -4 -5.5 -5.5t-6.5 -6.5zM735 283q-64 -52 -113 -106q1 -1 8 -5.5t9.5 -3.5t12.5 4q14 9 49.5 47t46.5 56q6 10 2 13t-15 -5z" />
    <glyph glyph-name="l_l" unicode="ll" horiz-adv-x="554" 
d="M140 13q118 85 212 204q54 269 139 401q6 39 36 39q9 0 20 -24.5t11 -50.5q0 -71 -31 -132q-25 -89 -133 -223q-18 -88 -18 -153q0 -41 13 -51.5t49 8.5q33 19 64.5 46t53.5 52t38.5 46t26.5 36l10 15q10 10 15 10q10 0 9 -12q-1 -6 -25 -43q-39 -68 -117.5 -141
t-128.5 -73q-16 0 -26.5 7t-15.5 24t-7 32t-3 43q0 6 2 6.5t2 1.5q0 2 -3 6.5t-2 7.5q7 49 10 68q-115 -133 -212 -207q-30 -24 -51 -24t-28 17t-10 39t4 43q-1 85 78 319t147 364q29 13 41 -3q14 -5 11.5 -33t-18.5 -43q-6 -12 -23 -57.5t-30.5 -69t-26.5 -23.5
q-44 -93 -88 -224.5t-51 -223.5q-2 -15 -1 -27t5 -19.5t17.5 -2t34.5 24.5zM495 529q-38 -63 -82 -225q69 110 98 233q4 16 -1 13t-15 -21z" />
    <glyph glyph-name="m_m" unicode="mm" horiz-adv-x="1304" 
d="M793 400q12 3 36 -9.5t24 -31.5q0 -3 -18 -50q-10 -7 -22 -23.5t-25 -43t-22 -47l-23.5 -54l-19.5 -45.5q-8 -18 -1 -17q3 0 7 7q8 16 78 114.5t99 131.5q6 8 11 9q6 1 16 -1.5t22 -10.5t20 -28t7 -49q0 -5 -2 -8t-2 -9q0 -4 -2 -52t-2 -60q0 -18 10 -4q6 8 30 43
t36.5 51.5t32.5 40.5t36 39q6 5 10.5 7.5t7 3t7.5 0.5t8 1q17 2 29 -18t11 -30q0 -1 -2.5 -9.5t1.5 -9.5q8 -15 6 -27q-3 -17 -9 -82.5t-4 -90.5q1 -17 8 -20t20 4q40 21 82 63q19 -8 -5 -35q-71 -79 -107 -79q-19 0 -33.5 13t-11.5 44q0 2 2 2t3 2q-3 22 1.5 81.5t6.5 95
t-8 53.5q-48 -51 -79.5 -105t-45 -85t-22.5 -36q-2 -1 -15 0t-26 -10q-9 4 -13.5 6.5t-12 10t-5.5 17t5 26.5q-3 17 1.5 100.5t-5.5 102.5q-31 -10 -97 -105t-103 -196q0 -10 -7.5 -14t-17.5 3q-17 -11 -36.5 3t-0.5 37q6 44 62.5 192t68.5 191zM607 27q-12 -10 -24.5 -15.5
t-27.5 -2t-24 21.5q0 2 -2 15t-2 15q-3 23 0 76.5t5.5 86.5t-3.5 52q-63 -83 -107.5 -132t-105.5 -106q-2 -2 -18.5 -4.5t-30.5 -13.5q-15 6 -22 14.5t-7 28.5q4 38 35 133q-24 -21 -80.5 -80.5t-101.5 -100.5q0 -9 -16.5 -18.5t-33.5 -12.5q-14 0 -26 19.5t-3 38.5
q3 7 22.5 60.5l28 78t22.5 72.5t24 90q14 3 36 -4.5t22 -26.5q0 -14 -23 -53q-7 -16 -66 -170q-7 -19 4 -18q8 1 24 15q40 35 91.5 90t86.5 101q19 45 31 48q2 1 4 1q20 0 28.5 -18t4.5 -42q-1 -5 -8 -19t-8 -19q-2 -9 -19 -52t-21 -64q-3 -14 5 -13q7 1 23 13
q92 69 180 205q20 32 36 45t39 13q4 0 6.5 -3.5t4 -10.5t2.5 -14t1 -18v-18v-18.5v-14.5t-7.5 -19.5t-4.5 -21.5q8 -14 6 -27q-10 -68 -8 -111q2 -36 28 -72z" />
    <glyph glyph-name="n_e" unicode="ne" horiz-adv-x="907" 
d="M399 28q49 2 142 48q-2 13 0 24q6 73 56.5 145t122.5 119q12 8 27 -1q3 -2 7.5 2t8.5 4q15 0 34 -32t21 -58q1 -18 -20 -37l-1 -8q-1 -7 -5 -12q-54 -66 -193 -148q2 -27 17.5 -37.5t40 -7.5t66.5 17q68 22 145.5 74.5t141.5 123.5q10 1 16 -2.5t-2 -16.5
q-24 -29 -59.5 -62.5t-86 -73.5t-111 -68.5t-115.5 -32.5q-44 -15 -70 2.5t-36 53.5q-62 -33 -127 -59q-44 -17 -71.5 -7t-32.5 41q-1 8 -3.5 12t-3.5 8q-6 14 -8.5 32.5t-2.5 34.5t3.5 41t6 39t8.5 43l8 39q2 11 -6 10t-17 -9q-38 -35 -76.5 -88t-61 -92l-55.5 -101
q-3 -9 -29.5 -9t-29.5 16q-10 4 -14.5 27.5t-1.5 45.5q10 66 33 149.5t48 140.5q8 2 22.5 2.5t19.5 -0.5q4 -1 8.5 -14.5t4.5 -20.5q-1 -5 -3 -5q-4 0 -7 -4q-83 -230 -66 -254q12 14 50 67.5t83 108.5t89 93q7 6 33 11q29 6 38.5 -25.5t-6.5 -76.5q-1 -3 -6 -3.5t-2 -5.5
q-13 -30 -19.5 -75t4.5 -96q6 -18 17.5 -28t25.5 -4zM741 316q-37 0 -85.5 -66.5t-55.5 -140.5q76 45 127 94t51 86q0 7 -15 17t-22 10z" />
    <glyph glyph-name="n_n" unicode="nn" horiz-adv-x="1054" 
d="M148 357q8 2 22.5 2.5t19.5 -0.5q4 -1 7.5 -14.5t1.5 -20.5q-1 -3 -1.5 -4t-1.5 -0.5t-3 -0.5t-5 -4q-100 -233 -87 -254q11 12 57.5 71t99 115.5t101.5 88.5q9 6 34 11q28 6 35.5 -25.5t-12.5 -76.5q-1 -2 -7 -8t-4 -11q-3 -13 -14 -46.5t-18.5 -64.5t-6.5 -54
q2 -35 30 -23q49 22 118.5 79.5t125.5 117.5q21 64 40 113q9 12 25 12q9 0 24 -8t14 -18q-6 -71 -47 -112q-16 -39 -35 -125q-1 -7 1.5 -11.5t7 -4.5t7.5 3l49 60l54.5 66.5l47.5 57t39 44t19 15.5q25 0 35 -12q8 -11 5 -34.5t-13 -39.5q-17 -37 -27 -96.5t-3 -111.5t36 -56
q57 2 113 43q9 -3 11 -9t-2 -9q-78 -65 -134 -66q-13 0 -35.5 13t-30.5 35q-33 47 4 241l-13 -13l-13.5 -13.5l-12.5 -12.5t-13 -13.5l-12 -14l-13 -15.5t-12 -15.5l-12.5 -17.5t-11.5 -18.5l-12 -20.5q-3 -18 -7 -25t-12 -10.5t-12 -7.5q-3 -3 -25.5 -12.5t-23.5 -9.5
q-7 0 -16.5 6t-12.5 14q0 1 -3.5 9.5t-5.5 16t-1 13.5q10 60 24 116q-56 -60 -119 -112t-106 -73q-44 -19 -69 -7.5t-27 44.5q-1 7 2.5 10.5t3.5 8.5q-6 24 24 111t35 116q2 14 -13 6q-4 -2 -9 -5q-22 -14 -42.5 -30.5t-41.5 -41.5l-34 -40t-35.5 -48.5l-29 -43t-30 -48.5
t-24.5 -41q-4 -9 -30.5 -9t-28.5 16q-9 4 -11.5 28.5t2.5 44.5q15 65 45 149t61 141z" />
    <glyph glyph-name="nine_nine" unicode="&#x39;&#x39;" horiz-adv-x="1098" 
d="M539 514q-12 -70 -36 -75q-6 -50 -21 -65q-29 -61 -61 -161.5t-39 -161.5q-5 -65 15.5 -96t66.5 -23q14 -10 11.5 -21t-11 -19t-12.5 -8q-122 1 -115 157q-2 43 48 191.5t60 190.5q-23 -14 -95.5 -64.5t-122.5 -80.5t-71 -30q-51 -16 -76 2.5t-25 49.5q0 48 43 106
t101.5 102t120 72.5t96.5 24.5q34 4 72 -23t51 -68zM1020 488q5 -18 -12 -26q2 -6 2 -7q0 -24 -15 -74.5t-32 -54.5q-12 -26 -28 -70.5t-27 -78l-29 -91t-22 -71.5q-6 -23 1 -38q-6 -40 -15 -43q-11 -4 -28 5.5t-17 28.5q0 14 31.5 98t63 183.5t31.5 151.5
q-32 -16 -90.5 -57.5l-105.5 -72t-67 -30.5q-61 0 -61 63q0 62 62.5 135.5t132 118t99.5 42.5q48 5 89 -28.5t37 -83.5zM445 490q6 4 13 4q8 25 3 48t-26 23q-57 -1 -118 -30.5t-105 -70.5t-73.5 -85t-31.5 -74q0 -12 9 -17t23 -2.5t29 11.5q17 3 39 13.5t46.5 27l46.5 32
t47.5 37l40.5 34l35 30.5t22 19zM686 302q33 6 86 40.5t113.5 82t70.5 54.5v3v5q0 13 -0.5 20.5t-3 19t-9.5 17.5t-18 6q-46 -1 -90 -19.5t-75.5 -47t-56.5 -61.5t-37.5 -63t-13.5 -50q0 -12 6 -15.5t13.5 -0.5t14.5 9z" />
    <glyph glyph-name="o_a" unicode="oa" horiz-adv-x="955" 
d="M119 336q0 21 53 24q3 40 24 40q16 0 31.5 -13.5t31.5 -32t35 -37.5t49 -32.5t67 -13.5q92 0 186 44q28 21 53 21q48 0 83 -19q21 -13 24 -25q31 51 35 59q12 8 32.5 0.5t28.5 -15.5q11 -11 1 -31q-25 -51 -38 -54q-28 -60 -37 -116q-10 -59 5 -74.5t61 8.5
q53 28 131.5 89.5t117.5 110.5q13 0 17.5 -7t1 -17t-13.5 -20q-56 -54 -146 -125t-142 -94q-14 -6 -30 -7t-32.5 5t-25.5 27.5t-7 56.5q2 29 29 122q2 7 -1 7q-2 -1 -4 -4q-4 -7 -25.5 -38.5t-55 -76t-56.5 -70.5q-24 -27 -54 -30t-49.5 21.5t-15.5 68.5q8 91 56 166
q-69 -23 -122 -23q-26 0 -38 1q11 -21 7 -39q-5 -22 -68 -89t-106 -100q-51 -38 -100 -24q-79 23 -55 137q2 10 32 85.5t30 133.5zM316 244q-65 18 -111 55q0 -4 -2 -10t-17 -29l-30.5 -48t-31 -60t-18.5 -64.5t6 -60.5q14 -37 89 22q90 76 119 137q13 32 -4 58zM566 51
q30 22 78 81.5t94 130.5h-6q-4 0 -27 14.5t-49 14.5q-22 0 -42 -20q-65 -65 -76 -182q-5 -48 10 -48q7 0 18 9z" />
    <glyph glyph-name="o_b" unicode="ob" horiz-adv-x="941" 
d="M441 338q71 -21 113 -32q18 -4 22.5 -1.5t9.5 19.5q72 269 95 337q11 87 28 87q33 0 33 -55q0 -36 -27 -75q-47 -108 -88 -303q-3 -18 -1 -24t14 -10l36 -11.5l36 -12l33.5 -11.5t32.5 -11.5l27.5 -10.5t25 -10.5t18.5 -9.5t14 -10t7 -9q26 -12 26 -34q0 -7 -7.5 -10.5
t-7.5 -6.5q-2 -39 -84 -63t-191 -24q-15 0 -19 -4t-6 -23q-2 -39 -1 -55q0 -26 -7 -26q-2 0 -5.5 2.5t-5.5 2.5t-5.5 -6.5t-7.5 -6.5q-6 0 -14 8t-8 16q0 106 42 298l-65.5 18t-69.5 20q-12 4 -12.5 16.5t6 22.5t13.5 8zM119 336q0 13 22 19t43 6q12 0 19 -26
q27 -1 69.5 -19.5t64.5 -35.5q25 -18 39.5 -42t9.5 -45q-5 -22 -68 -89t-106 -100q-51 -38 -100 -24q-79 23 -55 137q2 10 32 85.5t30 133.5zM281 272q-65 -4 -85 4l-15 -23t-20 -32.5l-19.5 -35t-19 -40.5t-12.5 -39.5t-5.5 -41.5t7.5 -37q14 -37 89 22q90 76 119 137
q12 23 1.5 49t-40.5 37zM589 104q83 -11 136 -1.5t87 34.5q16 11 16.5 22t-10.5 15q-63 24 -178 58q-18 5 -24.5 1t-9.5 -22z" />
    <glyph glyph-name="o_d" unicode="od" horiz-adv-x="1060" 
d="M116 322q0 13 20 21.5t48 2.5q1 21 12.5 34.5t22.5 13.5q13 0 31.5 -16t38 -37.5t54.5 -42t77 -32.5t109 -5t148 37q28 11 48 11q47 0 78 -28q81 94 133 171l72 183l12.5 28l12.5 28l10.5 22.5t11.5 17t11 5.5q31 0 29 -35q16 0 0 -41q-55 -141 -137 -241
q-51 -150 -63 -264q-10 -92 19 -125.5t87 -6.5q29 13 61 41t50 49t18 24q8 4 14 1t10 -11t-2 -17q-64 -74 -139 -118q-32 -19 -61.5 -21t-52.5 13t-36 53t-10 95q4 82 48 219q-34 -45 -78 -97q11 -23 8 -46q0 -2 0.5 -2.5t2 0t3 -1.5t1.5 -8q1 -28 -19.5 -44.5t-37.5 -9.5
q-11 4 -13 24q9 21 10 37q-51 -60 -111 -121q-26 -51 -83 -76q-38 -16 -59.5 1t-20 50t12.5 65q31 70 75 115q-122 -33 -213 -5q11 -21 7 -39q-5 -22 -68 -89t-106 -100q-51 -38 -100 -24q-79 23 -55 137q2 11 30.5 79t28.5 126zM316 244q-65 18 -111 55q0 -4 -2 -10
t-17 -29l-30.5 -48t-31 -60t-18.5 -64.5t6 -60.5q14 -37 89 22q90 76 119 137q13 32 -4 58zM647 113q73 73 126 133q-13 26 -41 26q-46 0 -95.5 -52.5t-70.5 -96.5q-32 -76 -1 -70q26 4 82 60z" />
    <glyph glyph-name="o_f" unicode="of" horiz-adv-x="736" 
d="M119 336q0 13 22 19t43 6q6 0 10 -6q-5 22 10.5 37t32 15.5t24.5 -7.5q43 -79 105.5 -120t156.5 -46q46 256 92 349q5 11 5.5 22t4.5 20q30 71 50.5 102t43.5 31q24 0 40 -35.5t15 -90.5q-1 -62 -16 -134.5t-38 -118.5q-27 -54 -73 -44q54 86 76.5 184t12.5 163
q-24 -10 -44.5 -36t-38.5 -69t-29 -77.5t-27 -91.5q-22 -76 -40 -175q150 2 321 60q6 -1 10 -5.5t1.5 -11t-13.5 -11.5q-142 -63 -325 -67q-17 -96 -38.5 -242l-34 -225.5t-19.5 -82.5q-12 -2 -25 -10t-21 -8q-25 0 -51 22.5t-46.5 57.5t-35 66t-23.5 58q13 6 18 -5
q11 -30 41 -72t53 -59q23 -19 41.5 -15.5t29.5 37.5q1 3 -1 3q-1 1 -1 3q11 52 37 220t41 252q-76 3 -131 17q3 -10 1 -22q-5 -22 -68 -89t-106 -100q-51 -38 -100 -24q-79 23 -55 137q2 10 32 85.5t30 133.5zM217 315q-1 1 -13 16q5 -23 -1 -42q-2 -6 -17 -29l-30.5 -48
t-31 -60t-18.5 -64.5t6 -60.5q14 -37 89 22q90 76 119 137q12 28 0 53q-64 28 -103 76z" />
    <glyph glyph-name="o_f_f" unicode="off" horiz-adv-x="959" 
d="M395 237q56 2 117 6q6 43 14 83.5t19 78.5t17.5 57.5t19 53.5t12.5 35q3 11 21.5 50t23.5 45q3 4 3 11.5t4 12.5q7 8 26.5 23.5t24.5 16.5q28 5 45 -28t17 -84q0 -36 -1 -56t-3.5 -38.5t-8 -26t-15.5 -6.5q-1 4 -2.5 22t-4.5 37t-7.5 39t-11.5 32.5t-17 12.5
q-15 0 -32 -27.5t-18 -40.5q0 -3 -1 -5t-2 -2.5t-2.5 -1t-3 -2t-3.5 -4.5q-50 -86 -80 -286q91 7 200 20q18 76 72 221q3 9 21.5 46.5t22.5 43.5q3 3 3 9.5t4 10.5q24 27 36 29q25 4 48.5 -12t23.5 -33q0 -37 -8 -65t-23 -31q-1 17 -10 30.5t-23 13.5q-6 0 -11 -2.5t-9 -8.5
l-6.5 -9.5t-6.5 -12t-5 -9.5q-2 -5 -9 -7t-10 -6q-41 -76 -72 -204l237 32q9 1 15.5 7t13.5 6q17 0 38 -5.5t21 -17.5q0 -14 -9.5 -19t-35.5 -10q-6 -1 -9 -2q-5 -1 -11.5 2t-14.5 2l-254 -31q-23 -112 -23 -201q0 -10 -3 -17t-3 -8t2.5 -7t2.5 -10q2 -139 28 -217
q5 -15 19.5 -30t14.5 -20q0 -7 -13 -20t-20 -13q-6 0 -16 10q-19 17 -47.5 37.5t-41.5 31.5q-7 6 -4.5 12.5t10.5 6.5q19 -17 49 -34q13 1 10 22q-26 106 -26 241q0 105 23 212l-196 -23q-7 -65 -7 -100q0 -11 -3 -19.5t-3 -9.5q0 -2 2.5 -8t2.5 -12q2 -170 23 -341
q0 -6 10 -26t10 -26q0 -8 -20.5 -21t-29.5 -13q-6 0 -11 6t-7 6q-46 8 -90.5 84t-44.5 131q0 6 1 12.5t1 7.5t-2 4.5t-3 6.5q-2 20 0.5 83.5t8.5 91.5q3 16 10 16q4 0 7.5 -5t2.5 -10q-7 -53 -7 -136q0 -22 8 -58t22.5 -76t41.5 -72t60 -39q-23 247 -23 391q0 68 6 128
l-84 -8q-18 -2 -37 2v-3q-5 -22 -68 -89t-106 -100q-51 -38 -100 -24q-79 23 -55 137q2 10 32 85.5t30 133.5q0 13 22 19t43 6q12 0 19 -26q27 -1 69.5 -19.5t64.5 -35.5q30 -23 42 -47q7 4 16 4zM281 272q-65 -4 -85 4l-15 -23t-20 -32.5l-19.5 -35t-19 -40.5t-12.5 -39.5
t-5.5 -41.5t7.5 -37q14 -37 89 22q90 76 119 137q12 23 1.5 49t-40.5 37z" />
    <glyph glyph-name="o_l" unicode="ol" horiz-adv-x="736" 
d="M99 327q7 18 26.5 27.5t34.5 6.5q11 -4 17 -19q86 -19 134 -17q156 8 284 165q63 178 116 279q29 13 41 -3q14 -5 3.5 -60.5t-26.5 -70.5q-27 -57 -73 -120q-118 -276 -135 -426q-1 -20 -1 -38.5t10.5 -29.5t30.5 -6q43 11 122.5 82t137.5 142q13 4 12 -10q-1 -9 -8 -20
q-44 -67 -130.5 -148t-131.5 -90q-34 -7 -55.5 3.5t-27 29.5t-7 39.5t3.5 34.5q6 88 91 336q-116 -111 -248 -140q20 -18 30.5 -48t5.5 -51q-5 -23 -31.5 -59.5t-63 -72t-84.5 -55.5t-89 -8q-60 17 -60 98q0 67 71 249zM233 264q-38 0 -68 15q-108 -175 -77 -252
q14 -35 74 -6q62 31 103 93q18 28 25 54q8 20 3.5 51.5t-24.5 45.5q-12 -1 -36 -1z" />
    <glyph glyph-name="o_l_l" unicode="oll" horiz-adv-x="983" 
d="M99 317q9 21 28 34t33 10q11 -4 17 -19q86 -19 134 -17q156 8 284 166q67 183 116 278q29 13 41 -3q14 -5 3.5 -60.5t-26.5 -70.5q-29 -61 -72 -120q-135 -314 -147 -478q-2 -15 -1 -27t5 -18.5t17.5 -1.5t36.5 23q133 107 210 204q54 269 139 401q6 39 36 39
q9 0 20 -24.5t11 -50.5q0 -71 -31 -132q-25 -89 -133 -223q-18 -88 -18 -153q0 -41 13 -51.5t49 8.5q33 19 64.5 46t53.5 52t38.5 46t26.5 36l10 15q10 10 15 10q10 0 9 -12q-1 -6 -25 -43q-39 -68 -117.5 -141t-128.5 -73q-16 0 -26.5 7t-15.5 24t-7 32t-3 43q0 6 2 6.5
t2 1.5q0 2 -3 6.5t-2 7.5q7 49 10 68q-115 -133 -212 -207q-30 -24 -51 -24t-28 17t-10 39t4 43q-1 90 98 383q-118 -111 -248 -140q20 -18 30.5 -48t5.5 -51q-5 -23 -31.5 -59.5t-63 -72t-84.5 -55.5t-89 -8q-60 17 -60 98q0 82 71 239zM233 264q-38 0 -68 15
q-108 -175 -77 -252q14 -35 74 -6q62 31 103 93q18 28 25 54q8 20 3.5 51.5t-24.5 45.5q-12 -1 -36 -1zM921 529q-38 -63 -82 -225q69 110 98 233q4 16 -1 13t-15 -21z" />
    <glyph glyph-name="o_o" unicode="oo" horiz-adv-x="750" 
d="M387 43q17 111 96 204q-115 -39 -190 -22q-7 1 -10 -5.5t-6 -21.5q-1 -3 -1 -5q-15 -73 -53 -135.5t-81 -73.5q-18 -5 -37 -5q-28 0 -49 40.5t-13 83.5q10 65 30 104t55 81l13 17q29 32 68 11q0 2 0.5 4t0.5 3q0 8 7 14.5t16 6.5q37 0 51 -18q9 -6 7.5 -20.5t1.5 -23.5
q47 -51 212 8q4 1 24.5 9t25.5 9q-3 3 -8 6.5t-7 4.5q-32 23 -32 55q0 9 8.5 18.5t18.5 9.5q24 0 41 -24q20 -12 38 -43q50 -26 121 -37t130 1q8 2 22.5 8t17.5 6q17 0 13 -27q-4 -25 -50 -32q-42 -6 -111 1t-116 28q-6 2 -8.5 0t-0.5 -7q15 -31 15 -69q0 -66 -53.5 -145
t-104.5 -93q-2 -1 -9.5 -3.5t-15 -4.5t-12.5 -2q-80 0 -65 84zM214 296q-45 -30 -68 -63t-39 -79q-1 -3 -6 -11.5t-6 -11.5q-1 -6 -4.5 -15.5t-5.5 -18.5q-4 -25 9.5 -50t30.5 -25q39 0 69 53t40 113t1 88q-16 10 -21 20zM605 205q0 31 -14 59q-102 -61 -134 -155
q-1 -3 -2.5 -3.5l-3 -1t-1.5 -2.5v-16q0 -2 -5 -10t-6 -13q-5 -26 3.5 -41t23.5 -15q45 0 92 74.5t47 123.5z" />
    <glyph glyph-name="o_r" unicode="or" horiz-adv-x="837" 
d="M484 345q3 19 12 29.5t14.5 11.5t12.5 1q13 0 20 -17q17 -9 13 -54q-4 -30 -36 -50q-13 -53 -34 -175q-1 -5 0 -7t3.5 -1t4.5 4q26 40 56 79t72 87.5t85.5 78.5t78.5 30q78 0 72 -72q-2 -26 -21 -39.5t-49 -3.5q14 30 14 46q0 4 -1.5 6.5t-5.5 4t-6.5 2t-7 1t-5.5 0.5
q-30 -4 -70 -36t-68.5 -65l-70.5 -85.5t-55 -66.5q-17 -33 -27 -47q-1 -16 -13.5 -25.5t-19.5 -9.5q-10 0 -22.5 17t-11.5 29q6 73 43 233q-81 -5 -154 13q-6 2 -8.5 0t-0.5 -7q0 -1 5 -9t8 -16.5t3 -16.5q0 -58 -43 -131t-99 -89q-40 -15 -55 -15q-36 0 -63 24t-23 75
q-1 16 0 31t6 30l9 26.5t12.5 25.5t13 22.5t15.5 21.5t14.5 17.5t14 16t11.5 12.5q3 2 1 5.5t-2 6.5q0 4 17.5 13.5t33.5 13.5l-17 10q-32 23 -32 55q0 9 8.5 18.5t18.5 9.5q24 0 41 -24q33 -19 71 -71q32 -16 98.5 -22t105.5 -2zM259 215q0 42 -42 78q-94 -64 -124 -149
q-1 -3 -2.5 -3.5l-3 -1t-1.5 -2.5v-5v-6.5v-4.5t-5.5 -9.5t-5.5 -13.5q0 -81 46 -81q59 0 98.5 63t39.5 135z" />
    <glyph glyph-name="o_u" unicode="ou" horiz-adv-x="982" 
d="M116 333q0 20 55 25q5 23 30 29t34 -12t11 -21q10 -7 21.5 -18.5l25.5 -26.5l20 -21q87 -51 235 1q14 42 16 49q28 15 48.5 -12t15.5 -43q-4 -13 -17.5 -18.5t-14.5 -6.5q-17 -22 -41 -99t-26 -114q-1 -13 6.5 -15t26.5 6q40 15 101.5 74.5t85.5 112.5q-2 8 2.5 17.5
t12.5 10.5q14 2 34 -3q6 -2 12 -19.5t4 -30.5q0 -2 -3 -3.5t-7 -3t-6 -3.5q-4 -22 -8 -56t-3.5 -72t11.5 -43q27 -13 141.5 71t158.5 139q8 -1 8 -9t-8 -17q-67 -81 -168 -155t-134 -72q-4 3 -9.5 3t-8.5 2q-28 16 -39 49t-8.5 62t10.5 58q2 7 -1 6q-1 0 -4 -4
q-41 -53 -91 -105.5t-76 -65.5q-29 -14 -39 -7q-3 2 -13.5 -4t-20.5 -3q-16 5 -24.5 23t-0.5 47q0 41 62 210q-77 -24 -151 -21q7 -15 4 -31q-5 -22 -68 -89t-106 -100q-51 -38 -100 -24q-79 23 -55 137q4 19 19 54.5t27.5 77t12.5 84.5zM322 233q-73 18 -124 63
q0 -9 -4 -21q-2 -6 -16 -27.5l-28 -44.5t-28 -56t-16.5 -61t6.5 -59q14 -37 89 22q90 76 119 137q10 22 2 47z" />
    <glyph glyph-name="o_v" unicode="ov" horiz-adv-x="905" 
d="M116 333q0 20 55 25q5 23 30 29t34 -12q79 -154 278 -97q-11 64 9 86q5 5 26.5 -1t41 -19t18.5 -25q-1 -13 -21.5 -46.5t-20.5 -46.5q1 -4 4 -30t5 -36.5l6.5 -34.5t9.5 -38.5t13 -33t18 -32.5q11 -16 24 9q78 147 140 227.5t92 80.5q25 0 35 -39q51 -44 50 -50
q-3 -20 -28 -20q-1 0 -8 5t-18.5 14t-19.5 14q-25 17 -55 -16q-28 -30 -77.5 -102.5t-73.5 -133.5q-2 -39 -62 -39q-38 0 -66.5 75.5t-33.5 196.5v2q-69 -22 -139 -19q7 -16 4 -33q-5 -22 -68 -89t-106 -100q-51 -38 -100 -24q-79 23 -55 137q4 19 19 54.5t27.5 77
t12.5 84.5zM322 233q-68 15 -124 63q0 -9 -4 -21q-2 -6 -16 -27.5l-28 -44.5t-28 -56t-16.5 -61t6.5 -59q14 -37 89 22q90 76 119 137q10 22 2 47z" />
    <glyph glyph-name="one_one" unicode="&#x31;&#x31;" horiz-adv-x="764" 
d="M250 508q-38 -16 -69.5 -40t-51.5 -45t-22 -22q-8 -5 -15.5 -4t-14.5 -1q-6 -3 -13 4.5t-8 16.5t6 15q2 1 29.5 21l57.5 40t67 40.5t61 27.5q4 -2 17 3t17 4q16 -6 25 -47q1 -10 -45 -90q-1 -2 -7.5 -6.5t-8.5 -7.5l-35.5 -63l-44.5 -79l-39 -72.5t-32 -69.5t-11 -43
t-1.5 -35t-1.5 -24q0 -7 -8.5 -20.5t-12.5 -13.5q-3 0 -13.5 -7t-12.5 -7q-8 1 -14.5 8t-6.5 13q-2 42 37 101q10 40 41.5 103.5l76.5 147.5t69 136q5 9 1 15.5t-17 0.5zM605 550q-48 -21 -116 -74q-7 -6 -14.5 -2.5t-13.5 0.5q-10 -4 -13 12q-3 18 7 27q12 11 51.5 32.5
l89.5 47t65 34.5q27 7 41 2q7 -3 15 -19.5t8 -33.5q0 -6 -3.5 -14.5t-11.5 -21l-13 -20.5t-17 -24.5l-15 -20.5q-5 -7 -24.5 -23.5t-29.5 -29.5q-79 -108 -137 -207q-3 -5 -11 -16t-12 -18q-3 -5 -7 -16.5t-6 -14.5q-31 -61 -40 -93q-5 -16 -10 -50.5t-5 -42.5
q0 -6 -11.5 -17t-16.5 -11q-9 0 -24 10q-7 5 -7 29q0 44 43.5 129t133 230t120.5 200q6 11 4 16.5t-20 -0.5z" />
    <glyph glyph-name="p_e" unicode="pe" horiz-adv-x="898" 
d="M178 450q17 0 30 -8t13 -16t-13 -34q74 -13 120.5 -60t46.5 -119q0 -42 -22 -84q30 8 64 14t75 12t64 10q34 72 105 134.5t116 62.5q20 0 51 -12t40 -33q5 -13 -5 -34t-27 -34q-55 -69 -238 -105q-5 -20 -5 -34q0 -3 -2 -5.5t0 -3.5q3 -5 2.5 -13t0.5 -13q6 -23 20 -34.5
t46 -11.5q69 0 170 62.5t174 136.5q20 20 26 20q16 0 9 -10q-65 -91 -189.5 -173.5t-201.5 -82.5q-40 0 -75.5 27.5t-35.5 80.5q0 23 7 44q-174 -32 -214 -43q-39 -55 -106 -99q-14 -16 -27.5 -23.5t-23.5 -6t-18 7t-12 12.5t-4 13t6.5 18.5t12.5 17.5q60 54 146 84
q32 53 32 96q0 58 -44.5 97.5t-104.5 47.5q-7 -11 -16 -20q-1 -2 -0.5 -10.5t-2.5 -16.5q-33 -88 -97 -307.5t-76 -301.5q-2 -10 3 -24t4 -18q-9 -30 -42 -30q-13 0 -8 62q8 77 93 355t89 292l3 20q-47 -2 -73 -13q-9 -7 -22.5 -21.5t-22 -21.5t-15.5 -7q-19 1 -29.5 32.5
t6.5 47.5q6 1 37 8.5t58 11t71 3.5q7 20 14 37q6 16 17 16zM790 317q-30 0 -88.5 -43.5t-88.5 -96.5q119 30 193 99q16 16 10.5 28.5t-26.5 12.5z" />
    <glyph glyph-name="p_p" unicode="pp" horiz-adv-x="788" 
d="M161 448q10 0 22 -7t9 -14q-14 -35 -19 -63q-1 -8 3 -9.5t7 4.5q12 21 23 21q60 0 64 -95q0 -7 -4.5 -11t-3.5 -12q1 -21 -1.5 -71.5t-10.5 -86.5q-4 -17 4 -16q6 0 18 16q41 50 90 94.5t70 59.5q49 35 65 35q13 0 28 -7.5t15 -15.5q0 -18 2 -18t4 4q45 80 53 80
q67 0 72 -65q1 -12 -3.5 -17.5t-4.5 -9.5q4 -30 4 -53q0 -13 1.5 -15.5t9.5 1.5q220 132 238 132q13 0 26 -8t13 -13q0 -22 -26 -31q-3 -1 -4.5 -1h-4t-7.5 -1q-41 -8 -110.5 -49t-119.5 -81l-8 -5.5t-6.5 -5t-4 -5t-4.5 -8.5l-6 -13q-5 -14 -9.5 -25t-12.5 -27.5t-15 -27.5
t-15.5 -19.5t-15.5 -8.5q-13 0 -25 13.5t-5 22.5q29 39 44 110.5t12 116.5q-2 19 -6 23.5t-15 -7.5q-75 -94 -142.5 -291t-71.5 -293q0 -4 2 -9.5t-1 -8.5q-4 -8 -19.5 -22.5t-22.5 -14.5q-8 0 -20 9t-12 16t10.5 36.5t20.5 47.5q36 113 79 273.5t48 224.5q-5 8 -72 -50
t-97 -92q-17 -36 -45 -81t-37 -45q-12 0 -26.5 8.5t-9.5 17.5q4 8 18.5 60t15.5 54q1 3 4.5 6.5t4.5 7.5q0 4 -3.5 7t-2.5 7q9 31 8.5 105.5t-10.5 90.5q-2 3 -15 -8.5t-30 -34.5t-26 -47q-48 -135 -99 -329t-69 -333q-3 -15 -20 -37t-27 -22t-18.5 6t-8.5 12q0 29 14 49
q17 66 73 260.5t96 348t46 213.5q1 16 14 31.5t21 15.5z" />
    <glyph glyph-name="r_r" unicode="rr" horiz-adv-x="878" 
d="M525 345q3 19 12 29.5t14.5 11.5t12.5 1q15 0 22.5 -21.5t-4.5 -34.5q-16 -18 -55 -240q-1 -5 0 -7t3.5 -1t4.5 4q26 40 56 79t72 87.5t85.5 78.5t78.5 30q78 0 72 -72q-2 -26 -21 -39.5t-49 -3.5q14 30 14 46q0 4 -1.5 6.5t-5.5 4t-6.5 2t-7 1t-5.5 0.5q-30 -4 -70 -36
t-68.5 -65l-70.5 -85.5t-55 -66.5q-17 -33 -27 -47q-1 -16 -13.5 -25.5t-19.5 -9.5q-10 0 -22.5 17t-11.5 29q8 92 66 327zM126 333q-9 2 -9 21q0 5 9 10t17 5t25 -9.5t21 -17.5q4 -10 -4 -37.5t-24.5 -72.5t-23.5 -67q-2 -7 1 -8.5t7 4.5q33 40 121 107.5t121 67.5
q15 0 35.5 -24t20.5 -45q0 -20 -14.5 -32t-31.5 -9q-8 2 -19.5 22t-17.5 21q-42 -6 -112 -62.5t-126 -120.5q-4 -7 -16.5 -43.5t-19.5 -47.5q-7 1 -17 -5t-12 -6q-7 1 -17.5 13t-6.5 22q86 202 93 314z" />
    <glyph glyph-name="s_s" unicode="ss" horiz-adv-x="752" 
d="M518 383q57 0 85 -19t28 -41q0 -13 -9 -18t-24 0q-71 -11 -111 -32q-13 -34 -13 -69q0 -59 22 -121q10 3 55 14.5t69 19t63.5 21.5t73.5 32.5t64 41.5q8 6 15 -7q8 -15 -6 -25q-58 -39 -179.5 -87.5t-136.5 -55.5q18 -43 18 -53q0 -14 -30.5 -24t-67.5 -4
q-41 -6 -69 10.5t-28 33.5q0 30 116 70q-37 119 -33 167v5q-88 -45 -176.5 -101t-134.5 -101q5 -11 14.5 -25.5t15 -24t5.5 -13.5q0 -21 -41 -21q-33 0 -63.5 15.5t-27.5 29.5q4 22 53 59q-17 88 -12 150q3 34 13.5 68.5t36.5 66t62 31.5q106 0 106 -47q0 -13 -13 -19.5
t-28 -1.5q-31 -41 -114 -88q-15 -73 -15 -135q172 119 326 196q24 102 91 102zM139 300q-3 -6 -12 -36q15 7 29.5 23.5t14.5 21.5q0 7 -11 7q-15 0 -21 -16zM480 0q-2 3 -6 13l-10 -8q-7 -6 5 -11q13 -6 12 2q0 2 -1 4zM521 323q-7 0 -13 -9q24 0 24 2q0 7 -11 7zM83 -3
l-4 8l-3 -7q-4 -8 3 -11q5 -2 6 4q0 2 -2 6z" />
    <glyph glyph-name="s_y" unicode="sy" horiz-adv-x="1204" 
d="M223 404q58 -3 61 -44q0 -3 6.5 -8.5t6.5 -12.5q0 -12 -13.5 -24t-35.5 -12q-27 0 -50 19t-26 19q-18 0 -43 -24t-25 -42q0 -23 13.5 -43t31.5 -33t48.5 -26.5t51 -19.5l54 -15.5t42.5 -12.5q219 137 307 202l10 19q7 14 34 9q11 -2 20 -10t2 -20q-5 -10 -27 -48.5
l-36.5 -66t-30.5 -67.5t-22 -72q-5 -26 6 -32.5t33 15.5q263 265 318 265q35 0 55 -28t14 -82q-10 -87 -93 -285q55 56 164 154t146 138q32 34 36 1q3 -21 -30 -43q-1 -1 -32.5 -35t-48.5 -41q-12 -13 -112.5 -106t-161.5 -157q-92 -205 -167 -329q-8 -46 -36 -49
q-22 -2 -30 22q-3 7 -3 15q0 29 27 84t65 110q36 70 105 153q124 290 121 398q-1 51 -52 22t-122.5 -101l-130 -130t-89.5 -63q-18 -3 -32.5 5.5t-13.5 26.5q0 4 3 11.5t3 11.5q6 85 74 231q-96 -47 -240 -151q-1 -14 -8.5 -29t-17 -27t-27.5 -26.5l-30 -23.5t-34.5 -22.5
t-32.5 -19l-32 -17.5t-25 -13q-4 -2 -7.5 1.5t-5.5 3.5t-5 -3.5t-9 -3.5q-17 0 -27.5 10.5t-10.5 24.5q0 18 29 28q42 35 147 101q-19 16 -69 38t-69 35q-8 2 -21 9t-33.5 22t-34.5 41t-14 57q0 34 43.5 62.5t85.5 41.5t53 12z" />
    <glyph glyph-name="seven_seven" unicode="&#x37;&#x37;" horiz-adv-x="971" 
d="M418 620q406 0 501 -48q24 -13 16 -45q6 -11 -1 -35q-5 -32 -51.5 -109.5t-99 -154t-94.5 -152.5t-39 -107q13 -17 12.5 -35t-10.5 -28q-14 -14 -35.5 -1t-21.5 42q0 52 125 272.5t141 266.5q10 31 5.5 41t-31.5 18q-39 11 -134 22t-150 10q-87 -24 -132 -3q-33 16 -5 42
zM70 530q45 -12 140.5 -17t175.5 -13t110 -31q23 -19 15 -51q10 -18 -1 -35q-240 -269 -239 -447q1 -8 5 -14t4.5 -7.5t-5.5 -8.5q-15 -14 -41 0.5t-26 42.5q0 65 74.5 205t159.5 231q20 24 12 38t-38 20q-45 9 -130 15q-114 -16 -169 -3t-58 44q-2 17 11 31z" />
    <glyph glyph-name="six_six" unicode="&#x36;&#x36;" horiz-adv-x="1129" 
d="M1025 551q75 0 75 -66q0 -17 -13 -32t-29 -20h-5.5t-7 3t-4.5 8q13 20 13 37q0 19 -30 19q-105 0 -224 -70q-2 -2 -10 -5t-11 -4q-4 -3 -8 -8t-8 -7q-71 -49 -115 -108t-44 -115v-5q29 4 116 4q77 0 141.5 -19.5t83.5 -43.5q2 -1 5.5 -1t5.5 -2q2 -1 0.5 -3.5t0.5 -5.5
q3 -2 6 -3.5l5 -2.5q1 -1 3 -2.5l4 -3t3.5 -4.5t1.5 -7q0 -37 -43 -62t-98 -34.5t-109 -7.5q-2 0 -4 5.5t-5 5.5q-2 0 -4.5 -3t-5.5 -2q-54 10 -92 34.5t-56 75.5q-28 24 -28 44q0 13 16 23v19q0 98 131 208q3 2 9.5 3.5t8.5 3.5q3 2 7 9t7 9q78 59 165.5 97.5t145.5 38.5z
M479 573q50 0 96 -20.5t46 -51.5q0 -29 -30 -47q-6 -4 -10 4q8 25 -3 46q-3 7 -20 13.5t-38 6.5q-79 0 -128 -24q-2 -1 -10.5 -1t-10.5 -1q-5 -2 -11 -7.5t-10 -7.5q-100 -46 -169 -124t-69 -164q0 -19 3 -38q61 13 104 13q63 0 111 -23.5t68 -50.5q2 -1 5 -1t5 -2
q1 -1 0 -3.5t1 -4.5t5 -3.5t4 -2.5q9 -9 9 -19q0 -34 -38.5 -66t-93.5 -32q-34 0 -49 6q-3 1 -4.5 5.5t-3.5 4.5t-4 -2.5t-5 -2.5q-28 -2 -66.5 27t-64.5 73q-11 -8 -20 -8q-11 0 -25 18t-14 29q0 19 33 32q-2 9 -2 26q0 113 85.5 216t197.5 154q4 2 13 4t12 3q4 1 11 5.5
t11 5.5l29 7q32 8 50 8zM624 130q-4 -10 -11 -21q25 -79 119 -90q17 4 40 -4q37 0 98 19t61 39q0 26 -63 45.5t-123 19.5h-27h-25t-20.5 -0.5t-24 -2.5t-24.5 -5zM151 117q-1 -1 -7.5 -6t-9.5 -8q19 -39 48.5 -65.5t63.5 -30.5q21 6 52 -6q25 0 52.5 19t27.5 31
q0 27 -45.5 52.5t-92.5 25.5q-41 0 -89 -12z" />
    <glyph glyph-name="t_e" unicode="te" horiz-adv-x="592" 
d="M280 638q10 -2 22.5 -17t11.5 -26q-3 -26 -27 -71q-3 -6 -8 -8t-9 -9q-42 -81 -87 -198q72 -3 175 -15q12 20 25.5 39t27.5 35.5t17 21.5q39 6 51 -10q30 -4 65 -64q1 -1 22.5 -21t21.5 -34q0 -15 -37 -26q-1 -1 -4 -1h-1q-95 13 -160 20q-31 -70 -31 -123
q0 -40 13.5 -77t33.5 -35q24 2 53.5 18t64 47.5l57 53.5t59 61.5t42.5 46.5q8 8 15 5q11 -4 6 -20q-1 -2 -28 -34q-50 -65 -128 -137t-112 -75q-1 0 -14.5 -2.5t-24.5 -2.5q-39 0 -60 38t-21 93q0 79 29 147q-88 7 -173 9q-61 -164 -91 -286q-2 -6 1 -15.5t2 -12.5
q-4 -8 -18 -15.5t-22 -6.5q-9 1 -18.5 8t-8.5 16q1 8 7 19.5l7 13.5q36 130 92 279q-73 -2 -121 -7q-27 -3 -34.5 16t25.5 35q10 -3 27 -3.5t53.5 1t65.5 1.5q43 109 84 199q8 16 14.5 40t11 44t5.5 22q3 8 12.5 16t18.5 7zM464 340q-30 0 -61 -53q60 -8 116 -19
q-29 72 -55 72z" />
    <glyph glyph-name="t_l" unicode="tl" horiz-adv-x="628" 
d="M430 452q-106 -8 -201 -21l-55 -114.5t-38.5 -104.5t-26.5 -126q-4 -45 13 -58t47 3q95 40 200 133q22 114 84 259t125 211q9 22 26 34.5t28 12.5q10 0 25 -19.5t15 -31.5q0 -1 0.5 -13t0 -19.5t-2 -19t-6 -21t-11.5 -16.5q-5 -76 -73 -178t-167 -198l-3 -20
q-10 -85 18 -120q18 -22 42 -5q106 50 240 213q20 2 20 -6q0 -3 -2 -6t-7 -9.5l-8 -10.5q-38 -56 -129.5 -142.5t-123.5 -87.5q-42 -16 -73 20t-25 121v7q-148 -130 -237 -145q-29 -3 -50 18t-21 57q0 49 18 118t38 120t55 133q-66 -13 -93 -23q-23 -28 -37 -34
q-3 -1 -8.5 7t-9.5 20t-3 20q1 16 15 22t62 16q47 9 92 14q38 93 56 146q10 31 31 31q13 0 26.5 -14.5t13.5 -25.5q0 -2 0.5 -5.5t0 -5.5t-1.5 -5.5t-3.5 -6.5l-7 -8t-11.5 -12q-18 -44 -39 -87q99 9 181 9q3 0 5 -1t2.5 -2.5t0.5 -3.5t-1 -5t-2 -5t-2 -5t-2 -4zM579 583
q-38 -50 -84 -159t-71 -207q166 173 203 355q4 22 -2 33t-16.5 7.5t-17.5 -17.5q-3 -4 -5.5 -5.5t-6.5 -6.5z" />
    <glyph glyph-name="t_o" unicode="to" horiz-adv-x="717" 
d="M263 716q10 -1 29 -19.5t18 -29.5q-1 -10 -23.5 -70.5t-32.5 -81.5q-3 -6 -14 -9.5t-14 -10.5l-73 -201q42 2 62 2q56 0 106 -5q10 21 52 38.5t76 10.5q51 8 121.5 -29t70.5 -70q0 -65 -59 -135t-119 -115q-3 -3 -8.5 -11.5t-12.5 -8.5q-23 0 -39 18.5t-16 43.5
q0 9 4.5 22.5t4.5 17.5q-3 33 14 128q1 10 -5 21t-14 13q-101 32 -252 20q-53 -151 -79 -250q-2 -6 -1 -19.5t0 -15.5q-1 -3 -2.5 -8t-3 -8.5t-3.5 -7t-4 -5t-5 -1.5h-4q-21 1 -21 11q0 6 1.5 11.5l3 11t2.5 8.5q22 93 77 269q-149 -19 -169 -63q-2 -3 -2.5 -9t-0.5 -10
t-2.5 -7.5t-6.5 -3.5q-13 0 -38.5 18.5t-25.5 38.5q0 24 77.5 45t179.5 31l95 291q6 17 11 43t8 48.5t3 23.5q2 7 13 13.5t21 5.5zM458 301q-8 0 -59 -20q69 -14 66 -34q-21 -127 -15 -165q0 -2 1 -6q2 -15 5.5 -20.5t12.5 0.5q41 27 82.5 79.5t41.5 85.5t-42.5 56.5
t-92.5 23.5z" />
    <glyph glyph-name="t_t" unicode="tt" horiz-adv-x="649" 
d="M305 651q14 0 36.5 -14t22.5 -23q0 -11 -16.5 -41.5t-36.5 -49.5q-5 -4 -13.5 -7.5t-12.5 -10.5q-29 -44 -58 -100q106 0 199 4l56 68l43.5 53t15.5 19q16 49 34 49q9 0 30.5 -20t21.5 -31q0 -10 -70 -108l-21 -25q132 9 230 19q17 -1 17 -11q-1 -9 -25 -14
q-85 -17 -249 -29q-4 -6 -5 -9q-40 -72 -75 -160.5t-39 -139.5q-1 -5 -7 -12t-6 -10q0 -2 6 -11t5 -14q-5 -32 4.5 -45.5t28.5 -4.5q56 27 196.5 149t188.5 181q8 10 18 -1.5t-2 -24.5q-76 -80 -187.5 -183t-169.5 -140q-39 -36 -68 -28q-22 -11 -44.5 5t-16.5 53
q-10 97 122 392q-7 -1 -20 -1q-43 -42 -108 -126t-114.5 -154t-50.5 -71q-13 -39 -44 -61q-6 -4 -19 -1t-24 -2q-14 -7 -26.5 2.5t-12.5 28.5q-1 109 124 376q-128 -2 -203 3q-18 10 -24.5 24.5t3 23.5t29.5 5q74 -14 213 -17q45 92 80 151q13 23 12 39.5t1 23.5
q5 12 7.5 16.5t9 9.5t14.5 5zM396 373q-95 -4 -190 -6q-106 -204 -114 -304q-1 -10 -1 -17t2 -11t7.5 -1t14.5 12q70 70 281 327z" />
    <glyph glyph-name="three_three" unicode="&#x33;&#x33;" horiz-adv-x="995" 
d="M874 495q0 13 -62 10q-23 -1 -69 -13t-74 -28q-41 -19 -59 -19q-23 0 -44 9t-21 28q0 7 6.5 15t10.5 10q2 1 9.5 2.5t17.5 3t15 2.5q169 41 242 41q52 0 79 -16q18 -9 18 -31q0 -33 -23.5 -62t-59.5 -50.5t-73.5 -40.5t-70.5 -40t-45 -40q13 -13 119.5 -57t121.5 -76
q14 -27 -2 -35q-10 -94 -235 -147q-53 0 -91.5 18.5t-41.5 49.5q-3 27 11.5 56.5t32 45.5t26.5 13q14 -15 -33 -56q7 -46 20 -63.5t47 -17.5q60 0 135.5 38t81.5 81q-13 28 -61 45.5l-108.5 40t-93.5 59.5q-18 20 -11 36q5 12 45 17l35.5 18.5l44.5 23.5l44.5 24.5t45 28
t35 26.5t26.5 26.5t9 23.5zM419 468q0 4 -6 7.5t-19.5 5.5t-30.5 1q1 0 -18.5 -4l-40.5 -8t-24 -4q-22 0 -43.5 10t-21.5 29q0 12 20 22q18 -1 161 -1q26 0 57 -19q18 -15 17 -39.5t-12 -43.5q-19 -31 -66 -57.5l-87.5 -49t-47.5 -46.5q11 -11 86 -47.5t91 -70.5
q14 -27 -2 -35q-8 -43 -56 -72t-102.5 -39.5t-109.5 -10.5t-89.5 24.5t-34.5 63.5q0 16 22 47.5t46 45.5q5 -3 6 -10t-4 -19t-8.5 -19.5t-12.5 -23.5t-11 -20q9 -47 101 -47q73 0 138.5 32.5t62.5 70.5q-26 30 -69 50l-77 37t-47 45q-20 15 -11 36q8 19 45 17q78 30 138 70
t60 72z" />
    <glyph glyph-name="two_two" unicode="&#x32;&#x32;" horiz-adv-x="913" 
d="M96 375q0 -9 -3.5 -22.5t-10.5 -14.5q-22 -3 -40 19t-15 40q7 42 126.5 76.5t195.5 34.5q42 0 76 -19.5t34 -62.5q0 -110 -318 -382q-8 -6 -5 -10.5t15 -5.5q36 -2 127.5 15.5t114.5 17.5q39 0 41 -19q0 -3 1 -6.5t1 -5.5q0 -7 -7.5 -17t-20.5 -14q-3 -1 -12 4t-13 5
q-49 -1 -190 -28q-4 -1 -11 -3.5t-15 -4t-17 -1.5q-20 1 -28 -5q-22 2 -49 18t-27 38q0 25 20 34q82 38 212 163t130 185q0 59 -59 59q-86 0 -169.5 -30t-83.5 -58zM593 322q7 -23 1.5 -34t-25.5 -7q-26 5 -41.5 17.5t-12.5 28.5q5 30 57.5 76t116.5 80t100 34
q34 0 56.5 -27.5t22.5 -74.5q0 -39 -36.5 -98t-109 -146t-75.5 -91q-11 -13 -9 -22t21 -8q81 6 190 -19q39 -9 32 -41q-2 -9 2 -12q1 -1 1 -9q0 -4 -9 -9.5t-13 -2.5q-40 26 -112 37.5t-141 9.5q-15 -13 -43 -1t-28 36q0 3 8 13.5t23 23.5t31 17q47 41 134 159t87 157
q0 24 -9.5 39.5t-25.5 15.5q-54 0 -123.5 -56t-69.5 -86z" />
    <glyph glyph-name="u_e" unicode="ue" horiz-adv-x="909" 
d="M799 221q-44 -53 -196 -154q4 -24 19 -32.5t39 -5t65 16.5q68 22 145.5 74.5t141.5 123.5q10 1 16 -2.5t-2 -16.5q-24 -29 -59.5 -62.5t-86 -73.5t-111 -68.5t-115.5 -32.5q-76 -26 -103 47q-147 -89 -194 -81q-4 3 -9.5 3t-8.5 2q-28 16 -39.5 51.5t-9 66.5t10.5 60
q2 7 -1 6q-1 0 -4 -4q-41 -53 -91 -105.5t-76 -65.5q-29 -14 -39 -7q-3 2 -13.5 -4t-20.5 -3q-16 5 -24.5 23t-0.5 47q0 25 17 80.5t42.5 126t33.5 96.5q28 15 48.5 -12t15.5 -43q-8 -26 -45 -63q-17 -22 -34.5 -79.5t-19.5 -95.5q-1 -13 6.5 -15t26.5 6q40 15 101.5 74.5
t85.5 112.5q-2 8 2.5 17.5t12.5 10.5q14 2 34 -3q6 -2 12 -19.5t4 -30.5q0 -2 -3 -3.5t-7 -3t-6 -3.5q-4 -21 -8 -58t-3 -77t12 -45q20 -9 71.5 10t113.5 57q-3 17 -1 36q6 73 56.5 145t122.5 119q12 8 27 -1q3 -2 7.5 2t8.5 4q15 0 34 -32t21 -58q1 -23 -16 -38l-1 -7
q-1 -8 -5 -13zM744 316q-38 0 -87.5 -70t-54.5 -145q76 51 127 102.5t52 85.5q0 7 -15 17t-22 10z" />
    <glyph glyph-name="v_a" unicode="va" horiz-adv-x="980" 
d="M28 364q5 5 26.5 -1t41 -19t18.5 -25q-1 -13 -21.5 -46.5t-20.5 -46.5q1 -4 4 -30t5 -36.5l6.5 -34.5t9.5 -38.5t13 -33t18 -32.5q11 -16 24 9q123 231 199 292q-8 23 -4 37t10.5 19.5t12.5 5.5q26 0 73 -42q51 -45 152 -30q32 24 57 24q48 0 83 -19q21 -13 24 -25
q31 51 35 59q12 8 32.5 0.5t28.5 -15.5q11 -11 1 -31q-25 -51 -38 -54q-28 -60 -37 -116q-10 -59 5 -74.5t61 8.5q53 28 131.5 89.5t117.5 110.5q13 0 17.5 -7t1 -17t-13.5 -20q-56 -54 -146 -125t-142 -94q-14 -6 -30 -7t-32.5 5t-25.5 27.5t-7 56.5q2 29 29 122q2 7 -1 7
q-2 -1 -4 -4q-4 -7 -25.5 -38.5t-55 -76t-56.5 -70.5q-24 -27 -54 -30t-49.5 21.5t-15.5 68.5q10 109 70 185q-62 -6 -114 8q-32 9 -53 2.5t-49 -37.5q-28 -30 -77.5 -102.5t-73.5 -133.5q-2 -39 -62 -39q-38 0 -66.5 75.5t-33.5 196.5l-6 29q-7 28 -6 53t13 39zM569 51
q30 22 78 81.5t94 130.5h-6q-4 0 -27 14.5t-49 14.5q-22 0 -42 -20q-65 -65 -76 -182q-5 -48 10 -48q7 0 18 9z" />
    <glyph glyph-name="v_i" unicode="vi" horiz-adv-x="805" 
d="M577 351q10 10 23.5 11t17.5 -5q3 -4 1.5 -11t1.5 -8q20 -14 17 -51q1 -24 -35 -109t-45 -118q-8 -28 -2.5 -43t25.5 -10q65 30 150.5 97.5t139.5 126.5q12 4 13 -9q0 -9 -9 -21q-47 -58 -159 -146.5t-143 -89.5q-27 -13 -48.5 3.5t-15.5 43.5q-5 20 7 67.5t32.5 111.5
t27.5 97q-58 -7 -134 -7q-6 0 -20 0.5t-18.5 0t-14.5 -2t-16 -5.5t-14.5 -10.5t-18.5 -17.5q-28 -30 -77.5 -102.5t-73.5 -133.5q-2 -39 -62 -39q-38 0 -66.5 75.5t-33.5 196.5l-6 29q-7 28 -6 53t13 39q5 5 26.5 -1t41 -19t18.5 -25q-1 -13 -21.5 -46.5t-20.5 -46.5
q1 -4 4 -30t5 -36.5l6.5 -34.5t9.5 -38.5t13 -33t18 -32.5q11 -16 24 9q39 73 74.5 129.5t50.5 76l49 61.5q-26 16 -26 53q0 26 22 35t44 -9q88 -75 215 -48q0 11 -4 23zM711 534q-21 -4 -42.5 11t-20.5 35t68 27q14 -14 14 -21q0 -10 -5.5 -30.5t-13.5 -21.5z" />
    <glyph glyph-name="z_z" unicode="&#x7a;&#x7a;" horiz-adv-x="798" 
d="M41 299q31 2 115 19t103 17q53 0 85 -22q13 -21 7.5 -52t-32.5 -51q-4 -48 -242 -190q-16 -12 0 -10q28 2 89.5 9.5t88.5 10t58 -0.5q5 -1 12 1.5t10 2.5q35 0 55.5 -9t20.5 -20q0 -10 -8.5 -22t-17.5 -17q-2 0 -25.5 15t-50.5 15q-47 0 -149.5 -16.5t-132.5 -8.5
q-12 -12 -19 -12q-10 0 -26 12t-16 28q0 12 7.5 17t29.5 6q58 29 84 43t74.5 46.5t96.5 73.5q22 19 37.5 43.5t15.5 38.5q0 9 -10.5 17.5t-23.5 7.5q-44 -5 -105 -23.5t-81 -21.5q-27 -4 -50 14.5t0 38.5zM402 317q77 21 152 21q56 0 108 -10t72 -27q11 -24 -11 -60t-63 -56
q-19 -14 -37 -31.5t-26 -26t-27 -32.5t-20 -25q-8 -10 -12.5 -24t1 -25.5t22.5 -11.5q20 1 48.5 3.5t36.5 2.5t33 -4q5 -1 12 1.5t10 2.5h9q38 0 51 -2t13 -11q0 -16 -35 -34q-41 6 -83 4.5t-81 -1.5t-48 7q-18 -2 -33 13t-15 47q0 13 10.5 30t29.5 28q12 23 54 59l77 67.5
t35 49.5q0 13 -48.5 15.5t-104 -3t-91.5 -12.5q-24 -5 -37 8.5t-2 36.5z" />
    <glyph glyph-name="zero_zero" unicode="&#x30;&#x30;" horiz-adv-x="1062" 
d="M920 484q2 -4 0.5 -12.5t-8.5 -9.5q103 -92 103 -181q0 -67 -34.5 -125.5t-84.5 -93.5t-100.5 -55t-86.5 -20q-46 0 -88.5 38.5t-44.5 75.5q-9 188 174 329q-3 14 -0.5 31t8.5 25q11 16 96 13l13 7q4 2 10 1t8 2q3 3 18 -9t17 -16zM394 486l-8 -3q39 -27 68.5 -70
t29.5 -94q0 -67 -38.5 -128t-93.5 -99t-109.5 -60.5t-90.5 -22.5q-29 0 -59.5 29t-30.5 63q0 68 52 156t125 165l-1 1q-8 5 -6 16.5t6.5 21t10.5 16.5q18 25 80 27q25 17 37 17q15 0 18 3t9 0t8 -7q3 -3 2 -16t-9 -15zM968 279q0 61 -36.5 110t-77.5 56q-37 -18 -68 -46
q-11 -10 -20 -13t-22 -16q-66 -66 -101 -144q-13 -30 -20 -69t-7 -53q0 -27 39.5 -49.5t63.5 -22.5q89 0 169 76.5t80 170.5zM437 317q0 63 -28.5 100.5t-67.5 40.5q-56 -38 -115 -110.5t-93 -142.5q-31 -65 -31 -89q0 -29 18 -49t38 -20q57 0 122.5 40t111 104.5
t45.5 125.5z" />
    <glyph glyph-name=".notdef" horiz-adv-x="352" 
 />
    <glyph glyph-name=".null" horiz-adv-x="0" 
 />
    <glyph glyph-name="nonmarkingreturn" horiz-adv-x="333" 
 />
    <glyph glyph-name="space" unicode=" " horiz-adv-x="293" 
 />
    <glyph glyph-name="exclam" unicode="!" horiz-adv-x="581" 
d="M473 617q-128 -259 -147 -373q-3 -14 -20 -9.5t-21 16.5q10 57 33 129t55.5 159.5t42.5 117.5q10 13 23 9q29 2 41 -12t-7 -37zM310 44q6 -32 -4 -49.5t-26 -19.5q-15 -2 -34 9t-20 23q-4 6 -2.5 26t21.5 24q38 7 65 -13z" />
    <glyph glyph-name="quotedbl" unicode="&#x22;" horiz-adv-x="379" 
d="M221 607q-3 -6 -29.5 -51t-37 -66t-23.5 -59t-13 -67q0 -15 -18 -17t-26 8q-2 40 10.5 81.5t42.5 105.5t40 90q5 14 21 14q13 -1 26 -14.5t7 -24.5zM325 556q-58 -105 -73 -173q-3 -15 -19.5 -17t-24.5 8q5 81 63 207q6 14 21 14q13 -1 26 -14.5t7 -24.5z" />
    <glyph glyph-name="numbersign" unicode="#" 
d="M528 570q30 15 39.5 -6t-6.5 -46q-4 -36 -24 -108q85 18 130 17q34 -1 21 -23q-5 -3 -40 -7q-33 -4 -121 -26q-38 -134 -50 -182q169 49 238 60q23 4 24 -5q1 -7 -12 -8q-19 -5 -33 -11q-81 -33 -228 -80q-26 -102 -31 -157q-3 -28 -2 -38q-9 -2 -15.5 2t-10 19.5
t-1.5 41.5q5 46 20 119q-123 -37 -187 -52q-11 -38 -18 -72q-4 -22 -2 -38q-14 -3 -20 3t-5 29q2 28 12 70q-94 -21 -144 -21q-17 -10 -33 2t-1 38q77 -1 189 25q19 70 59 192q-127 -28 -182 -24q-27 -12 -47 6.5t2 44.5q2 0 21 -5.5t37 -4.5q70 1 183 27q46 140 49 170
q2 18 -0.5 37.5t-2.5 21.5q46 25 48 -17q1 -28 -14 -56q-4 -40 -38 -147l160 39q20 72 36 120q2 24 0 50zM254 125q38 9 182 52q15 71 46 182l-76.5 -19.5t-87.5 -21.5z" />
    <glyph glyph-name="dollar" unicode="$" 
d="M555 766q-6 -13 -24.5 -33.5t-25.5 -32.5q-16 -24 -61 -156q67 -24 98 -73t17 -82q-21 -16 -33 -13q-15 4 -18.5 11.5t0 22t2.5 20.5q-5 58 -78 78q-49 -146 -97 -320q20 -16 62 -44.5t60.5 -45t19.5 -30.5q2 -19 -16.5 -31.5t-34 -16t-22.5 -3.5q-38 -18 -106 -18h-10
l-8 -39q-5 -25 2 -47t15.5 -32.5t6.5 -19t-22 -12.5q-47 4 -38 84q4 36 10 68q-71 8 -118 38t-57 64q-6 6 0 25t23 40q5 7 14.5 -2t8.5 -15q-7 -59 34.5 -87t101.5 -30q17 78 34 137q-147 120 -138 265q2 36 23 62t49.5 38.5t53.5 17.5t43 4q49 3 87 -6l62 178
q11 53 33.5 67.5t46.5 -31.5zM363 517q-63 1 -102 -28.5t-46 -83.5q-14 -102 91 -194q35 121 94 303q-9 1 -21.5 2t-15.5 1zM414 71q0 5 -4 10.5t-14 13l-19 14.5t-25.5 18.5t-27.5 20.5q-17 -63 -29 -114q119 5 119 37z" />
    <glyph glyph-name="percent" unicode="%" 
d="M215 51q3 6 9 -7q3 -8 1 -15q-3 -14 -31 -56t-45 -47q-4 -1 -7.5 4t-13.5 2q-14 -5 -26 3.5t-10 23.5q8 45 38.5 101t62 97.5t89 101.5t82 83l77.5 72q10 10 15 14q5 5 7.5 8t1 5t-3 3t-7 2t-7.5 1q-6 1 -26 17l-47 -26.5t-57.5 -31.5t-52 -23t-51.5 -14q-16 -1 -36 13.5
t-21 42.5q-2 43 58.5 106.5t138.5 60.5q26 -1 53.5 -21t32.5 -49v-1q17 0 26 -7q12 -10 3 -23q10 -2 32 4t31 4q16 -3 27 -21.5t2 -28.5q-11 -12 -41 -36.5t-41 -30.5q-7 -4 -10.5 0.5t-8.5 1.5q-88 -61 -193.5 -188.5t-127.5 -199.5q-4 -10 -2 -13t5.5 -2t11.5 7
q12 8 32 28t30 35zM500 173q-5 9 -18 9q-16 0 -38 -9q53 -45 53 -96q0 -52 -32 -88t-86 -36q-26 0 -44 27t-18 72q0 71 57 125q-30 9 -31 9q-9 4 -11.5 11t0 12.5t4.5 6.5q16 4 27 2q14 -3 40 -18q37 22 70 21q15 -1 58 -24q8 1 13 -8.5t3 -20.5q-5 -38 -34 -38
q-10 0 -18.5 7.5t-8.5 12.5q0 3 6 10t8 13zM251 406q21 5 69.5 30.5t71.5 46.5q-20 22 2 49q0 19 -57 23q-27 2 -79.5 -44.5t-53.5 -91.5q0 -14 17 -16t30 3zM462 86q0 45 -42 71q-28 -22 -47.5 -55t-19.5 -56t8 -41.5t23 -18.5q23 0 50.5 28.5t27.5 71.5z" />
    <glyph glyph-name="ampersand" unicode="&#x26;" horiz-adv-x="458" 
d="M403 479q-15 26 -59 54t-81 28t-64 -21t-27 -56q-7 -46 21 -77.5t57 -31.5q46 0 65 8q15 -18 15 -36q0 -16 -36 -20q-16 -2 -49.5 2.5t-38.5 3.5q-153 -24 -165 -188q15 -146 223 -148q49 -1 98 22t70 55q12 49 -5 84.5t-55 34.5q-146 -59 -158 -61q-10 -2 -28 6t-22 15
q-4 10 3 19t35 16q41 -2 173 47t186 49q35 0 38 -24q2 -20 -17 -28l-5 -1q-30 24 -140 -13q22 -17 35 -41t13 -44q0 -61 -42 -102t-96.5 -57t-118.5 -18q-35 0 -72.5 9.5t-75 28t-62.5 53.5t-29 80q-18 84 35.5 153t157.5 84q11 2 1 8q-64 38 -56 114q19 59 50.5 86t95.5 27
q60 0 105.5 -23t55.5 -51q8 -24 -3.5 -36.5t-27.5 -9.5z" />
    <glyph glyph-name="quotesingle" unicode="'" horiz-adv-x="274" 
d="M221 607q-3 -6 -29.5 -51t-37 -66t-23.5 -59t-13 -67q0 -15 -18 -17t-26 8q-2 40 10.5 81.5t42.5 105.5t40 90q5 14 21 14q13 -1 26 -14.5t7 -24.5z" />
    <glyph glyph-name="parenleft" unicode="(" horiz-adv-x="454" 
d="M272 -49q2 1 8 6t9.5 6t8.5 -6q12 -29 9 -49.5t-20 -20.5q-31 0 -72 43.5t-73 122.5t-32 162q0 77 26.5 154t65 134t81.5 102t77.5 68.5t50.5 23.5q9 0 17 -9t7 -14q-1 -9 -33 -9l-60 -53t-65.5 -70t-66.5 -92t-44.5 -107.5t-18.5 -128.5q1 -52 17 -103.5t37 -85t41 -54
t30 -20.5z" />
    <glyph glyph-name="parenright" unicode=")" horiz-adv-x="406" 
d="M200 678q-6 8 3.5 16.5t24.5 9.5q19 1 43.5 -30.5t42 -83t17.5 -101.5q-5 -175 -96.5 -346.5t-229.5 -253.5q-14 -8 -15 0q-1 7 14 18q118 91 194.5 255t76.5 310q0 51 -16 97.5t-27 63.5t-32 45z" />
    <glyph glyph-name="asterisk" unicode="*" 
d="M281 708q2 0 12 -11.5l32 -37.5l38 -44q115 110 133 110q10 0 15.5 -10.5t-0.5 -28.5q0 -3 -4 -1t-6 1q-28 -20 -101 -92q37 1 103 4q12 0 21 -6.5t10 -14t-1 -12.5q-3 -4 -11 -5t-23 -0.5t-22 0.5q-3 0 -11 -1t-22 -1.5t-25 -1.5q67 -67 106 -76q3 -2 1.5 -9.5t-6 -16
t-7.5 -8.5q-60 18 -151 105h-4q-98 -101 -134 -146q-8 -9 -29 -3q-13 5 -8 13q32 51 108 132q-62 -4 -64 -4q-15 0 -32 10t-16 16q1 5 15 16.5t22 12.5q20 -6 102 -6q-68 74 -71 100q0 4 6 8t13 6t11 2z" />
    <glyph glyph-name="plus" unicode="+" 
d="M377 449q36 31 49 -4q12 -35 -8 -80l-4 -8q-6 -22 -20 -64q70 1 164 -4q25 -2 49 -10q6 -8 -19 -14l-28 -4q-10 0 -42.5 -1t-68.5 -2l-70 -2q-41 -105 -54 -171q-2 -13 -5.5 -22.5t-14 -20.5t-26.5 -10q-8 0 -12.5 3t-2.5 8q12 40 76 211q-135 -9 -204 -25
q-5 -11 -11.5 -16t-13.5 -4.5t-15 0.5q-21 19 -7 38.5t37 14.5q62 26 227 30q25 71 27 98q1 13 -3 59z" />
    <glyph glyph-name="comma" unicode="," horiz-adv-x="373" 
d="M125 30q-1 24 9.5 36t22.5 12q20 0 55.5 -42t28.5 -68q3 -64 -43 -123.5t-84 -79.5q-13 -7 -27.5 -3.5t-23.5 15.5q51 27 93 75t42 106q0 11 -10 19t-23 12.5t-25 15t-15 25.5z" />
    <glyph glyph-name="hyphen" unicode="-" horiz-adv-x="756" 
d="M211 229q38 -4 119 3t154 16t82 9q22 0 26 -19q3 -21 -15 -35q-120 12 -345 -18q-33 -5 -40 19q-4 17 10 24q4 2 9 1z" />
    <glyph glyph-name="period" unicode="." horiz-adv-x="373" 
d="M233 33q6 -32 -4 -49.5t-26 -19.5q-15 -2 -34 9t-20 23q-4 6 -2.5 26t21.5 24q38 7 65 -13z" />
    <glyph glyph-name="slash" unicode="/" horiz-adv-x="468" 
d="M398 627q5 13 28 13q10 0 27 -17.5t13 -29.5q-6 -19 -34 -44t-50 -35l-81 -143l-127.5 -233t-68.5 -152q-3 -9 6.5 -25t9.5 -20q0 -9 -14.5 -36t-19.5 -27q-8 0 -25 -6.5t-22 -6.5q-13 0 -14.5 4.5t5.5 36.5q22 75 100.5 222.5l161.5 294.5t105 204z" />
    <glyph glyph-name="zero" unicode="0" horiz-adv-x="573" 
d="M426 519l-9 -3q43 -30 75 -76.5t32 -101.5q0 -73 -42.5 -139.5t-103 -108t-120 -66t-99.5 -24.5q-32 0 -65.5 31.5t-33.5 68.5q0 74 58 171t138 179q-2 0 -2 1q-9 13 -4 28.5t16 29.5q21 28 89 30q28 18 40 18q16 0 20 4q3 3 9.5 -0.5t8.5 -7.5q3 -3 2 -17t-9 -17z
M473 335q0 68 -31 109t-74 45q-61 -42 -127 -120.5t-103 -155.5q-33 -69 -33 -97q0 -31 19.5 -53t41.5 -22q63 0 135 44t122 113.5t50 136.5z" />
    <glyph glyph-name="one" unicode="1" horiz-adv-x="387" 
d="M257 501q-28 -9 -60.5 -28t-54 -35.5l-43 -34t-22.5 -18.5q-8 -5 -15.5 -4t-14.5 -1q-6 -3 -13 5.5t-8 18t6 15.5q1 1 26 18l54.5 35.5l63 38t61.5 30.5t41 7q4 -2 20 6t20 7q16 -6 25 -47q0 -3 -3 -7.5l-8 -11.5l-8 -11q-210 -381 -210 -463q0 -15 4 -31t4 -18
q0 -6 -13 -12.5t-19 -6.5q-3 0 -7.5 7t-6.5 7q-7 1 -14 8t-7 13q0 43 33.5 119.5t94 192t90.5 185.5q5 9 1 14.5t-17 1.5z" />
    <glyph glyph-name="two" unicode="2" horiz-adv-x="499" 
d="M114 362q0 -9 -3.5 -22.5t-10.5 -14.5q-22 -3 -39.5 13t-14.5 33q5 30 57.5 76t116.5 80t100 34q34 0 60.5 -31.5t26.5 -78.5q0 -58 -53.5 -156t-111.5 -175q-10 -13 -9 -16t13 -1q93 19 165 19q21 0 38 -19.5t14 -31.5q-2 -9 2 -12q9 -6 9 -12q0 -4 -9 -9.5t-13 -2.5
q-74 48 -238 17q-23 -4 -36 -20q-42 -50 -53 -58q-15 -13 -43 -1t-28 36q0 20 15 24q43 11 113 87t125 171.5t55 152.5q0 64 -45 64q-34 0 -118.5 -60t-84.5 -86z" />
    <glyph glyph-name="three" unicode="3" horiz-adv-x="493" 
d="M403 477q0 11 -31.5 19t-61.5 6q-98 -4 -147 -33q-22 -41 -48 -41q-19 0 -31 11t-12 31q0 7 6.5 15t10.5 10q2 1 9.5 2.5t13.5 3.5q123 44 214 44q29 0 61 -10t50 -25q13 -11 13.5 -40t-8.5 -43q-25 -45 -86.5 -88t-118.5 -75t-67 -48q14 -13 61.5 -28.5t95 -38.5
t67.5 -59q14 -27 -2 -35q-14 -33 -74 -53t-129 -20q-59 0 -99 16t-43 47q-3 29 11 36q16 7 22 -8.5t1 -29.5q23 -20 76 -20q55 0 111 19.5t65 41.5q-13 29 -54.5 45.5t-95 34t-84.5 43.5q-8 6 -11.5 17t0.5 19q5 12 45 17q82 32 176 100.5t94 116.5z" />
    <glyph glyph-name="four" unicode="4" horiz-adv-x="544" 
d="M431 482q22 6 38 0.5t16 -18.5q0 -3 -6.5 -12.5t-8.5 -16.5q-55 -122 -87 -202q-3 -7 -2.5 -10.5t3.5 -4.5t9 -1q8 0 24 1t24 1q30 0 50 -5t27 -11t7 -12q0 -4 -2 -10t-5 -11l-2 -6q-5 -11 -28 -15.5t-32 16.5q-12 7 -62 7q-22 0 -30 -7.5t-20 -39.5q-24 -74 -24 -112
q0 -5 1.5 -9.5t3.5 -7t5 -5.5t5 -4t5.5 -3t4.5 -2q5 -3 -4.5 -19.5t-16.5 -18.5q-8 -3 -15 12q-11 2 -17.5 6.5t-12.5 19t-6 39.5q0 30 30 120q5 14 3 19.5t-13 3.5q-169 -25 -196 -1q-19 -7 -38 19.5t-19 41.5q0 6 3 10.5t12 12.5t12 11q33 57 138 162t131 141q22 3 36 -22
t-6 -52q-22 -26 -100 -67q-99 -93 -152 -187q-5 -18 9.5 -27.5t49.5 -9.5q41 0 122 12q25 4 31 9t14 29q27 82 71 175q2 58 20 61z" />
    <glyph glyph-name="five" unicode="5" horiz-adv-x="601" 
d="M326 550q19 0 43 -22q202 -5 279 -23q5 -7 1.5 -12.5t-13 -8.5t-20.5 -2q-65 7 -269 7q-37 -8 -77 -25.5t-76.5 -41.5t-57.5 -56.5t-15 -65.5q18 -31 55 -51.5t77 -30l77.5 -19t61.5 -25.5t24 -42q0 -55 -76.5 -105t-124.5 -50q-47 0 -91 36q-39 32 -20 53q2 1 3 2
q4 3 13.5 -8.5l21 -25t18.5 -13.5q42 -2 115.5 31.5t90.5 90.5q-6 8 -31 16.5t-58 15t-70.5 20t-68 31t-51 48.5t-20.5 71q0 38 51 88t112.5 83.5t95.5 33.5z" />
    <glyph glyph-name="six" unicode="6" horiz-adv-x="553" 
d="M446 476q-3 2 -2.5 5.5t1.5 6t-0.5 4.5t-6.5 0q-76 -10 -156.5 -67.5t-132.5 -134.5t-52 -141q0 -57 35 -93t100 -36q83 0 164.5 39.5t81.5 89.5q0 16 -19 25.5t-48 9.5q-65 0 -124.5 -25t-96.5 -61q-12 -9 -28 8q-22 22 -3 42q3 4 8 7q38 25 102 47t125 22
q58 0 93.5 -19t35.5 -52q0 -43 -32.5 -78t-79.5 -54.5t-92 -29.5t-79 -10q-33 0 -63 7t-59.5 24.5t-47 52.5t-17.5 84q0 67 47.5 144t112.5 135t134.5 94t112.5 30q31 3 45 -33q15 -37 -7 -46t-52 3z" />
    <glyph glyph-name="seven" unicode="7" horiz-adv-x="534" 
d="M77 532q139 5 244 -4t160 -33t46 -58q10 -18 -1 -35q-7 -28 -50.5 -86t-91.5 -112t-85.5 -112t-34.5 -89q1 -8 5 -14t4.5 -7.5t-5.5 -8.5q-13 -14 -30 -4t-17 39q0 37 35.5 97t78.5 112.5l86.5 107t53.5 76.5q12 30 4.5 44t-35.5 22q-83 24 -234 22q-87 -24 -132 -3
q-33 16 -5 42z" />
    <glyph glyph-name="eight" unicode="8" horiz-adv-x="542" 
d="M416 308q-116 -68 -179 -112q31 -41 81 -87.5t78.5 -77.5t28.5 -56q0 -15 -49.5 -27t-101.5 -12q-25 0 -59 6.5t-74 20.5t-67.5 44.5t-27.5 71.5q0 26 137 122q-73 107 -73 243q0 37 20 63.5t54 38.5t66 17t67 5q68 0 122.5 -33.5t54.5 -81.5q0 -24 -13.5 -51t-29.5 -42
q24 0 34 -17q5 -9 2 -22.5t-10 -17.5q-22 -14 -61 5zM403 344q10 6 15 8q-15 8 -15 29q0 12 16.5 39t23.5 53q-22 49 -103 53q-80 5 -132 -22t-52 -75q0 -112 61 -205q64 44 186 120zM364 1q0 16 -23 38.5t-65 59.5t-71 73q-100 -78 -100 -133q0 -30 52 -47.5t112 -17.5
q42 0 68 7.5t27 19.5z" />
    <glyph glyph-name="nine" unicode="9" horiz-adv-x="576" 
d="M480 540q11 -9 7 -33t-20 -43q2 0 4 2l3 1q12 0 25 -12t13 -21q0 -19 -27 -62.5t-45 -47.5q-29 -39 -69 -126.5t-51 -122.5q-7 -29 -1 -70t3 -52q-6 -9 -13.5 -3t-11.5 5q-12 -3 -29.5 4.5t-17.5 25.5q0 29 49.5 150t110.5 243q-22 -11 -83.5 -48t-109 -58t-85.5 -21
q-33 0 -56.5 22t-23.5 48q0 55 49.5 108t114 86t124.5 51t83 11q18 5 36 -9t21 -28zM135 289q13 0 28 3.5t33 10.5t34 14.5t37.5 19.5l36 20.5t37 23.5l33 22l32 21.5t26.5 17.5q-10 1 -18.5 9t-8.5 16q0 11 8.5 27t7.5 27q-113 -1 -214 -70.5t-103 -124.5q0 -18 9 -27.5
t22 -9.5z" />
    <glyph glyph-name="colon" unicode=":" horiz-adv-x="391" 
d="M276 287q-20 -26 -41 -31t-30 7q-11 9 -16 30.5t3 30.5q1 1 4 5.5t6 7.5t7.5 6.5t9 5t10.5 1t12 -5.5q31 -23 35 -57zM233 34q6 -32 -4 -49.5t-26 -19.5q-15 -2 -34 9t-20 23q-4 6 -2.5 26t21.5 24q38 7 65 -13z" />
    <glyph glyph-name="semicolon" unicode=";" horiz-adv-x="373" 
d="M125 30q-1 24 9.5 36t22.5 12q20 0 55.5 -42t28.5 -68q3 -64 -43 -123.5t-84 -79.5q-13 -7 -27.5 -3.5t-23.5 15.5q51 27 93 75t42 106q0 11 -10 19t-23 12.5t-25 15t-15 25.5zM270 278q-20 -26 -41 -31t-30 7q-11 9 -16 30.5t3 30.5q1 1 4 5.5t6 7.5t7.5 6.5t9 5t10.5 1
t12 -5.5q31 -23 35 -57z" />
    <glyph glyph-name="less" unicode="&#x3c;" horiz-adv-x="753" 
d="M208 291q71 -28 154 -68.5l152.5 -77t84.5 -43.5q37 -5 50.5 -24.5t12.5 -38.5q-1 -12 -10 -19.5t-18 -7.5q-7 0 -22.5 16.5t-25.5 33.5q-19 9 -91.5 47l-110.5 56.5t-97 41t-103 29.5q-7 1 -13.5 -4.5t-9.5 -5.5q-27 -1 -45 26.5t-14 43.5q3 11 16.5 14.5t28.5 0.5
q77 34 224.5 92t196.5 79q47 30 54 31q19 1 28.5 -23t-0.5 -38q-5 -9 -40 -12t-57 3q-287 -115 -345 -152z" />
    <glyph glyph-name="equal" unicode="=" horiz-adv-x="732" 
d="M585 157q-47 -6 -152 -21l-184 -26t-92 -11q-20 0 -33.5 13t-15.5 24q-1 5 2.5 9.5t13.5 11l13 8.5q86 -3 215.5 3.5t210.5 25.5q40 -1 40 -17q0 -12 -18 -20zM567 315q-28 14 -87 15t-113 -6t-105 -14.5t-58 -7.5q-20 0 -33.5 13t-15.5 24q-1 4 0.5 7t4 5t7.5 5t9 6
q35 6 91.5 8t93 1.5t112.5 -2.5t85 -2q34 0 34 -26q0 -11 -7.5 -19t-17.5 -7z" />
    <glyph glyph-name="greater" unicode="&#x3e;" horiz-adv-x="752" 
d="M593 266q-26 25 -64.5 49t-67 37l-70 30.5t-51.5 22.5q-57 7 -107.5 26.5t-48.5 49.5q2 26 32 20l79.5 -34.5l94.5 -41.5t83.5 -40t89.5 -49.5t71 -50.5q20 3 34.5 -17t10.5 -34q-5 -19 -34.5 -25t-48.5 2q-220 -80 -357 -150q-17 -19 -51 -36t-46 -18q-19 -1 -28.5 23
t0.5 38q9 15 102 38q39 19 187 76t190 84z" />
    <glyph glyph-name="question" unicode="?" horiz-adv-x="710" 
d="M338 34q6 -31 -3.5 -48t-25.5 -19q-14 -2 -32 9t-19 22q-4 6 -2.5 25t20.5 23q36 7 62 -12zM307 459q8 -2 -9 -12l-9 -3q-9 0 -28.5 15t-19.5 34q0 39 109.5 82t194.5 43q52 0 83 -16t31 -41q0 -40 -30 -86.5t-61.5 -76.5t-90.5 -80l-77 -66q7 -35 -6 -44
q-6 -2 -9.5 -1.5t-11 2.5t-9.5 2q-6 1 -23 20t-17 25q0 7 5 15.5t13 10.5q81 34 163.5 109.5t102.5 117.5q7 16 8.5 31t-11.5 28.5t-44 13.5q-152 0 -256 -90q-8 -7 -6 -19t8 -14z" />
    <glyph glyph-name="at" unicode="@" horiz-adv-x="1118" 
d="M913 -66q7 2 7 -6q0 -6 -8 -10q-61 -32 -184 -60t-209 -24q-3 0 -9 -4t-13 -3q-85 7 -150 33.5t-101 61.5t-58 80t-27.5 83.5t-2.5 76.5q0 3 3.5 10.5t3.5 14.5q0 75 29.5 143.5t79 118.5t111 90.5t126.5 65.5t123 38.5t103 14.5q4 0 7 -2t6 -2q4 0 5 2t4 2
q138 -20 192 -105q20 -6 30.5 -27t11.5 -36q10 -148 -77 -275.5t-209 -162.5q-5 -2 -9.5 0.5t-5.5 2.5q-4 0 -6.5 -2t-7.5 -1q-41 4 -68 38t-36 74t-7 81q0 8 -1 10.5t-5 0.5t-7 -5l-3 -3q-11 -8 -34.5 -29.5t-41 -34t-35.5 -18.5q-11 -26 -42.5 -39.5t-53.5 -12t-28 0.5
q-32 21 -26 69q5 42 64 103.5t129.5 108.5t111.5 56q17 4 39 4q42 0 55 -11q36 5 59.5 -28t21.5 -79q0 -5 -6 -11.5t-6 -10.5q0 -3 -1 -6.5t-5.5 -8.5t-11 -8.5t-19 -5.5t-28.5 -1q-3 0 4 6q10 9 11 13q2 8 4 25t-1 41.5t-15 34.5q-20 15 -129 -1q-52 -30 -91.5 -63.5
t-111.5 -102.5q-7 -6 -11.5 -37t6.5 -34q14 -2 38 16q2 1 30.5 19l54 35.5t52 42t33.5 43.5q0 4 6.5 2t9.5 2q2 4 6 18.5t7 16.5q1 1 7.5 7t12 10.5t9.5 4.5q30 0 36 -31q0 -2 -1 -6t-3 -9.5t-3 -8.5q-7 -31 -17 -53q-7 -25 -6 -63t18.5 -75.5t43.5 -43.5q6 -2 10 -2t9 1.5
t8.5 3.5t13.5 6.5l19 8.5q21 9 48 31t57.5 58.5t52 82.5t32 103t-3.5 120q-21 46 -72 76.5t-109 38.5q-4 0 -9 -1.5t-13 -5t-16 -5.5q-10 -3 -43 -1t-40 0q-42 -13 -69 -22.5t-77 -31.5t-83.5 -44t-75 -59t-67 -78t-44.5 -99t-21 -124q0 -57 16 -103t39.5 -75t59 -50
t66 -31.5t69 -16.5t59.5 -7t45 -1q54 0 172 21.5t187 44.5z" />
    <glyph glyph-name="A" unicode="A" horiz-adv-x="556" 
d="M454 -20q2 -13 -12.5 -24.5t-30.5 -8t-18 27.5q-7 88 -25 221q-162 -65 -265 -43q-55 -93 -94 -170q-7 -9 -20.5 -5.5t-23.5 17t-3 23.5l96 150q-33 46 3 63q17 -7 31 -11l182 267q4 27 35 69q-15 35 -11.5 52.5t13.5 22.5t32 5q30 -4 41 -41t13 -116q0 -3 -6.5 -5
t-6.5 -5q2 -115 15 -221q11 4 33.5 10t26.5 7q8 4 17 -6.5t3 -19.5l-76 -29q19 -138 51 -230zM322 494q-131 -195 -186 -285q33 -10 80.5 -5t74 11.5t72.5 20.5q-9 64 -41 258z" />
    <glyph glyph-name="B" unicode="B" horiz-adv-x="558" 
d="M5 639q38 -10 144 -23.5t156 -24.5l11 27q15 14 33.5 3t13.5 -28l-8 -15q124 -36 124 -111q0 -74 -213 -156q7 -4 37 -18t55.5 -28.5t53.5 -35t45 -48.5t17 -60q0 -65 -81.5 -117.5t-193.5 -52.5q-28 0 -59 7t-62 21t-51.5 40.5t-20.5 60.5q0 74 79 149q2 2 4 -4
q5 -14 1 -25q-33 -73 -33 -121q0 -33 31 -58t107 -25q83 0 158 41t75 94q0 88 -222 154q-66 -145 -54 -186q-17 -27 -40 -18q-20 7 -18 28q2 15 18 27q25 71 59 153q-35 5 -47 18t-6 30.5t19 16.5q31 -3 63 1l88 198q-128 25 -236 18q-13 -1 -23.5 1.5t-18 8.5t-12 10
t-8.5 11l-5 6q-4 5 5.5 18.5t14.5 12.5zM336 541l-93 -179q76 15 133.5 46.5t57.5 67.5q0 37 -98 65z" />
    <glyph glyph-name="C" unicode="C" horiz-adv-x="555" 
d="M397 566q-83 0 -157.5 -58t-115 -139t-40.5 -155q0 -88 37 -132t100 -44q106 0 219 84q8 3 17 -3.5t9.5 -17t-13.5 -23.5q-37 -29 -103 -56.5t-144 -27.5q-87 0 -133.5 61.5t-46.5 135.5q0 88 36.5 169t89.5 133.5t110 83.5t101 31q68 0 111 -36.5t43 -80.5
q0 -53 -17 -82t-49 -12q13 79 0 117.5t-54 51.5z" />
    <glyph glyph-name="D" unicode="D" horiz-adv-x="601" 
d="M21 685q99 -30 201 -93l9 52q16 22 40 13q18 -6 24 -42.5t-1 -71.5q100 -76 161.5 -168t61.5 -188q0 -99 -61.5 -156.5t-165.5 -57.5q-102 0 -162 37l-3 -33q9 -13 -3.5 -26t-24.5 -13q-13 0 -25.5 20t-3.5 51q4 12 26.5 90l39 136t39 145t37.5 155q-85 52 -174 88
q-23 9 -28 24t1.5 26t11.5 12zM254 485q0 -1 -8.5 -24l-18 -50t-23 -70l-25.5 -85t-24 -93t-19 -97q52 -48 180 -48q67 0 111.5 45.5t44.5 127.5q0 161 -209 309q-6 -8 -9 -15z" />
    <glyph glyph-name="E" unicode="E" horiz-adv-x="597" 
d="M41 510q-5 4 -6.5 14.5t7 21t28.5 11.5q33 3 125 3q9 28 10 35q19 13 30.5 7.5t16.5 -17t6 -27.5q144 -8 307 -29q12 -1 7 -12q-10 -17 -20 -16q-122 10 -305 12q-7 -12 -27 -42t-27 -44q-37 -69 -54 -134q66 -7 165.5 5.5t130.5 41.5q28 2 33 -14.5t-8 -27.5
q-25 -27 -139 -42.5t-191 1.5q-9 -43 -7 -94q2 -57 31.5 -93.5t89.5 -36.5q74 0 170.5 52.5t147.5 108.5q8 -1 14 -9t6 -15q0 -14 -21 -35q-61 -62 -154.5 -104t-176.5 -42q-68 0 -111 48t-43 138q0 24 5.5 54.5t11.5 54.5t19.5 62l20.5 56.5l23.5 59.5l20.5 51
q-84 0 -136 -3z" />
    <glyph glyph-name="F" unicode="F" horiz-adv-x="678" 
d="M147 317q43 -20 90 -31q66 187 88 278q-44 -9 -108 -25.5t-100.5 -23.5t-54.5 -3q-11 10 -15 20.5t4 19.5t31 11q10 1 179 34t266 33q52 0 93 -9.5t59.5 -21t18.5 -19.5q0 -26 -19 -31q-119 49 -294 25l-101 -297q81 -11 200 4.5t132 15.5q16 0 16 -18.5t-12 -32.5
q-24 -1 -148 -12.5t-203 -3.5q-42 -128 -51 -174q-12 -58 -2 -85q-18 -27 -45 -24q-14 2 -22.5 15.5t-2.5 38.5q21 82 74 235q-34 5 -63 13q-21 5 -27 20.5t0 30t17 17.5z" />
    <glyph glyph-name="G" unicode="G" horiz-adv-x="585" 
d="M505 470q16 19 16 43q0 21 -14.5 35.5t-42.5 14.5q-84 0 -162 -33.5t-129 -82.5t-81.5 -101.5t-30.5 -92.5q0 -29 12.5 -54.5t33.5 -31.5q20 -2 30 -2q78 0 178.5 41t147.5 87q15 25 29 25q13 0 29.5 -9.5t16.5 -17.5q0 -7 -11 -18.5l-12 -12.5q-23 -40 -53.5 -123
t-30.5 -138q0 -40 19 -55q-3 -15 -18.5 -24.5t-27.5 -9.5q-16 0 -24 20.5t-8 50.5q0 19 12.5 60.5t32 97.5t27.5 85q-8 -3 -48.5 -21.5t-64.5 -28t-62.5 -23.5t-73.5 -20.5t-67 -6.5q-60 0 -92.5 35t-32.5 97q0 48 40.5 111t102.5 118t146 93t163 38q50 0 81.5 -22t40 -48
t1.5 -47q-5 -16 -17 -27.5t-28 -11.5q-14 0 -28 10z" />
    <glyph glyph-name="H" unicode="H" horiz-adv-x="598" 
d="M-56 317q3 -1 24 -9.5t31.5 -12t31 -9.5t40.5 -8.5t41 -2.5h11q51 163 91 307q1 7 -1 26t1 33t16 20t36 -12t34 -38q4 -7 -6 -46.5t-27 -70.5q-5 -8 -21.5 -19t-19.5 -20q-49 -139 -62 -179q98 5 171.5 36.5t132.5 98.5q14 33 22 73.5t14.5 64t22.5 33.5q13 0 28 -5
t19 -10q4 -6 6.5 -21.5t-0.5 -22.5q-9 -20 -40.5 -81.5t-47 -96t-36.5 -96.5t-33 -124q-8 -59 -2 -82t31 -47q1 -11 -10 -22t-20 -11q-21 1 -40 16.5t-19 36.5q0 50 14 113t25 97t37 106q-53 -43 -129 -71.5t-161 -32.5q-35 -114 -54 -233q-3 -16 -17 -24t-29 -9t-29 14
t-13 22q0 3 4.5 4.5t11.5 3.5t11 5q23 56 74 217q-46 2 -91.5 14.5t-72.5 31.5q-16 12 -18 22.5t4.5 15t13.5 5.5z" />
    <glyph glyph-name="I" unicode="I" horiz-adv-x="300" 
d="M17 -19q14 86 48.5 199.5t78.5 237.5t52 150q1 5 1.5 21t4 23.5t14.5 9.5q14 3 32 -6.5t25 -24.5q9 -20 -28 -89q-7 -12 -19.5 -21.5t-16.5 -16.5q-38 -85 -76 -213t-56 -227q0 -2 -1 -5q-9 -50 -20 -55l-5 -1q-19 -1 -34 18z" />
    <glyph glyph-name="J" unicode="J" horiz-adv-x="571" 
d="M82 635q12 -4 26.5 -8t34.5 -6.5l36 -4.5t43.5 -4l42 -3t48 -3t46.5 -3q3 27 3 51q26 11 38 0t8 -47q0 -5 -1 -7q213 -13 277 -52q17 -11 15 -31q-1 -19 -21 -12l-4 2q-70 48 -274 56q-20 -99 -78.5 -279.5t-93.5 -269.5q-15 -37 -41 -46.5t-60 12.5q-70 47 -114 129
t-44 136q0 35 17.5 72t30.5 37q8 0 9.5 -4.5t-1.5 -12t-7 -16t-7.5 -19t-3.5 -18.5q0 -46 35 -131t85 -117q21 -16 39 -12t31 34q34 77 86.5 232.5t70.5 273.5q-30 0 -78 -0.5t-63 -0.5q-10 0 -17 -5t-14 -5q-35 1 -64.5 12t-43 22.5t-13.5 19.5q0 7 21 28z" />
    <glyph glyph-name="K" unicode="K" horiz-adv-x="595" 
d="M586 524q16 1 26.5 -6t10.5 -15q0 -11 -27 -31.5t-61 -35.5q-32 -15 -80.5 -34l-86 -32.5l-71.5 -26t-35 -12.5q-30 -12 -24 -36q17 -61 106.5 -145.5t184.5 -104.5q4 0 9 2.5t10.5 7.5t7.5 6q16 -2 22 -22q10 -30 -21 -41q-13 -5 -32 -5q-53 0 -127 49.5t-134.5 121
t-80.5 133.5l-122 -268q-8 -18 -8 -34.5t2.5 -26t1.5 -10.5q-32 -2 -44 15.5t3 51.5q145 312 189 451q27 85 30 133q11 22 32 22q6 0 11.5 -13.5t6 -38t-8.5 -60.5q-10 -36 -68 -168q85 28 209 84.5t169 88.5z" />
    <glyph glyph-name="L" unicode="L" horiz-adv-x="472" 
d="M189 622q1 3 9 9t14 6q18 0 26 -14.5t6 -33.5q0 -3 -2 -5.5t-5 -5t-4 -3.5q-34 -42 -90.5 -189t-56.5 -223q0 -65 21 -102.5t59 -37.5q37 0 119 29t90 29q22 0 45 -18q23 -20 10 -41.5t-35 -12.5q-12 29 -58 13q-125 -44 -166 -44q-43 0 -72.5 16t-42 42.5t-17 54
t-1.5 57.5q7 84 37.5 173.5t66.5 173t47 127.5z" />
    <glyph glyph-name="M" unicode="M" horiz-adv-x="793" 
d="M85 163q7 -32 4 -69t-12 -45q-5 -4 -12 -6t-10.5 -1t-5.5 0q-15 -24 -34 -24t-27.5 22t-3.5 35q3 9 68.5 123l148 248.5t117.5 177.5q1 9 6.5 17t9.5 8q18 0 33 -18.5t17 -32.5q2 -16 -5.5 -172t4.5 -195q11 -2 55 44.5l103 110.5t91 89q4 19 15 26q31 18 46.5 -10
t15.5 -75q0 -37 -23.5 -168t-23.5 -133q24 -57 23 -71q-1 -8 -17 -22.5t-23 -14.5q-9 0 -27.5 13.5t-17.5 21.5q1 12 24.5 156t24.5 207q0 13 -2.5 19t-11.5 -1q-4 -5 -61 -67l-110.5 -121t-54.5 -62q-1 -12 -8 -17.5t-14 -5.5q-31 0 -46 16.5t-16 33.5q-3 39 7 185.5
t-1 177.5q-28 -24 -118.5 -170t-127.5 -230z" />
    <glyph glyph-name="N" unicode="N" horiz-adv-x="674" 
d="M155 376q-6 -20 -30 -93.5t-41 -130.5t-15 -69q-1 -21 1.5 -38.5t5.5 -28.5t3 -13q1 -9 -5.5 -11.5t-14 -2.5t-8.5 -1q-8 -16 -41 -16q-12 3 -11.5 38.5t10.5 70.5q1 3 7 4t7 3q11 40 35.5 121.5l44 147t20.5 68.5q6 21 3 37q0 2 -3.5 14.5t-5 22t-1.5 22t6 21.5t17 13
q1 31 11.5 46t23.5 15q9 0 17 -20q12 0 24.5 -7.5t13.5 -13.5q2 -31 -17 -77q-8 -71 60 -188t138 -165q21 -14 31.5 -12t14.5 23q11 56 41.5 159l56 182.5t25.5 82.5q-6 15 -4 38t6 27q19 19 30 19q6 0 23.5 -11t17.5 -16q0 -8 -5.5 -44.5t-8.5 -40.5q-5 -6 -28 -13
q0 -1 -9.5 -32l-21.5 -73.5t-26 -98.5t-25.5 -108t-17.5 -102.5t-3 -80.5q1 -6 5.5 -11t4.5 -9q-1 -6 -8.5 -9t-15.5 -1q-21 -8 -37.5 10.5t-18.5 44.5q-76 56 -145.5 134t-113.5 160q-15 29 -22 15z" />
    <glyph glyph-name="O" unicode="O" horiz-adv-x="497" 
d="M394 454q0 -2 -0.5 -7t-0.5 -7q56 -46 56 -102q0 -34 -26 -92.5t-67 -117.5t-100.5 -101.5t-118.5 -42.5q-42 0 -83.5 48t-41.5 144q0 62 35.5 157.5t97 173.5t121.5 78q36 0 82 -39t46 -92zM312 449q-13 3 -11 15q6 16 31 10q-5 22 -22.5 40t-42.5 18q-28 0 -55 -21.5
t-40 -46.5q-12 -34 -22.5 -52t-25.5 -36.5t-26 -36.5q-12 -22 -27.5 -76t-15.5 -107q0 -55 27.5 -93.5t70.5 -38.5q45 0 103.5 53.5t99 125.5t40.5 123q0 30 -20 62q-20 -47 -57 -90q-16 4 -19 21q-2 9 5 21t16.5 36.5t11.5 60.5q-12 9 -21 12z" />
    <glyph glyph-name="P" unicode="P" horiz-adv-x="563" 
d="M3 665q140 13 263 -2.5t205 -65t82 -124.5q0 -60 -44 -115t-105 -89.5t-121.5 -55t-98.5 -20.5q-10 0 -26 2q-49 -116 -59 -169q-3 -9 0 -19t6 -15.5t1 -6.5q-9 -12 -23.5 -21t-21.5 -8q-6 1 -13 7.5t-12 20t5 34.5q29 64 79 191q-25 17 -25 41q0 29 9.5 53t23.5 22
q3 -4 9 -19t12 -23q55 134 92 197q-3 36 5.5 52t34.5 16q15 0 28 -22t15 -48q-9 -6 -16.5 -14t-12 -14.5t-7.5 -14.5t-4.5 -12.5t-2.5 -10.5l-1 -6q-2 -9 -27 -3q-8 -8 -69 -146q18 -6 44 -6q21 0 53.5 8.5t71 26.5t71.5 43t55.5 63t22.5 81q0 70 -111.5 115.5t-271.5 24.5
q-32 -20 -81 -20q-21 0 -39 15.5t-18 30.5q0 11 22 26z" />
    <glyph glyph-name="Q" unicode="Q" horiz-adv-x="595" 
d="M471 492q0 -20 -17 -46q37 -55 37 -133q0 -40 -23.5 -96.5t-62.5 -108.5l17 -23.5l15 -21.5q23 -32 35 -47t33.5 -35.5t46 -29t54.5 -8.5q18 0 36.5 3.5t30 7.5t30 11.5t25.5 9.5q2 -2 2.5 -6t-2.5 -10t-8 -10q-21 -17 -63.5 -30.5t-77.5 -13.5q-20 0 -39 5t-33 10.5
t-30 19.5l-24.5 21.5t-23.5 27.5t-19.5 26.5t-19 29.5l-16.5 26q-89 -94 -187 -94q-55 0 -95 36.5t-57 87.5t-17 108q0 143 99.5 254.5t211.5 111.5q46 0 94 -26.5t48 -56.5zM302 505q-14 0 -27 -2t-24.5 -6t-18.5 -7.5l-17.5 -9t-13.5 -6.5q-17 -27 -20 -27q-16 -2 -25 1
l-9 -10q-9 -11 -15.5 -20t-17 -25.5t-18 -35t-15.5 -42t-12 -52.5t-4 -60q0 -83 35 -134t94 -51q33 0 76.5 22.5t81.5 60.5q-6 8 -18 20q-19 2 -22.5 14.5t5.5 23.5t20 11q18 0 47 -34q67 86 67 179q0 79 -49 134.5t-100 55.5zM336 533q-3 -1 -3 -5q44 -15 74 -37
q1 18 -21.5 29.5t-49.5 12.5z" />
    <glyph glyph-name="R" unicode="R" horiz-adv-x="616" 
d="M73 459q-18 -12 -44 9.5t-26 47.5q0 29 70 56t171 27q114 0 193 -57t79 -148q0 -152 -171 -242q37 -65 114.5 -127t105.5 -62q18 0 29 11q29 -4 32 -25q4 -21 -26 -30q-12 -3 -27 -3q-46 0 -114 52.5t-114.5 105t-66.5 84.5q-15 21 -1 36.5t45 0.5q57 10 104.5 66
t47.5 123q0 57 -45 100t-117 59q-22 -71 -122 -273.5t-115 -275.5q-7 -16 -33 -16q-13 0 -19.5 19t3.5 38q184 324 236 516q-9 1 -29 1q-66 0 -118 -27.5t-42 -65.5z" />
    <glyph glyph-name="S" unicode="S" horiz-adv-x="393" 
d="M222 583q-15 1 -25 -43t-10 -99q0 -68 21 -246.5t21 -190.5q0 -10 -1 -17t-2.5 -10.5t-4 -5.5t-3.5 -2.5t-4 -0.5l-3 1q-2 0 -1.5 -5t-2.5 -7q-18 -8 -56 -8q-88 0 -152.5 28.5t-83.5 62.5q-7 4 -5.5 44t17.5 59q4 5 7 4.5t3.5 -3.5t-0.5 -6q-11 -24 -10 -53.5t8 -34.5
q78 -63 182 -63q61 0 61 73q0 33 -19 203.5t-19 247.5q0 127 42 127q37 0 52 -21q44 -5 83.5 -52t57.5 -93t18 -66q0 -39 -31 -39q-15 0 -24.5 13t-11.5 31q-5 57 -42.5 114t-61.5 58z" />
    <glyph glyph-name="T" unicode="T" horiz-adv-x="550" 
d="M75 630q20 0 44.5 -3t42.5 -6t52 -11.5t47 -12l55 -15.5t51 -14v12v14v11q12 12 29 12q11 0 20.5 -15t8.5 -32l-2 -16q140 -34 212 -22q4 1 5 -2t0 -6q12 0 18.5 -7t6.5 -17q0 -14 -67 -14q-68 0 -184 25q-12 -53 -78.5 -265t-71.5 -275q0 -4 3.5 -7.5t3.5 -7.5
q0 -8 -10 -17.5t-19 -9.5q-12 0 -22 12t-7 34q6 46 70.5 248.5t78.5 299.5q-196 46 -221 48q-16 2 -28 -2.5t-24 -4.5q-31 0 -36 29q-5 25 13 35z" />
    <glyph glyph-name="U" unicode="U" horiz-adv-x="571" 
d="M142 419q-21 -57 -44 -147t-23 -133q0 -83 30.5 -98.5t82.5 36.5q59 57 138.5 161t109.5 186q2 8 6.5 32.5t9.5 43t9 20.5q26 12 50 1.5t24 -29.5q0 -10 -4 -28t-11 -43.5t-9 -31.5q-3 -14 -15 -12q-55 -137 -55 -236q0 -20 2 -36.5t6.5 -28.5t8.5 -20.5t10 -15t9.5 -10
t8.5 -6.5t6 -4q3 -4 1.5 -12t-12 -16t-23.5 -8q-42 0 -59 87.5t6 184.5q6 25 -2 23q-4 -2 -11 -13q-22 -38 -86 -120.5t-108 -114.5q-18 -23 -41.5 -35.5t-47.5 -10t-43.5 17t-30 49t-6.5 83.5q4 54 20 118.5t42.5 149.5l30.5 98q14 51 14 101q0 9 8 16.5t22 7.5
q16 0 31.5 -12t15.5 -26q0 -8 -6 -33.5l-14 -58.5l-11 -46q-6 -29 -40 -31z" />
    <glyph glyph-name="V" unicode="V" horiz-adv-x="537" 
d="M79 395q-5 -4 -11.5 -14t-11.5 -16t-9 -6q-24 3 -24 21q0 2 10.5 60t10.5 93q0 4 10.5 9.5t20.5 5.5q13 0 31.5 -12.5t21.5 -28.5q6 -39 8 -218.5t18 -226.5q5 -15 39 24q283 344 328 505l5 27t4.5 23t5 15t8.5 11t13 3q14 0 33.5 -9t11.5 -24t-17 -52t-13.5 -87t9.5 -87
q-4 -9 -17 -17t-22 -9q-12 -2 -18 11t-8.5 38t-3.5 28q-26 -50 -149.5 -223t-137.5 -203q-1 -21 -18.5 -38t-32.5 -13q-1 -3 -2 -7.5t-3 -8t-7 -5.5q-16 -6 -42.5 4t-27.5 32q1 2 3.5 4t4 5.5t1.5 11.5q-1 11 -4.5 114t-8 172.5t-9.5 87.5z" />
    <glyph glyph-name="W" unicode="W" horiz-adv-x="713" 
d="M119 505q-8 25 -6 35q2 8 15.5 14.5t24.5 7.5q10 1 20.5 -12t10.5 -29q0 -28 -11 -69t-26 -58q-59 -206 -65 -277q-2 -23 4.5 -24.5t18.5 15.5q65 88 231 379q17 30 27 31q3 0 9 -5t11 -4q7 1 11.5 -4.5t5.5 -15.5q2 -24 -4 -44q-1 -18 -9.5 -107.5t-13 -158.5t-1.5 -103
q3 -35 9.5 -49t15.5 -11.5t24 18.5q68 70 130.5 238t72.5 223q5 92 16 112q10 17 26 18q21 0 29.5 -12.5t-5.5 -37.5q-27 -128 31 -240q4 -8 -3.5 -12.5t-19.5 -0.5q-35 11 -48 79q-2 11 -7 0q-2 -3 -3 -7q-142 -398 -240 -447q-3 -13 -8 -12q-9 1 -27 11.5t-23 22.5
q-12 31 -15 105q-1 31 2.5 83t11 128.5t10.5 118.5q1 10 -0.5 13.5t-4 1.5t-7.5 -10l-63.5 -105l-89.5 -148.5t-58 -90.5q-3 -6 -3.5 -10.5t-1.5 -7.5q-3 -7 -27.5 -29.5t-32.5 -22.5q-7 0 -20 17t-17 27q-1 3 9 10q-2 64 43.5 237.5t40.5 218.5z" />
    <glyph glyph-name="X" unicode="X" horiz-adv-x="535" 
d="M436 435q-40 -11 -189 -151q66 -227 184 -227q13 0 21 9l9 9q14 2 24 -5.5t10 -20.5q0 -14 -17 -24t-49 -10q-45 0 -80.5 18t-61 53t-42.5 73.5t-33 91.5q-96 -92 -181.5 -184t-114.5 -136q-15 -23 -4 -25q30 8 30 -16q0 -10 -9.5 -17t-18.5 -7q-16 0 -36.5 11.5
t-20.5 25.5q0 34 48 91q93 109 294 301l-14.5 57.5t-16.5 62.5l-15.5 53t-20 56t-21.5 45q1 15 7 25.5t14 10.5q19 0 36.5 -15t24.5 -38q9 -28 9 -77q4 -14 14.5 -64.5t18.5 -82.5q200 184 244 184q23 0 39 -14t16 -26q0 -9 -30 -23.5t-40 -15.5q-5 -1 -14.5 0.5t-13.5 1.5z
" />
    <glyph glyph-name="Y" unicode="Y" horiz-adv-x="575" 
d="M198 660q0 7 7 14t14 7q11 0 30.5 -14.5t13.5 -28.5q-39 -94 -66 -116q-5 -2 -6.5 -2t-5.5 2t-7 2q-46 -92 -61 -178q-19 -107 44 -55q34 28 155 142t190 163q5 8 14 2t10 -6q19 -2 28.5 -15t9.5 -31.5t-3 -35t-9 -32.5q-2 -5 -10.5 -6t-12.5 -9q-22 -55 -84 -163
t-110.5 -200.5t-51.5 -136.5q-1 -16 10.5 -21t22 -2.5t12.5 -2.5q0 -14 -15.5 -25.5t-33.5 -11.5q-13 0 -25 8.5t-19 30t8 57.5q18 48 122 242t120 275q2 10 -0.5 13.5t-15.5 -3.5q-53 -38 -165.5 -145t-132.5 -123q-35 -27 -64 -29.5t-38 14.5q-18 25 -1 103
q20 87 67 182.5t59 134.5z" />
    <glyph glyph-name="Z" unicode="Z" horiz-adv-x="537" 
d="M459 552h-12h-17.5h-16.5q-79 3 -164 25t-112 60q-12 18 6 31q24 18 58 -10q7 -7 15 -16q25 -28 140.5 -42.5t193.5 10.5q9 -1 22.5 -13.5t8.5 -19.5q-39 -55 -113 -109q-11 -5 -31 5q-151 -124 -339 -369q-17 -23 2 -35q119 -74 273 -131.5t258 -57.5q83 0 165 22
q7 2 8 -6q-1 -16 -14 -22q-79 -30 -189 -30q-60 0 -126.5 14.5t-144 44.5t-135 56.5l-147.5 70.5q-14 -7 -28.5 -3.5t-22.5 9.5q-1 1 -3 15q-38 19 -38 47q0 6 16 18.5t23 11.5q1 0 6.5 -3t13.5 -6t17 -4q11 -1 26 16q239 280 401 421z" />
    <glyph glyph-name="bracketleft" unicode="[" horiz-adv-x="470" 
d="M269 655q-12 5 -15 -0.5t-6 -26.5q-17 -145 -50 -357.5t-65 -336.5q-6 -23 5 -26t25 2q3 0 36.5 5t61.5 8.5t33 2.5q10 -2 26.5 -15t17.5 -21q2 -10 -13 -20t-39 -5q-30 6 -83.5 -3.5t-94.5 -23.5q-29 -10 -53 8t-24 45q0 23 27 58.5t57 63.5q27 107 62 327.5t35 320.5
q0 14 -10 19q-26 13 -36 39q-2 5 11 14t28.5 15.5t22.5 6.5q16 0 34 -36q7 -14 52 -26q15 -4 45.5 -7t52 -7.5t33.5 -15.5t4.5 -30.5t-28.5 -17.5q-23 2 -73 15t-79 25z" />
    <glyph glyph-name="backslash" unicode="\" horiz-adv-x="468" 
d="M40 691q-3 4 9.5 10.5t20.5 6.5q1 0 8 0.5t12 0.5t11.5 -1.5t11 -6t7.5 -11.5q42 -117 116.5 -375.5t105.5 -345.5q3 -8 14 -4.5t16 -0.5q10 -11 24.5 -40.5t9.5 -42.5q-19 -45 -53 -23q-17 2 -27 63q-29 61 -78 224t-103 318.5t-105 227.5z" />
    <glyph glyph-name="bracketright" unicode="]" horiz-adv-x="456" 
d="M277 642q-53 -11 -106 -0.5t-56 44.5q-1 12 12.5 22t23.5 8q4 -1 5 -8.5t13 -9.5q20 -3 78 8.5t64 11.5q20 0 45.5 -16.5t25.5 -39.5q0 -48 -25 -117q-2 -5 -4.5 -9t-4.5 -6t-6.5 -3t-6.5 -1.5t-8.5 -0.5h-8.5q-26 -99 -50 -301t-16 -290q0 -3 0.5 -9t1 -8t1.5 -5.5t3 -5
t5 -2.5q17 -6 31 -18.5t13 -23.5q-1 -13 -19.5 -23t-35.5 -12q-7 -1 -12 1t-10 7t-7.5 8.5t-7.5 11.5l-7 11q-55 0 -91 -16q-14 -3 -35 2.5t-35.5 15.5t-12.5 18q2 7 10.5 16.5t18 17.5t11.5 11q14 -1 57.5 -8t76.5 -7q5 117 40.5 402.5t37.5 304.5q3 21 -9 19z" />
    <glyph glyph-name="asciicircum" unicode="^" 
d="M80 125q74 114 323 417q7 8 4.5 22t-1.5 15q3 3 20 11.5t23 8.5q21 0 43 -34.5t30 -97.5q1 -7 -4.5 -11t-5.5 -7q6 -44 29 -123t35 -113q3 -8 19 -17t16 -17q0 -5 -18 -23t-25 -20q-14 -5 -32.5 14t-28.5 35q-2 4 0 5q5 0 4 5q-4 66 -33 176.5t-48 141.5
q-53 -48 -120.5 -133.5t-111.5 -152.5q-15 -22 -4 -21q3 0 7 3q7 5 15.5 14.5t10.5 13.5t4.5 3t-0.5 -7l-16 -24q-15 -24 -30 -54t-19 -53q-1 -9 -16.5 -16t-26.5 -7q-22 0 -38 15t-5 31z" />
    <glyph glyph-name="underscore" unicode="_" horiz-adv-x="611" 
d="M5 -108q47 -14 153.5 -15t208.5 3t210 -1q6 -1 13.5 9t10.5 8l8 -4l13 -6.5l14 -7t11.5 -7t4.5 -5.5q-2 -15 -17 -27t-24 -10q-77 17 -187 17q-220 0 -420 -23q-27 -3 -27 48q0 7 10 15t18 6z" />
    <glyph glyph-name="grave" unicode="`" 
d="M266 652q-5 2 -1 18t12 16q9 0 18.5 -7t11.5 -16q16 -5 61.5 -83.5t69.5 -98.5q4 -7 4.5 -15.5t-1.5 -8.5q0 -14 -7 -14q-10 0 -23 10q-18 14 -63 72t-82 127z" />
    <glyph glyph-name="a" unicode="a" horiz-adv-x="519" 
d="M278 317q21 -13 24 -25q31 51 35 59q12 8 32.5 0.5t28.5 -15.5q11 -11 1 -31q-25 -51 -38 -54q-28 -60 -37 -116q-10 -59 5 -74.5t61 8.5q53 28 131.5 89.5t117.5 110.5q13 0 17.5 -7t1 -17t-13.5 -20q-56 -54 -146 -125t-142 -94q-14 -6 -30 -7t-32.5 5t-25.5 27.5
t-7 56.5q2 29 29 122q2 7 -1 7q-2 -1 -4 -4q-4 -7 -25.5 -38.5t-55 -76t-56.5 -70.5q-24 -27 -54 -30t-49.5 21.5t-15.5 68.5q10 107 64 177.5t102 70.5t83 -19zM112 51q30 22 78 81.5t94 130.5h-6q-4 0 -27 14.5t-49 14.5q-22 0 -42 -20q-65 -65 -76 -182q-5 -48 10 -48
q8 1 18 9z" />
    <glyph glyph-name="b" unicode="b" horiz-adv-x="478" 
d="M40 287q52 2 74 2q19 63 42.5 134t40.5 116.5l33.5 90t17.5 47.5q15 43 7 51q1 22 35 20q8 -1 18 -25t10 -39q0 -17 -22 -53q-7 -11 -12 0q-9 -9 -22 -37q-60 -125 -113 -304h48q172 0 172 -104q0 -7 -2 -23q103 70 227 123q17 7 30 -0.5t13 -17.5q0 -3 -5 -5.5t-20 -8
t-28 -11.5q-152 -70 -228 -125q-27 -68 -120 -129q-30 -20 -56 -22.5t-39 5.5t-13 18q0 14 19 24q21 9 44.5 23t38 24.5l46.5 34.5l46 35l6 34q6 46 -25 61t-87 12q-8 0 -37 -2t-46 -3q-32 -122 -38 -214q-2 -26 5 -53t7 -28q-2 -4 -11.5 -8t-20.5 -6t-20 3.5t-9 18.5
q0 105 51 285q-21 0 -29 1q-20 1 -32 20t4 35z" />
    <glyph glyph-name="c" unicode="c" horiz-adv-x="361" 
d="M235 271q-36 6 -85.5 -50.5t-61.5 -118.5q-11 -59 10 -81t70 -5l28.5 11.5l29 12.5t31.5 16.5l29.5 17t32 20l30 19.5t31.5 21l28 19t28.5 20t25.5 18q7 3 6 -4q0 -9 -9 -17q-61 -54 -151 -115.5t-146 -75.5q-5 -2 -3 -4.5t-1 -3.5q-65 -20 -101.5 22.5t-24.5 111.5
q19 112 114 186q4 3 4 9.5t5 9.5q35 23 64.5 28t37.5 -9q2 -2 7 1t8 1q38 -24 38 -50q0 -15 -10 -26t-24 -11q-35 0 -41 27z" />
    <glyph glyph-name="d" unicode="d" horiz-adv-x="571" 
d="M295 281q81 94 133 171l72 183l12.5 28l12.5 28l10.5 22.5t11.5 17t11 5.5q31 0 29 -35q16 0 0 -41q-55 -141 -137 -241q-51 -150 -63 -264q-10 -92 19 -125.5t87 -6.5q29 13 61 41t50 49t18 24q8 4 14 1t10 -11t-2 -17q-64 -74 -139 -118q-32 -19 -61.5 -21t-52.5 13
t-36 53t-10 95q4 82 48 219q-34 -45 -78 -97q11 -23 8 -46q0 -2 0.5 -2.5t2 0t3 -1.5t1.5 -8q1 -28 -19.5 -44.5t-37.5 -9.5q-11 4 -13 24q9 21 10 37q-51 -60 -111 -121q-26 -51 -83 -76q-38 -16 -59.5 1t-20 50t12.5 65q42 94 102 140.5t106 46.5q47 0 78 -28zM139 113
q73 73 126 133q-13 26 -41 26q-46 0 -95.5 -52.5t-70.5 -96.5q-32 -76 -1 -70q26 4 82 60z" />
    <glyph glyph-name="e" unicode="e" horiz-adv-x="383" 
d="M481 244q10 1 16 -2.5t-2 -16.5q-24 -29 -59.5 -62.5t-86 -73.5t-111 -68.5t-115.5 -32.5q-35 -10 -57.5 -3t-34.5 28.5t-16.5 43.5t-2.5 43q6 73 56.5 145t122.5 119q12 8 27 -1q3 -2 7.5 2t8.5 4q15 0 34 -32t21 -58q1 -23 -16 -38l-1 -7q-1 -8 -5 -13
q-63 -77 -196 -150q3 -26 18 -35.5t39.5 -6.5t65.5 17q68 22 145.5 74.5t141.5 123.5zM212 316q-36 0 -84 -65t-57 -138q57 27 117 80.5t61 95.5q0 7 -15 17t-22 10z" />
    <glyph glyph-name="f" unicode="f" horiz-adv-x="337" 
d="M223 335q54 86 76.5 184t12.5 163q-24 -10 -44.5 -36t-38.5 -69t-29 -77.5t-27 -91.5q-17 -57 -38 -169h33q134 0 286 54q6 -1 9.5 -4.5t1 -10t-12.5 -13.5q-49 -31 -140.5 -50.5t-172.5 -21.5q-2 0 -6.5 -0.5t-6.5 -0.5q-17 -94 -38 -239.5t-33.5 -223.5t-19.5 -81
q-12 -2 -25 -10t-21 -8q-25 0 -51 22.5t-46.5 57.5t-35 66t-23.5 58q13 6 18 -5q11 -30 41 -72t53 -59q23 -19 41.5 -15.5t29.5 37.5q1 3 -1 3q-1 1 -1 3q10 51 36 216.5t41 250.5q-23 1 -54 4t-39.5 3t-26.5 -3q-21 14 -25.5 29t4 24t23.5 9q17 0 55.5 -7.5t71.5 -10.5
q47 253 91 342q5 11 5.5 22t4.5 20q30 71 50.5 102t43.5 31q24 0 40 -35.5t15 -90.5q-1 -62 -16 -134.5t-38 -118.5q-27 -54 -73 -44z" />
    <glyph glyph-name="g" unicode="g" horiz-adv-x="442" 
d="M-204 -250q3 1 10 -7.5l21.5 -25t34.5 -34t56 -35t81 -27.5q85 -20 145 45q72 78 112 238.5t51 328.5q1 16 -1 21.5t-7 1t-13 -18.5l-26.5 -49.5t-29.5 -53.5t-31 -46t-46 -56q-6 -5 -12.5 -5.5t-11.5 -5.5q-34 -30 -73 -5.5t-39 72.5q0 91 73.5 162t154.5 91
q48 36 66 33q6 -2 10 -4q12 9 24 9q26 0 22 -55q-16 -233 -58 -403t-129 -269q-42 -48 -99.5 -62.5t-90.5 9.5q-9 6 -11.5 3t-15.5 1q-148 61 -167 147zM196 286q-52 -36 -88 -95.5t-38 -115.5q-1 -19 16 -19q19 -1 39 23q52 39 128 183q7 14 4.5 20t-14.5 4q-19 -2 -47 0z
" />
    <glyph glyph-name="h" unicode="h" horiz-adv-x="536" 
d="M180 583q9 12 25 12q9 0 27.5 -12.5t17.5 -22.5q-2 -20 -22.5 -71.5t-24.5 -64.5q-2 -6 -4.5 -8.5t-4 -2.5t-6.5 1t-7 1q-19 -43 -45 -143t-43 -184q-1 -7 1.5 -12t7 -4.5t7.5 3.5q54 69 136 155.5t92 86.5q9 0 22.5 -6t18.5 -11q6 -7 8 -28.5t7 -28.5q4 -10 -14.5 -103
t-10.5 -114q101 58 255 227q7 2 13 -3t6 -12.5t-8 -16.5q-23 -21 -90 -94t-118.5 -117.5t-83.5 -45.5q-10 0 -18.5 18t-3.5 42q-11 18 5.5 113.5t7.5 112.5q-56 -15 -182 -184q-7 -44 -35 -70q-11 -10 -24 -10q-3 0 -13.5 -10t-14.5 -10q-14 0 -21 22q-1 5 2 26
q13 112 46.5 228.5l60 202t28.5 138.5z" />
    <glyph glyph-name="i" unicode="i" horiz-adv-x="310" 
d="M89 351q10 10 23.5 11t17.5 -5q3 -4 1.5 -11t1.5 -8q20 -14 17 -51q1 -24 -35 -109t-45 -118q-8 -28 -2.5 -43t25.5 -10q65 30 150.5 97.5t139.5 126.5q12 4 13 -9q0 -9 -9 -21q-47 -58 -159 -146.5t-143 -89.5q-27 -13 -48.5 3.5t-15.5 43.5q-8 28 37 169.5t31 169.5z
M223 534q-21 -4 -42.5 11t-20.5 35t68 27q14 -14 14 -21q0 -10 -5.5 -30.5t-13.5 -21.5z" />
    <glyph glyph-name="j" unicode="j" horiz-adv-x="380" 
d="M193 379q11 4 34.5 -9t21.5 -24q-11 -55 -61 -202q18 2 113.5 10t152.5 17q22 -22 -8 -34q-21 -8 -62 -12t-104 -7.5t-104 -7.5q-84 -255 -128 -474q-6 -26 -54 -29q-4 0 -6.5 1t-3.5 3t-3 5.5t-4 5.5q-52 10 -91 76.5t-39 149.5q0 113 43 176t161 96q54 14 96 19
q34 141 41 208q-12 26 5 32zM31 -273q69 226 107 378q-56 -9 -98.5 -23t-81 -39.5t-59.5 -67t-21 -96.5q0 -79 26 -142t75 -94q30 13 52 84zM318 567q-21 -4 -46 16.5t-24 40.5q1 18 43 22q38 -38 38 -49q0 -28 -11 -30z" />
    <glyph glyph-name="k" unicode="k" horiz-adv-x="589" 
d="M299 664q33 9 49.5 -18.5t1.5 -55.5q-21 -40 -69.5 -99t-77.5 -82q-31 -48 -66 -143t-45 -141q-7 -35 -4 -55t14 -22q23 20 59.5 62l69.5 81.5t87 89t112 86.5q18 -1 35 -12.5t19 -22.5q5 -23 -15 -38q-22 -33 -62.5 -73l-67 -68t-26.5 -44q0 -22 37.5 -63t89.5 -38
q56 9 116 57.5t67 66.5q5 22 16 15q13 -8 5 -27q-1 -3 -3 -6q-33 -49 -96 -93.5t-116 -50.5q-56 -6 -121.5 50t-78.5 123q-19 -24 -51 -70t-50 -68q-17 -18 -41 -17.5t-39 13.5q0 10 -3.5 17t-3.5 10q-5 92 71.5 274t186.5 362zM369 283q-64 -52 -113 -106q2 -1 8.5 -5.5
t9 -3.5t12.5 4q14 9 49.5 47t46.5 56q6 10 2 13t-15 -5z" />
    <glyph glyph-name="l" unicode="l" horiz-adv-x="309" 
d="M223 638q29 13 41 -3q15 -4 14.5 -27.5t-19.5 -33.5q-6 -12 -14 -33t-14.5 -36.5t-14 -31.5t-15.5 -24.5t-17 -8.5q-75 -184 -89 -351q-1 -20 -1 -38.5t10.5 -29.5t30.5 -6q43 11 122.5 82t137.5 142q13 4 12 -10q-1 -9 -8 -20q-44 -67 -130.5 -148t-131.5 -90
q-34 -7 -55.5 3.5t-27 29.5t-7 39.5t3.5 34.5q-1 80 60.5 266t111.5 294z" />
    <glyph glyph-name="m" unicode="m" horiz-adv-x="663" 
d="M152 400q12 3 36 -9.5t24 -31.5q0 -3 -18 -50q-10 -7 -22 -23.5t-25 -43t-22 -47l-23.5 -54l-19.5 -45.5q-8 -18 -1 -17q3 0 7 7q8 16 78 114.5t99 131.5q6 8 11 9q6 1 16 -1.5t22 -10.5t20 -28t7 -49q0 -5 -2 -8t-2 -9q0 -4 -2 -52t-2 -60q0 -18 10 -4q6 8 30 43
t36.5 51.5t32.5 40.5t36 39q6 5 10.5 7.5t7 3t7.5 0.5t8 1q17 2 29 -18t11 -30q0 -1 -2.5 -9.5t1.5 -9.5q8 -15 6 -27q-3 -17 -9 -82.5t-4 -90.5q1 -17 8 -20t20 4q40 21 82 63q19 -8 -5 -35q-71 -79 -107 -79q-19 0 -33.5 13t-11.5 44q1 2 3 2t2 2q-3 22 1.5 81.5t6.5 95
t-8 53.5q-48 -51 -79.5 -105t-45 -85t-22.5 -36q-1 -1 -14 0t-27 -10q-9 4 -13.5 6.5t-12 10t-5.5 17t5 26.5q-3 17 1.5 100.5t-5.5 102.5q-31 -10 -97 -105t-103 -196q0 -10 -7 -14t-18 3q-17 -11 -36.5 3t-0.5 37q6 44 62.5 192t68.5 191z" />
    <glyph glyph-name="n" unicode="n" horiz-adv-x="556" 
d="M148 357q8 2 22.5 2.5t19.5 -0.5q4 -1 7.5 -14.5t1.5 -20.5q-1 -3 -1.5 -4t-1.5 -0.5t-3 -0.5t-5 -4q-100 -233 -87 -254q11 12 57.5 71t99 115.5t101.5 88.5q9 6 34 11q28 6 35.5 -25.5t-12.5 -76.5q-1 -2 -7 -8t-4 -11q-3 -13 -14 -46.5t-18.5 -64.5t-6.5 -54
q2 -35 30 -23q54 24 131 89.5t132 127.5q5 -2 9 -10.5t0 -14.5q-58 -71 -136.5 -140t-131.5 -94q-44 -19 -69 -7.5t-27 44.5q-1 7 2.5 10.5t3.5 8.5q-6 24 24 111t35 116q2 14 -13 6q-4 -2 -9 -5q-22 -14 -42.5 -30.5t-41.5 -41.5l-34 -40t-35.5 -48.5l-29 -43t-30 -48.5
t-24.5 -41q-4 -9 -30.5 -9t-28.5 16q-9 4 -11.5 28.5t2.5 44.5q15 65 45 149t61 141z" />
    <glyph glyph-name="o" unicode="o" horiz-adv-x="415" 
d="M119 336q0 13 22 19t43 6q12 0 19 -26q27 -1 69.5 -19.5t64.5 -35.5q25 -18 39.5 -42t9.5 -45q-5 -22 -68 -89t-106 -100q-51 -38 -100 -24q-79 23 -55 137q2 10 32 85.5t30 133.5zM281 272q-65 -4 -85 4l-15 -23t-20 -32.5l-19.5 -35t-19 -40.5t-12.5 -39.5t-5.5 -41.5
t7.5 -37q14 -37 89 22q90 76 119 137q12 23 1.5 49t-40.5 37z" />
    <glyph glyph-name="p" unicode="p" horiz-adv-x="535" 
d="M394 139q127 100 257 165q21 8 36.5 3t17.5 -16q2 -12 -4 -19t-27 -13q-102 -27 -295 -171q-25 -81 -46 -105q-13 -13 -50 -9q-3 -4 -7 -7q-19 -8 -28.5 7t1.5 30q24 30 68 71q43 139 44 206q1 23 -8.5 25.5t-31.5 -16.5q-58 -49 -169.5 -253.5t-154.5 -357.5
q-2 -7 -2 -21t-1 -19q-4 -18 -17.5 -31t-29.5 -16q-12 -2 -25 9t-7 28q107 286 207 692q1 4 4.5 6t6.5 1.5l9 -1.5t7 -1q12 0 26 -14t8 -38q-3 -16 -29 -82l-54 -134.5t-31 -76.5q-5 -18 -1 -17q4 2 14 17q6 10 27.5 50l38 69.5l42 73t48 74.5t47 60.5t47.5 44.5t41 13
q12 0 29 -25.5t18 -57.5q0 -47 -26 -144z" />
    <glyph glyph-name="q" unicode="q" horiz-adv-x="472" 
d="M167 337q27 -3 32 -4q7 -2 16.5 -16t6.5 -22q-3 -7 -29.5 -27t-33.5 -24q-3 -1 -9 3.5t-10 3.5q-25 -19 -59.5 -82t-38.5 -104q-1 -18 7 -19t22 11q35 26 95.5 105t74.5 131q1 14 22 14q4 0 10 -4t13 -10l6 -6q2 -2 1 -6t-0.5 -7.5t4.5 -3.5q8 0 23.5 -32t13.5 -55
q0 -5 -6 -12.5t-8 -14.5l-15 -68l-29 -129t-16 -68q-4 -13 1 -13q4 -1 10 10q48 81 124 179t127 156.5t57 62.5q7 5 24 5.5t29 -6.5q2 -2 2.5 -10.5t-1.5 -15.5q-65 -41 -148 -135.5t-160 -223t-106 -240.5q-1 -5 -11.5 -7.5t-16.5 -1.5q-3 0 -2 -4t0.5 -10t-5.5 -7
q-10 -3 -27 6.5t-17 23.5q0 5 34.5 102t69 219t34.5 186q0 63 -17 74q-2 1 -2.5 -1t-1 -5t-1.5 -4q-8 -10 -39.5 -53l-53 -71.5t-51 -62.5t-49.5 -51q-45 -27 -67 -20t-22 37q0 36 20 69q1 40 59.5 125t113.5 133z" />
    <glyph glyph-name="r" unicode="r" horiz-adv-x="418" 
d="M126 333q-9 2 -9 21q0 5 9 10t17 5t25 -9.5t21 -17.5q4 -10 -4 -37.5t-24.5 -72.5t-23.5 -67q-2 -7 1 -8.5t7 4.5q33 40 121 107.5t121 67.5q15 0 35.5 -24t20.5 -45q0 -20 -14.5 -32t-31.5 -9q-8 2 -19.5 22t-17.5 21q-42 -6 -112 -62.5t-126 -120.5q-4 -7 -16.5 -43.5
t-19.5 -47.5q-7 1 -17 -5t-12 -6q-7 1 -17.5 13t-6.5 22q86 202 93 314z" />
    <glyph glyph-name="s" unicode="s" horiz-adv-x="344" 
d="M-11 67q29 -18 76 -30.5t84 -12.5q62 0 76 19q10 13 -8 28q-3 3 -59.5 46t-85.5 75q-24 3 -28 41.5t16 49.5l81 48.5t76 36.5t78 20q12 0 19 -7q10 -9 16 -26t6 -28q0 -9 -3.5 -13t-10.5 1q-32 4 -102 -26t-106 -57q-4 -25 24.5 -51t73 -55t60.5 -47q23 -28 21 -49
t-23 -31q-43 -21 -98.5 -15t-106 26t-81.5 45q-11 9 -4 13q4 2 9 -1z" />
    <glyph glyph-name="t" unicode="t" horiz-adv-x="303" 
d="M467 451q-74 5 -229 -11q-34 -70 -45 -101q-2 -5 -8 -5.5t-9 -5.5q-30 -58 -57 -139t-36 -152q-2 -13 0 -16.5t14 0.5q62 28 172 118.5t170 167.5q12 -2 18.5 -11.5t-4.5 -24.5q-77 -78 -175.5 -164.5t-162.5 -125.5q-9 -6 -22.5 -10t-27.5 -5.5t-22.5 6t-6.5 23.5
q5 105 138 438q-116 -15 -168 -35q-40 -48 -50 -52q-4 -2 -11 8t-11.5 24.5t-3.5 24.5q2 19 19.5 27t74.5 19q62 11 165 21l70 171q22 1 38 -15t13 -36t-22 -37q-15 -43 -33 -78q111 7 211 7q19 0 3 -28q-2 -2 -2 -3z" />
    <glyph glyph-name="u" unicode="u" horiz-adv-x="567" 
d="M132 338q28 15 48.5 -12t15.5 -43q-8 -26 -45 -63q-17 -22 -34.5 -79.5t-19.5 -95.5q-1 -13 6.5 -15t26.5 6q40 15 101.5 74.5t85.5 112.5q-2 8 2.5 17.5t12.5 10.5q14 2 34 -3q6 -2 12 -19.5t4 -30.5q0 -2 -3 -3.5t-7 -3t-6 -3.5q-4 -22 -8 -56t-3.5 -72t11.5 -43
q27 -13 141.5 71t158.5 139q8 -1 8 -9t-8 -17q-67 -81 -168 -155t-134 -72q-4 3 -9.5 3t-8.5 2q-28 16 -39 49t-8.5 62t10.5 58q2 7 -1 6q-1 0 -4 -4q-41 -53 -91 -105.5t-76 -65.5q-29 -14 -39 -7q-3 2 -13.5 -4t-20.5 -3q-16 5 -24.5 23t-0.5 47q0 25 17 80.5t42.5 126
t33.5 96.5z" />
    <glyph glyph-name="v" unicode="v" horiz-adv-x="435" 
d="M28 364q5 5 26.5 -1t41 -19t18.5 -25q-1 -13 -21.5 -46.5t-20.5 -46.5q1 -4 4 -30t5 -36.5l6.5 -34.5t9.5 -38.5t13 -33t18 -32.5q11 -16 24 9q78 147 140 227.5t92 80.5q25 0 35 -39q51 -44 50 -50q-3 -20 -28 -20q-1 0 -8 5t-18.5 14t-19.5 14q-25 17 -55 -16
q-28 -30 -77.5 -102.5t-73.5 -133.5q-2 -39 -62 -39q-38 0 -66.5 75.5t-33.5 196.5l-6 29q-7 28 -6 53t13 39z" />
    <glyph glyph-name="w" unicode="w" horiz-adv-x="595" 
d="M116 242q-1 2 -4 4.5t-5 5.5t-2 7q-3 28 11.5 70.5t37.5 42.5q6 0 16.5 -12t17.5 -32q9 -5 2 -22q0 -1 -10.5 -21.5t-17 -40.5t-7.5 -39q0 -3 -4 -2.5t-5 -3.5q-21 -70 -26 -155q0 -7 2 -9t5.5 0t6.5 6q92 111 148 245q-1 12 4.5 18.5t14.5 6.5q8 0 18.5 -7.5t11.5 -17.5
l10.5 -8.5t4.5 -5.5q-9 -18 -7 -30q6 -50 22.5 -103.5t43.5 -76.5q8 -7 12 -9.5t9.5 0t10.5 13.5q29 58 33 144t-3 143q2 15 15 15q10 0 22 -8t13 -23q5 -205 -48 -306q-6 -3 -13 -11.5t-14 -12.5t-18 -1q-38 9 -70.5 65.5t-47.5 123.5q-5 25 -18 4q-11 -17 -65 -107.5
t-75 -120.5q-1 -6 -14 -0.5t-16 4.5q-15 -10 -24.5 -1t-11.5 23q-8 42 2 114.5t32 130.5z" />
    <glyph glyph-name="x" unicode="x" horiz-adv-x="453" 
d="M394 373q5 2 25.5 2t21.5 -3q1 -5 -0.5 -18.5t-7.5 -14.5q-47 -5 -133 -57q-3 -3 -5.5 0t-8.5 1q-21 -3 -98 -112q57 -78 103 -83q22 -2 40.5 1t23.5 5.5t21 11.5q5 3 10 -3.5t1 -10.5q-2 -2 -5 -3.5t-5.5 -3t-2.5 -5.5q-1 -10 -20 -20t-37 -11q-87 -4 -157 81
q-48 -71 -79 -129q-1 -8 0 -23t-1 -29q-2 -4 -12 -9.5t-18 -5.5q-9 -9 -24 -9q-10 -1 -17.5 11t-7.5 22l134 203q-42 54 -69 81q-10 10 -13 22.5t0.5 20.5t11.5 8q27 0 28 -10q22 -2 72 -78q60 88 108 133.5t95 45.5q6 0 14.5 -6t11.5 -5z" />
    <glyph glyph-name="y" unicode="y" horiz-adv-x="524" 
d="M131 334q7 14 34 9q11 -2 20 -10t2 -20q-3 -6 -25 -46l-34 -63t-26.5 -62t-20.5 -71q-3 -17 -0.5 -21t7.5 -2t11 9q29 36 111 122t106 86q30 0 46.5 -70.5t9.5 -160.5q31 21 58 23q19 0 33 -13t16 -33q2 -13 -4 -24t-15 -14q-2 -3 -8.5 -1t-8.5 3t-9.5 6t-12.5 8
q-23 -2 -59 -30q-20 -100 -60 -205.5t-79 -142.5q-12 -12 -26.5 1t-18.5 34q-14 66 32 171t114 176q14 109 -4 195q-7 28 -33 10q-38 -26 -75 -70t-60 -80.5t-48 -65t-44 -30.5q-17 -2 -30.5 13t-12.5 34q0 4 3 11.5t3 11.5q10 111 108 312zM232 -307q50 94 77 215
q-87 -102 -90 -210q0 -9 1 -13.5t4.5 -2t7.5 10.5z" />
    <glyph glyph-name="z" unicode="z" horiz-adv-x="436" 
d="M41 299q31 2 115 19t103 17q53 0 85 -22q13 -21 7.5 -52t-32.5 -51q-4 -48 -242 -190q-16 -12 0 -10q28 2 89.5 9.5t88.5 10t58 -0.5q5 -1 12 1.5t10 2.5q35 0 55.5 -9t20.5 -20q0 -10 -8.5 -22t-17.5 -17q-2 0 -25.5 15t-50.5 15q-47 0 -149.5 -16.5t-132.5 -8.5
q-12 -12 -19 -12q-10 0 -26 12t-16 28q0 12 7.5 17t29.5 6q58 29 84 43t74.5 46.5t96.5 73.5q22 19 37.5 43.5t15.5 38.5q0 9 -10.5 17.5t-23.5 7.5q-44 -5 -105 -23.5t-81 -21.5q-27 -4 -50 14.5t0 38.5z" />
    <glyph glyph-name="braceleft" unicode="{" horiz-adv-x="470" 
d="M283 706q-43 7 -43 -104q0 -31 8.5 -86.5t8.5 -105.5q0 -35 -7.5 -65.5t-7.5 -34.5q0 -8 13 -23t13 -29t-32.5 -85t-65 -154.5t-32.5 -129.5q0 -23 24.5 -29.5t38.5 1.5q9 3 12.5 -5.5t2.5 -16.5t-10 -20t-18 -12q-27 0 -61.5 19t-34.5 42q0 54 27.5 128t57.5 143t34 104
q2 21 -7 23q-3 0 -12.5 -2t-13.5 -1q-7 1 -22 14.5t-14 22.5q1 7 23 16t28 15q24 25 24 88q0 35 -13.5 123t-13.5 129q0 30 24.5 57.5t47.5 27.5q20 0 46 -19.5t29 -30.5q3 -10 -6 -15.5t-19 -5.5q-6 0 -14.5 10t-14.5 11z" />
    <glyph glyph-name="bar" unicode="|" horiz-adv-x="723" 
d="M399 -151q1 -6 -9.5 -18.5t-20.5 -12.5q-12 0 -25.5 8.5t-13.5 26.5q-2 150 35.5 449t39.5 370q1 9 -6 12.5t-9 7.5q-4 7 -2.5 44t11.5 48q10 10 31.5 4.5t37.5 -20.5q3 -2 4 -7t-0.5 -14t-4 -17.5t-6 -22t-5.5 -24.5q-4 -32 -19.5 -131t-27 -184t-21.5 -187.5
t-7.5 -189.5t18.5 -142z" />
    <glyph glyph-name="braceright" unicode="}" horiz-adv-x="409" 
d="M162 -142q48 -8 48 108q0 78 -17.5 158t-17.5 88q0 20 4 33t9 17t9 8.5t4 10.5q0 9 -6 18t-6 23t26.5 74t53 132.5t26.5 118.5q0 35 -21.5 52t-57.5 5q-9 -3 -12.5 5.5t-2.5 16.5q3 24 28 24q15 0 30 -3t33.5 -12t30.5 -29t12 -49q0 -55 -22.5 -120t-47.5 -120.5
t-28 -81.5q-1 -12 7 -21t14 -10q2 0 24 -7t26 -8q6 -1 10 -12.5t2 -21.5q-1 -5 -16 -5h-33t-23 -6l-6.5 -6.5t-5 -5.5t-3 -4.5t-3 -5.5t-1.5 -6.5t-1 -9.5v-13q0 -26 12.5 -100.5t12.5 -158.5q0 -16 -1 -28.5t-6 -31t-14.5 -30t-27.5 -19t-43 -5.5q-20 0 -35 10.5t-18 21.5
q-3 10 6 15.5t19 5.5q6 0 14.5 -7t14.5 -8z" />
    <glyph glyph-name="asciitilde" unicode="~" horiz-adv-x="834" 
d="M179 242q-46 18 -32 53q17 44 76.5 111.5t91.5 67.5q34 0 65 -37.5t50 -82t43.5 -82t48.5 -37.5q77 0 149 89q23 49 40 49q10 0 25 -7.5t16 -16.5q1 -17 -20 -46q-2 -3 -8 -1.5t-11 -1.5q-105 -120 -190 -120q-31 0 -58.5 24t-45.5 58t-34 67.5t-31.5 57.5t-30.5 24
q-24 0 -73 -55.5t-71 -113.5z" />
    <glyph glyph-name="exclamdown" unicode="&#xa1;" horiz-adv-x="513" 
d="M109 -281q128 259 147 373q3 14 20 9.5t21 -16.5q-10 -57 -33 -129t-55.5 -159.5t-42.5 -117.5q-10 -13 -23 -9q-29 -2 -41 12t7 37zM272 292q-6 32 4 49.5t26 19.5q15 2 34 -9t20 -23q4 -6 2.5 -26t-21.5 -24q-38 -7 -65 13z" />
    <glyph glyph-name="cent" unicode="&#xa2;" horiz-adv-x="361" 
d="M256 302q-2 0 -6.5 -0.5t-6.5 -0.5q-57 -193 -67 -298h18q77 0 182 74q6 4 5 -5q-1 -16 -8 -22q-2 -1 1 -4t-2 -6q-2 -1 -19 -11t-25.5 -14.5t-29 -13.5t-37 -14t-40 -9t-47.5 -5q-7 -111 26 -190q2 -4 -6.5 -9.5t-17.5 -5.5q-15 0 -25 48t-10 97q0 41 2 61
q-49 6 -81.5 39.5t-32.5 84.5q0 82 60 159t129 87q15 54 27 105q0 1 -1 13.5t4 24t20 22.5q16 13 29 -13q15 -30 -2 -53q-5 -7 -14 -11l-25 -90q29 -10 53.5 -39t24.5 -51q0 -9 -12.5 -15t-23.5 -6q-12 0 -31 22q-4 5 -2 16t0.5 22t-9.5 11zM146 9q11 109 56 279
q-51 -26 -90 -83t-39 -103q0 -74 73 -93z" />
    <glyph glyph-name="sterling" unicode="&#xa3;" horiz-adv-x="636" 
d="M36 266q32 4 124 -6.5t137 -11.5l42.5 160l38 147t16.5 66q23 93 52 93q14 0 24.5 -21t14.5 -46q3 -76 -24 -163t-56.5 -139t-40.5 -52q-8 0 -16 12l-16 -57q33 0 77.5 3t76.5 6t37 3q16 0 16 -12q0 -18 -10 -20q-130 -18 -209 -20q-38 -136 -63 -217q52 -8 143 -15
q5 0 3 13t-4 24.5t7 13.5q9 0 34.5 -21.5t25.5 -35.5q0 -18 -15.5 -33t-36.5 -14q-49 4 -172 23q-13 -41 -26 -73q-17 -20 -56 -25q-9 0 -29 24q-17 21 -49 73.5t-45 70.5q-7 10 -4 19.5t13.5 12t25.5 -5.5q51 -28 148 -45q26 69 66 211q-39 1 -134 4.5t-103 3.5
q-12 2 -20 12t-7 17q2 20 14 21zM159 -88q8 -6 18 5t23 36q-11 2 -27 4.5t-26.5 4.5t-17.5 3q9 -40 30 -53zM396 472l-31 -107q6 0 11 7q24 38 31 75q4 23 -7 26q-2 0 -4 -1z" />
    <glyph glyph-name="currency" unicode="&#xa4;" 
d="M506 542q9 0 27 -11t18 -21q0 -9 -18.5 -26t-33.5 -28q-5 -3 -14 -1.5t-11 -1.5l-38 -50q-6 -12 1 -22q31 -41 31 -82q0 -59 -39 -91q-5 -4 -12 -4q-1 0 -2.5 -2t1.5 -3q2 -1 21.5 -20l44.5 -42t38 -31q4 -3 4.5 -8t3.5 -9q17 -19 17 -26t-14 -7q-17 0 -27 12
q-4 5 -18.5 18l-37 33.5t-39.5 37.5q-16 16 -34 8q-33 -14 -47 -16q-5 -1 -9.5 -4t-7.5 -3t-5 3t-6 2q-2 0 -14.5 -5t-19.5 -5q-5 0 -14.5 4t-16.5 6.5t-9 0.5q-9 -10 -29.5 -47t-25.5 -42q-33 -33 -47 -33q-5 0 -14 1t-12 1q-5 0 -9 6.5t-4 12.5q0 4 2.5 6.5t8 7t8.5 6.5
q12 11 46.5 46.5t37.5 43.5q2 5 5.5 8.5l4 4t-0.5 3.5q-25 28 -25 76q0 61 24 92q9 11 1 18q-2 2 -26.5 20.5l-48 36.5t-25.5 21q-1 2 -8.5 10t-12.5 15t-5 11q0 8 5 22t11 15q13 4 20 -1t18 -20q4 -5 10 -5t16 -9q5 -5 22.5 -25.5l31.5 -35.5t18 -16q9 -3 19 1q6 3 8 7t6 4
q3 0 7 1t7 1t3 3q0 2 2 3q18 9 52 9q44 0 68 -15q1 1 17 19l33 38l25 30q3 3 5 14t5 17q1 3 10 7.5t16 4.5zM323 368q-12 0 -28 -4q-4 -1 -6 -8q-1 -4 -7.5 -3t-10.5 -2q-42 -42 -42 -89q0 -38 38 -63q2 -2 4.5 -0.5t3.5 1.5q12 -4 15 -4q44 0 80 28.5t36 67.5
q0 33 -24.5 54.5t-58.5 21.5z" />
    <glyph glyph-name="yen" unicode="&#xa5;" horiz-adv-x="548" 
d="M108 468q-5 -5 -10 -2.5t-2 9.5q5 11 12 58t4 87q-1 25 34 25q8 0 15 -22t7 -42q0 -12 -8 -70t-8 -72q0 -20 12 -42t22 -22q46 0 74 17t59 53q14 15 51.5 70t44.5 71q3 6 4 11t1 7v3.5t1 2.5t3 2q29 14 44 6q9 -5 22.5 -31t6.5 -33q-6 -6 -35.5 -32t-53 -49t-56.5 -65.5
t-58 -88.5q85 -6 152 -16q11 -2 11.5 -26.5t-12.5 -24.5q-9 0 -18.5 9.5t-20.5 10.5q-44 4 -132 7l-18 -43q80 4 156 4q21 0 21 -14q0 -13 -13.5 -20t-30.5 2q-60 -5 -147 -16q-23 -79 -29 -174q-3 -52 13 -88.5t46 -40.5q12 -2 5 -15q-5 -10 -15 -10q-39 0 -64 44t-25 101
q0 86 29 178q-58 -7 -117 -16q-9 -2 -18 7t-11 18.5t3 14.5q24 16 160 23q7 20 20 46q-115 3 -181 -8q-9 -2 -17 8t-8.5 20.5t5.5 13.5q59 17 219 7l11 28q3 8 2.5 9t-7.5 -1q-43 -18 -68 -20l-1 -1l-3 -1t-8 0q-41 7 -57.5 39t-17.5 94z" />
    <glyph glyph-name="brokenbar" unicode="&#xa6;" horiz-adv-x="749" 
d="M481 738q-2 -14 -18 -93.5t-27.5 -148.5t-14.5 -114q-1 -15 -12 -16.5t-17 9.5q-5 105 33 397q6 14 21 14q19 -1 33.5 -12.5t1.5 -35.5zM425 187q-53 -191 -57 -352q-1 -15 -17.5 -14t-23.5 12q23 294 34 382q6 14 21 14q27 8 42 -4t1 -38z" />
    <glyph glyph-name="section" unicode="&#xa7;" horiz-adv-x="526" 
d="M129 -52q19 -33 58 -34t69.5 16t30.5 29q0 8 -26 39.5l-57.5 68.5t-57.5 89t-26 96q0 75 43.5 132t80.5 57q11 0 18 -3q-1 10 -1 31q0 68 23.5 130t61.5 62q28 0 66 -25t48 -39q15 -21 -5 -21q-22 0 -50.5 16.5t-33.5 16.5q-20 0 -40 -52.5t-20 -112.5q0 -40 23 -82
t46 -64.5t32 -25.5q11 -3 22.5 -10.5t14.5 -13.5t-10 -22.5t-21 -19.5q-12 -5 -40 4q-14 5 -96.5 -13.5t-101.5 -12.5q19 -62 140 -192q32 -35 10 -72q-11 -19 -22 -22q-7 -3 -16 -3q-62 -38 -126.5 -35t-82.5 50q-7 18 10.5 28.5t35.5 9.5zM260 344q-80 0 -83 -132
q40 -4 88 9t84 33q-36 32 -57 80q-26 10 -32 10z" />
    <glyph glyph-name="dieresis" unicode="&#xa8;" 
d="M456 671q-14 -20 -26 -39.5t-27.5 -49.5t-19.5 -37q-15 -17 -37 -2l14 45.5t12.5 43.5t7.5 46q22 47 34 47q13 0 26 -15.5t16 -38.5zM303 666q-19 -36 -34.5 -84.5t-25.5 -65.5q-3 -4 -6.5 -5t-7 1.5l-5.5 4t-6.5 7t-6.5 7.5q2 11 17 74.5t13 95.5q3 9 13.5 18t21.5 9
q19 0 27 -62z" />
    <glyph glyph-name="copyright" unicode="&#xa9;" 
d="M490 481q-31 18 -58 25q-15 3 -31 3q-17 0 -52.5 -8t-87 -30t-96.5 -53.5t-77 -85.5t-32 -120q0 -100 74.5 -156t182.5 -56q72 0 144 25t124.5 79.5t52.5 126.5q0 67 -31.5 127t-82.5 101q2 -21 -6 -38q-5 -11 -7 -6v13q6 30 -17 53zM402 339q-3 8 -24 8q-46 0 -96 -36
t-50 -92q0 -77 71 -77q42 0 85 11.5t67 25.5q9 5 10 -7t-6 -17q-24 -15 -72.5 -29t-79.5 -14q-48 0 -81 24.5t-33 79.5q0 69 63 119.5t132 50.5q25 0 36 -12t12 -23q7 -4 4.5 -15t-10.5 -11q-7 0 -16.5 5t-11.5 9zM410 554q18 0 37 -9q83 -17 158.5 -116t75.5 -205
q0 -73 -59.5 -136t-143 -96t-164.5 -33q-134 0 -217 66t-83 174q0 62 23 116.5t60.5 91.5t82 66.5t90 46.5t81.5 25.5t59 8.5z" />
    <glyph glyph-name="ordfeminine" unicode="&#xaa;" horiz-adv-x="535" 
d="M276 469q2 5 14.5 7t14.5 -1q12 -11 26.5 -80.5t35.5 -85.5q3 -2 6 2t5 4q4 -1 15.5 -9.5t12.5 -11.5q1 -4 -8.5 -16.5t-15.5 -12.5q-41 -2 -62 33.5t-32 95.5q-2 17 -10 9q-29 -44 -49 -62t-42 -18q-4 0 -10.5 -4.5t-8.5 -4.5q-14 2 -26 21t-12 37q0 46 33 98t68 82
t47 28q5 -1 12.5 6t11.5 7q18 0 39.5 -11.5t34 -22.5t13.5 -15q2 -5 -11 -15t-25 -10q-3 0 -23.5 15.5t-26.5 15.5q-7 0 -29.5 -21t-50 -63.5t-40.5 -86.5q-3 -10 6 -10q16 0 44.5 33t42.5 67z" />
    <glyph glyph-name="guillemotleft" unicode="&#xab;" horiz-adv-x="698" 
d="M404 419q12 0 23 -9.5t11 -20.5q0 -8 -54.5 -30t-131.5 -63t-119 -91q20 -37 65 -76.5t96.5 -74.5t58.5 -41q4 -3 -4 -13t-20.5 -17.5t-18.5 -3.5q-50 30 -225 185q-7 3 -23 18.5t-16 21.5q0 23 13 36q3 3 23 5.5t33 10.5q24 14 96 60t122.5 74.5t70.5 28.5zM582 388
q15 0 29.5 -14t11.5 -36q-1 -8 -36 -17.5t-98 -39.5t-117 -81q16 -22 79 -76.5t89 -97.5q4 -4 -0.5 -12.5t-17 -13.5t-33.5 0q-14 26 -38.5 51t-67.5 59.5t-53 43.5q-7 3 -23 18.5t-16 21.5q0 23 13 36q4 4 18 7.5t27 10.5q30 17 85.5 55t94 61.5t53.5 23.5z" />
    <glyph glyph-name="logicalnot" unicode="&#xac;" horiz-adv-x="797" 
d="M90 300q26 1 271.5 24.5t322.5 14.5q8 -1 19 5.5t14 6.5q7 0 13.5 -6.5t5.5 -14.5q-1 -5 8.5 -19.5t9.5 -26.5q0 -6 -18 -75t-21 -121q-1 -17 -15 -17t-31 14t-17 43q0 5 20 55t24 97q1 6 0.5 10.5t-5 7.5t-15.5 4q-103 16 -262.5 -7.5t-294.5 -61.5q-23 -7 -37.5 10
t-14.5 32q0 10 7 17t16 8z" />
    <glyph glyph-name="registered" unicode="&#xae;" 
d="M332 744q11 0 28 -5q31 16 65 16q72 0 129.5 -69.5t57.5 -133.5q0 -108 -101.5 -200.5t-212.5 -92.5q-90 0 -154.5 69.5t-64.5 176.5q0 77 40 133.5t96 81t117 24.5zM481 639q-81 68 -131 76q-20 -8 -26 -13q-9 -7 -10 -4t3 7l12 12q-32 0 -68 -14t-69.5 -39.5t-55 -68.5
t-21.5 -95q0 -45 14.5 -81t36 -58.5t49 -38t52 -21.5t45.5 -6q94 0 181 85.5t87 169.5q0 22 -11.5 51.5t-32.5 58.5t-56 49t-76 20q-5 0 -17 -2q56 -32 94 -76q8 -9 4 -13zM357 608q6 14 6 28q60 -28 60 -101q0 -25 -14 -49.5t-35 -40.5q0 -1 8.5 -11l17 -20.5t16 -21
t8.5 -13.5q2 -6 -3.5 -12t-11.5 -6q-16 0 -20 13q-10 27 -39 46t-59 26l9 26q40 -9 46 -7q12 2 29.5 25.5t17.5 54.5q0 36 -39 57zM300 472q-2 0 -4.5 0.5t-3.5 0.5q-8 0 -9 -12.5t5 -13.5q2 0 3 -1q-11 -36 -17 -62q-2 -10 -16 -10q-4 0 -9 5.5t-4 10.5q8 31 36 109t38 115
q20 -3 35 -12q-52 -124 -54 -130zM326 646q-5 -24 -7 -32q-16 2 -25 2t-22 -4.5t-20 -4.5q-14 1 -20 16q-6 13 8 16q44 8 71 8q10 0 15 -1zM346 665q17 0 17 -29q-21 9 -37 10q3 19 20 19z" />
    <glyph glyph-name="macron" unicode="&#xaf;" 
d="M178 574q27 -8 163 -5.5t166 -12.5q20 -8 21.5 -23t-12.5 -23q-15 5 -35.5 8.5t-39.5 4.5t-44 0.5t-43 -1.5t-43.5 -3.5t-37 -3.5t-32.5 -4t-23 -3q-44 -5 -60 25q-11 24 7 36q5 4 13 5z" />
    <glyph glyph-name="degree" unicode="&#xb0;" horiz-adv-x="522" 
d="M311 653q-24 -8 -35 -14q60 -13 95 -42t35 -56q0 -54 -65 -106t-121 -52q-27 0 -55.5 27.5t-28.5 79.5q0 80 47.5 140t84.5 60q21 0 42 -19q13 -14 1 -18zM363 540q0 30 -37 49.5t-90 21.5q-52 -50 -52 -121q0 -19 2.5 -31t14 -22t33.5 -10q36 0 82.5 38t46.5 75z" />
    <glyph glyph-name="plusminus" unicode="&#xb1;" 
d="M366 550q36 31 49 -4q12 -35 -8 -80l-4 -8q-6 -22 -20 -64q70 1 164 -4q25 -2 49 -10q6 -8 -19 -14l-28 -4q-10 0 -42.5 -1t-68.5 -2l-70 -2q-41 -105 -54 -171q-2 -13 -5.5 -22.5t-14 -20.5t-26.5 -10q-8 0 -12.5 3t-2.5 8q12 40 76 211q-135 -9 -204 -25
q-5 -11 -11.5 -16t-13.5 -4.5t-15 0.5q-21 19 -7 38.5t37 14.5q62 26 227 30q25 71 27 98q1 13 -3 59zM73 72q38 -12 84 -18.5t96.5 -7t86.5 0.5t84 4.5t60 4.5q15 1 33.5 3.5t21.5 2.5q6 0 21 -10.5t15 -15.5q0 -6 -10.5 -15t-17.5 -9q-3 0 -10 2t-12 3t-16 0
q-206 -22 -303 -10q-70 -12 -131 27q-11 7 -13 20.5t11 17.5z" />
    <glyph glyph-name="twosuperior" unicode="&#xb2;" horiz-adv-x="445" 
d="M79 532q49 38 133.5 69.5t118.5 31.5q47 0 47 -51q0 -32 -49 -98.5t-132 -120.5q-15 -11 -11 -16t22 -6q144 -6 175 -29q6 -6 -3.5 -21t-23.5 -11q-37 17 -111.5 23t-105.5 -2q-4 0 -6 -0.5t-3.5 -2.5t-3.5 -3q-9 -5 -28 5.5t-14 24.5q77 30 144 93.5t103 127.5
q13 23 6.5 38t-30.5 13q-37 -3 -74 -19.5t-59 -33t-44.5 -36t-26.5 -21.5q-11 -7 -26 0t-16.5 19.5t18.5 25.5z" />
    <glyph glyph-name="threesuperior" unicode="&#xb3;" horiz-adv-x="389" 
d="M94 599q14 -1 91.5 9.5t96.5 8.5q14 -2 28.5 -10t13.5 -15q-3 -28 -31.5 -54.5t-68 -53.5t-55.5 -46q2 -9 26 -15t51.5 -10.5t50 -18t23.5 -34.5q1 -38 -51 -65t-88 -22q-15 2 -26.5 7.5t-11.5 10.5q0 7 5 12.5t11 4.5q34 -4 70 12.5t46 40.5q0 17 -25.5 23t-55.5 7.5
t-36 7.5q-25 4 -42.5 13.5t-15.5 19.5q3 15 21 17q50 30 103.5 72t52.5 59q-6 7 -59.5 1t-60.5 -5q-37 -13 -52 -13q-16 0 -21.5 8t-2 16.5t12.5 11.5z" />
    <glyph glyph-name="acute" unicode="&#xb4;" 
d="M156 449q3 5 6 13t7 14q5 3 127 91.5t167 111.5q18 9 27 7q3 -1 5.5 -12t2.5 -15q-16 -8 -27 -24q-33 -16 -92 -59.5l-117 -89.5t-62 -49q-10 -8 -16 -8t-11 2.5t-7.5 5t-5.5 7t-4 5.5z" />
    <glyph glyph-name="mu" unicode="&#xb5;" horiz-adv-x="570" 
d="M-114 -416q-2 65 50 210.5l113 302.5t73 227q3 17 21 17q8 0 24 -7.5t17 -14.5l3 -9q3 -9 3.5 -16.5t0.5 -19t-6 -23.5t-17 -23q0 -1 -11.5 -27.5t-20 -50t-14.5 -53.5t5 -39q5 -6 31 19t55.5 63.5t41.5 66.5q2 4 2 12.5t2 14.5q3 9 16.5 21.5t23.5 12.5q11 0 32.5 -13
t21.5 -21q0 -6 -18.5 -74t-18.5 -106q0 -20 11 -34t24 -16q51 -7 96 42q1 5 9 4l9 -2l5 2q6 1 10.5 1.5t10 1.5t8 0t1.5 -3q-2 -4 -10 -9.5t-9 -7.5q-3 -5 -21 -20t-49.5 -32t-57.5 -17q-99 0 -83 169q1 12 -3 12q-1 0 -4 -3q-11 -14 -38 -53t-47.5 -57t-46.5 -22
q-3 0 -5.5 -2.5t-7.5 -2.5q-4 0 -25 14t-25 11q-21 -15 -68 -152t-57 -193q-3 -20 3 -20q3 0 8.5 2t8.5 0.5t5 -7.5q3 -9 -5 -38.5t-13 -41.5q-2 -5 -43 -17q-5 -1 -13 7t-8 14z" />
    <glyph glyph-name="paragraph" unicode="&#xb6;" horiz-adv-x="594" 
d="M532 627q0 3 1 5.5t3.5 4.5t4 2.5l6 2t5.5 2.5q10 3 36 -10.5t26 -26.5q1 -20 -23 -63.5t-42 -60.5l-18 -105.5t-26.5 -162.5t-18.5 -156t-6 -154q4 -29 9.5 -45t16.5 -33t14 -23q-28 -21 -47 -21q-16 0 -32 10.5t-17 31.5q-1 40 3.5 98.5t15.5 135.5t20.5 136l25.5 152
t22 131q-29 2 -30 14q0 1 -1 12.5l-2 22.5t-5 25t-9 24t-14.5 16t-21.5 4q0 -2 -11.5 -70.5l-18 -109.5l-19 -121.5t-20 -139.5l-15.5 -127.5t-11.5 -122t-1.5 -88.5q4 -31 8 -49t7 -25t14 -27q-20 -25 -50 -25q-13 0 -29 15t-17 37q-2 42 25 97q8 113 36 317
q-46 12 -96.5 74t-50.5 133q0 53 25.5 123t81 130t124.5 60q29 0 62 -26.5t57 -59.5z" />
    <glyph glyph-name="periodcentered" unicode="&#xb7;" horiz-adv-x="427" 
d="M270 296q6 -32 -4 -49.5t-26 -19.5q-15 -2 -34 9t-20 23q-4 6 -2.5 26t21.5 24q38 7 65 -13z" />
    <glyph glyph-name="cedilla" unicode="&#xb8;" 
d="M320 7q0 1 11.5 -0.5t24.5 -4t15 -3.5q-36 -54 -43 -78q7 -3 34.5 -12t46.5 -17t36 -25t17 -39q0 -41 -61 -93t-116 -49q-18 -12 -45 9t-15 39q3 4 8 7q8 1 21 -12.5t20 -13.5q31 0 86.5 33.5t55.5 77.5q0 13 -26.5 22t-63 17.5t-50.5 18.5q-22 15 -17 39q1 7 16.5 28
t30.5 39z" />
    <glyph glyph-name="onesuperior" unicode="&#xb9;" horiz-adv-x="346" 
d="M253 591q-38 -47 -73 -132.5t-40 -156.5q0 -9 -5 -11t-13.5 1t-10.5 3q-5 101 89 308q6 14 21 14q8 0 16.5 -5.5t13 -11.5t2.5 -9z" />
    <glyph glyph-name="ordmasculine" unicode="&#xba;" horiz-adv-x="427" 
d="M329 486q0 33 -30 47q-13 -8 -39 -17t-39 -21q-1 -1 -3.5 3t-5.5 2q-9 -7 -39 -55t-30 -72q0 -22 12.5 -40.5t34.5 -18.5q14 0 46 22t62.5 64.5t30.5 85.5zM331 557q36 -48 36 -84q0 -45 -56 -109.5t-102 -82.5q-12 -5 -24 -5q-34 0 -58 24.5t-24 55.5q0 43 26 102.5
t70.5 106.5t87.5 47q11 0 28 -16.5t22 -25.5q2 -3 -2.5 -7.5t-3.5 -5.5z" />
    <glyph glyph-name="guillemotright" unicode="&#xbb;" horiz-adv-x="724" 
d="M317 -41q-12 0 -18 13t-2 27q0 2 53.5 34.5t124 89t106.5 111.5q-19 28 -50 56.5t-70 58.5t-45 35q-4 3 0 12t12.5 15.5t14.5 2.5q30 -18 178 -149q7 -3 23 -18.5t16 -21.5q0 -23 -13 -36q-4 -4 -66 -40q-43 -23 -103.5 -71.5l-103.5 -83.5t-57 -35zM122 -1q-38 0 -32 38
q1 9 37.5 30l104 61t120.5 83q-17 17 -50.5 46t-59 56t-46.5 61q-4 4 0.5 12.5t17 13.5t33.5 0q50 -107 149 -163q8 -3 24 -15.5t16 -18.5q0 -23 -13 -36q-4 -4 -35 -10t-44 -12q-34 -15 -83.5 -52.5l-87 -65.5t-51.5 -28z" />
    <glyph glyph-name="onequarter" unicode="&#xbc;" horiz-adv-x="651" 
d="M513 192q2 2 5.5 6t5.5 6.5t5 4t5 1.5q10 -1 15.5 -14t0.5 -29q-8 -23 -40 -93q57 10 67 10q7 0 8 -8t-3 -15.5t-9 -7.5q-54 -11 -78 -15q-20 -52 -25 -88q-3 -19 4 -39.5t7 -22.5q2 -15 -6.5 -16.5t-16.5 11.5q-30 45 -3 148q-91 -15 -105 -12q-4 0 -5.5 -3t-6.5 -3
q-9 0 -23.5 9t-11.5 18q15 45 65 108.5t56 85.5q8 4 22 2t22 -5q3 -1 4 -15.5t-1 -21.5q-6 -7 -36.5 -37.5t-51 -55t-33.5 -47.5q7 -5 14 -5q2 0 16 2.5l39.5 7t45.5 7.5q16 50 48 126zM36 140q54 23 204 104t226 116q45 20 48 16q4 -4 3.5 -14t-5.5 -12
q-54 -20 -136.5 -65.5t-174.5 -103t-107 -65.5q-12 -6 -30 -6t-29 8q-3 1 -4 3t-0.5 4.5t1.5 5t2.5 5.5t1.5 4zM141 264q-6 11 9.5 63t42.5 130.5t38 118.5q5 16 18.5 18t25 -5.5t10.5 -13.5q-2 -35 -53.5 -138.5t-61.5 -154.5q-4 -19 -12 -21t-17 3z" />
    <glyph glyph-name="onehalf" unicode="&#xbd;" horiz-adv-x="589" 
d="M112 328q-6 11 10.5 56.5l43.5 114.5t38 112q5 16 19 18t25.5 -5.5t9.5 -13.5q-9 -38 -61.5 -139.5t-54.5 -109.5q-6 -20 -13 -27.5t-17 -5.5zM61 123q-7 20 23 53q47 52 163 122.5t244 103.5q8 2 14.5 -0.5t7.5 -6.5t-2 -8q-70 -10 -212.5 -93t-191.5 -151
q-25 -38 -46 -20zM276 77q-13 -3 -21.5 2.5t0.5 27.5q12 22 76 48t103 28q43 2 55 -25t2 -50q-4 -8 -37 -43l-60.5 -64.5t-21.5 -30.5q18 -2 47.5 -3t51.5 -2.5t44.5 -4.5t36.5 -12t18 -23q0 -8 -6.5 -13t-14.5 -1q-4 2 -10.5 7t-14 9t-17.5 5q-37 3 -71 1t-70.5 0t-55.5 10
q-4 3 -5 9.5t5 16t16 15.5q20 12 63 57.5t57 69.5q28 48 -31 40q-87 -13 -139 -74z" />
    <glyph glyph-name="threequarters" unicode="&#xbe;" horiz-adv-x="672" 
d="M519 212q2 2 5.5 6t5.5 6.5t5 4t5 1.5q12 -1 22.5 -11.5t2.5 -23.5q-43 -73 -68 -132q80 10 110 9q13 -1 17 -18q1 -15 -10 -14q-43 5 -130 -7q-19 -46 -26 -84q-5 -28 -1 -56q1 -8 -1.5 -13t-7 -4.5t-8.5 8.5q-19 40 10 144q-46 -7 -105 -20q-57 -13 -94 2q-14 5 -13 28
t15 41q8 28 57 87t59 59q11 0 18 -13.5t-5 -29.5q-4 -5 -18 -20t-22 -24.5l-19.5 -24t-20.5 -28.5t-16 -27q-6 -10 -0.5 -16.5t20.5 -5.5q8 1 31.5 4.5l58.5 8.5l63 9q21 65 60 154zM51 630q14 -1 91.5 9.5t96.5 8.5q14 -2 28.5 -10t13.5 -15q-3 -28 -31.5 -54.5t-68 -53.5
t-55.5 -46q2 -9 26 -15t51.5 -10.5t50 -18t23.5 -34.5q1 -38 -51 -65t-88 -22q-15 2 -26.5 7.5t-11.5 10.5q0 7 5 12.5t11 4.5q34 -4 70 12.5t46 40.5q0 17 -25.5 23t-55.5 7.5t-36 7.5q-25 4 -42.5 13.5t-15.5 19.5q3 15 21 17q50 30 103.5 72t52.5 59q-6 7 -59.5 1
t-60.5 -5q-37 -13 -52 -13q-16 0 -21.5 8t-2 16.5t12.5 11.5zM449 414q14 9 24.5 -2.5t-2.5 -23.5q-39 -37 -174 -122t-179 -95q-10 -5 -17 -3t-11.5 6t-4.5 7q0 14 22 24q61 26 184 96t158 113z" />
    <glyph glyph-name="questiondown" unicode="&#xbf;" horiz-adv-x="660" 
d="M418 348q-6 31 3.5 48t25.5 19q14 2 32 -9t19 -22q4 -6 2.5 -25t-20.5 -23q-36 -7 -62 12zM449 -77q-8 2 9 12l9 3q9 0 28.5 -15t19.5 -34q0 -39 -109.5 -82t-194.5 -43q-52 0 -83 16t-31 41q0 40 30 86.5t61.5 76.5t90.5 80l77 66q-7 35 6 44q6 2 9.5 1.5t11 -2.5
t9.5 -2q6 -1 23 -20t17 -25q0 -7 -5 -15.5t-13 -10.5q-81 -34 -163.5 -109.5t-102.5 -117.5q-7 -16 -8.5 -31t11.5 -28.5t44 -13.5q152 0 256 90q8 7 6 19t-8 14z" />
    <glyph glyph-name="Agrave" unicode="&#xc0;" horiz-adv-x="556" 
d="M454 -20q2 -13 -12.5 -24.5t-30.5 -8t-18 27.5q-7 88 -25 221q-162 -65 -265 -43q-55 -93 -94 -170q-7 -9 -20.5 -5.5t-23.5 17t-3 23.5l96 150q-33 46 3 63q17 -7 31 -11l182 267q4 27 35 69q-15 35 -11.5 52.5t13.5 22.5t32 5q30 -4 41 -41t13 -116q0 -3 -6.5 -5
t-6.5 -5q2 -115 15 -221q11 4 33.5 10t26.5 7q8 4 17 -6.5t3 -19.5l-76 -29q19 -138 51 -230zM322 494q-131 -195 -186 -285q33 -10 80.5 -5t74 11.5t72.5 20.5q-9 64 -41 258zM276 870q-5 2 -1 18t12 16q9 0 18.5 -7t11.5 -16q16 -5 61.5 -83.5t69.5 -98.5q4 -7 4.5 -15.5
t-1.5 -8.5q0 -14 -7 -14q-10 0 -23 10q-18 14 -63 72t-82 127z" />
    <glyph glyph-name="Aacute" unicode="&#xc1;" horiz-adv-x="556" 
d="M454 -20q2 -13 -12.5 -24.5t-30.5 -8t-18 27.5q-7 88 -25 221q-162 -65 -265 -43q-55 -93 -94 -170q-7 -9 -20.5 -5.5t-23.5 17t-3 23.5l96 150q-33 46 3 63q17 -7 31 -11l182 267q4 27 35 69q-15 35 -11.5 52.5t13.5 22.5t32 5q30 -4 41 -41t13 -116q0 -3 -6.5 -5
t-6.5 -5q2 -115 15 -221q11 4 33.5 10t26.5 7q8 4 17 -6.5t3 -19.5l-76 -29q19 -138 51 -230zM322 494q-131 -195 -186 -285q33 -10 80.5 -5t74 11.5t72.5 20.5q-9 64 -41 258zM185 679q3 5 6 13t7 14q5 3 127 91.5t167 111.5q18 9 27 7q3 -1 5.5 -12t2.5 -15
q-16 -8 -27 -24q-33 -16 -92 -59.5l-117 -89.5t-62 -49q-10 -8 -16 -8t-11 2.5t-7.5 5t-5.5 7t-4 5.5z" />
    <glyph glyph-name="Acircumflex" unicode="&#xc2;" horiz-adv-x="556" 
d="M454 -20q2 -13 -12.5 -24.5t-30.5 -8t-18 27.5q-7 88 -25 221q-162 -65 -265 -43q-55 -93 -94 -170q-7 -9 -20.5 -5.5t-23.5 17t-3 23.5l96 150q-33 46 3 63q17 -7 31 -11l182 267q4 27 35 69q-15 35 -11.5 52.5t13.5 22.5t32 5q30 -4 41 -41t13 -116q0 -3 -6.5 -5
t-6.5 -5q2 -115 15 -221q11 4 33.5 10t26.5 7q8 4 17 -6.5t3 -19.5l-76 -29q19 -138 51 -230zM322 494q-131 -195 -186 -285q33 -10 80.5 -5t74 11.5t72.5 20.5q-9 64 -41 258zM385 839q-35 -13 -117.5 -72.5t-103.5 -68.5q-16 -7 -33 7t-16 34q121 55 244 143q4 4 11 15
t14 19.5t12 8.5q13 0 29 -13t20 -41q0 -21 10.5 -51t22 -52l29 -55l21.5 -41q-3 -8 -19 -9.5t-27 5.5q-11 8 -47 70t-50 101z" />
    <glyph glyph-name="Atilde" unicode="&#xc3;" horiz-adv-x="556" 
d="M454 -20q2 -13 -12.5 -24.5t-30.5 -8t-18 27.5q-7 88 -25 221q-162 -65 -265 -43q-55 -93 -94 -170q-7 -9 -20.5 -5.5t-23.5 17t-3 23.5l96 150q-33 46 3 63q17 -7 31 -11l182 267q4 27 35 69q-15 35 -11.5 52.5t13.5 22.5t32 5q30 -4 41 -41t13 -116q0 -3 -6.5 -5
t-6.5 -5q2 -115 15 -221q11 4 33.5 10t26.5 7q8 4 17 -6.5t3 -19.5l-76 -29q19 -138 51 -230zM322 494q-131 -195 -186 -285q33 -10 80.5 -5t74 11.5t72.5 20.5q-9 64 -41 258zM450 743q21 -6 44.5 32.5t23.5 63.5q-8 27 4.5 38t26.5 11q9 0 15.5 -14.5t6.5 -38.5
q0 -27 -45 -90t-71 -63q-21 0 -43.5 30.5l-43.5 61t-38 30.5q-19 0 -40 -21.5t-38.5 -44.5t-25.5 -26q-19 -6 -35.5 -2t-21.5 17q58 78 146 129q35 -2 62.5 -24.5t48 -53.5t24.5 -35z" />
    <glyph glyph-name="Adieresis" unicode="&#xc4;" horiz-adv-x="556" 
d="M454 -20q2 -13 -12.5 -24.5t-30.5 -8t-18 27.5q-7 88 -25 221q-162 -65 -265 -43q-55 -93 -94 -170q-7 -9 -20.5 -5.5t-23.5 17t-3 23.5l96 150q-33 46 3 63q17 -7 31 -11l182 267q4 27 35 69q-15 35 -11.5 52.5t13.5 22.5t32 5q30 -4 41 -41t13 -116q0 -3 -6.5 -5
t-6.5 -5q2 -115 15 -221q11 4 33.5 10t26.5 7q8 4 17 -6.5t3 -19.5l-76 -29q19 -138 51 -230zM322 494q-131 -195 -186 -285q33 -10 80.5 -5t74 11.5t72.5 20.5q-9 64 -41 258zM354 887q-19 -36 -34.5 -84.5t-25.5 -65.5q-3 -4 -6.5 -5t-7 1.5l-5.5 4t-6.5 7t-6.5 7.5
q2 11 17 74.5t13 95.5q3 9 13.5 18t21.5 9q19 0 27 -62zM507 892q-14 -20 -26 -39.5t-27.5 -49.5t-19.5 -37q-15 -17 -37 -2l14 45.5t12.5 43.5t7.5 46q22 47 34 47q13 0 26 -15.5t16 -38.5z" />
    <glyph glyph-name="Aring" unicode="&#xc5;" horiz-adv-x="556" 
d="M454 -20q2 -13 -12.5 -24.5t-30.5 -8t-18 27.5q-7 88 -25 221q-162 -65 -265 -43q-55 -93 -94 -170q-7 -9 -20.5 -5.5t-23.5 17t-3 23.5l96 150q-33 46 3 63q17 -7 31 -11l182 267q4 27 35 69q-15 35 -11.5 52.5t13.5 22.5t32 5q30 -4 41 -41t13 -116q0 -3 -6.5 -5
t-6.5 -5q2 -115 15 -221q11 4 33.5 10t26.5 7q8 4 17 -6.5t3 -19.5l-76 -29q19 -138 51 -230zM360 932q15 4 29 -8q23 6 60.5 -17.5t37.5 -41.5q0 -44 -40 -89.5t-82.5 -67.5t-53.5 -10q-4 0 -3 -1q-7 -3 -11 -4q-22 0 -44.5 23.5t-22.5 73.5q0 45 48 100.5t82 41.5z
M322 494q-131 -195 -186 -285q33 -10 80.5 -5t74 11.5t72.5 20.5q-9 64 -41 258zM440 854q0 24 -32 38q-2 -10 -9.5 -20t-15.5 -11q-9 -1 -17 4.5t-14 5.5q-18 -7 -34.5 -29t-25.5 -47q-6 -16 -7.5 -30.5t2 -23.5t11.5 -8q40 2 91 50.5t51 70.5z" />
    <glyph glyph-name="AE" unicode="&#xc6;" horiz-adv-x="890" 
d="M859 335q-99 13 -345 -41q-37 -143 -46 -237q45 7 105 6q49 3 97 -2.5t83.5 -16.5t63 -24t42 -23t14.5 -15q0 -11 -7.5 -20.5t-17.5 -9.5q-7 0 -11 11.5t-9 14.5q-34 21 -118.5 34.5t-144.5 13.5q-55 0 -100 -10v-33q0 -3 4.5 -6.5t3.5 -7.5q-7 -25 -13.5 -36.5
t-17.5 -10.5q-7 1 -14 14.5t-6 27.5q1 13 5 41q-48 -17 -63 -46q-11 3 -28 13t-17 15q0 2 -2 5t1 6t14 11q33 26 101 42l38 233q-145 -33 -251 -65q-18 -5 -29 -5q-117 -121 -181 -203q-12 -14 -39 -14q-10 0 -17 9.5t-7 21.5q0 11 44 64.5t51 56.5q3 1 6.5 -0.5t7.5 0.5
q35 15 103 78q-1 2 -1 6q0 18 36 27q49 47 143 145.5l124 128.5q2 2 4.5 0t12.5 1q8 3 21.5 13.5t17.5 10.5q6 1 24.5 -7t27.5 -17q117 35 191 35q34 0 59.5 -8.5t37 -20.5t16.5 -21.5t5 -16.5q0 -48 -29 -48q-3 0 -4.5 3t-2 8.5t-0.5 10v12v10.5q0 12 -23.5 22t-62.5 10
q-80 0 -189 -45q-6 -24 -21.5 -78.5t-22.5 -82.5q234 46 285 40q27 7 48 2.5t34.5 -13.5t13.5 -16q0 -11 -4.5 -20t-12.5 -9q-6 0 -15 13t-13 13zM245 270l231 46l23 139q-38 -19 -84 -49q-8 -5 -19 6q-60 -51 -151 -142z" />
    <glyph glyph-name="Ccedilla" unicode="&#xc7;" horiz-adv-x="555" 
d="M397 566q-83 0 -157.5 -58t-115 -139t-40.5 -155q0 -88 37 -132t100 -44q106 0 219 84q8 3 17 -3.5t9.5 -17t-13.5 -23.5q-28 -23 -80.5 -47t-114.5 -33q-29 -46 -34 -65q7 -3 34.5 -12t46.5 -17t36 -25t17 -39q0 -41 -61 -93t-116 -49q-18 -12 -45 9t-15 39q3 4 8 7
q8 1 21 -12.5t20 -13.5q31 0 86.5 33.5t55.5 77.5q0 13 -26.5 22t-63 17.5t-50.5 18.5q-22 15 -17 39q3 13 40 59q-82 4 -125.5 64.5t-43.5 132.5q0 88 36.5 169t89.5 133.5t110 83.5t101 31q68 0 111 -36.5t43 -80.5q0 -53 -17 -82t-49 -12q13 79 0 117.5t-54 51.5z" />
    <glyph glyph-name="Egrave" unicode="&#xc8;" horiz-adv-x="597" 
d="M41 510q-5 4 -6.5 14.5t7 21t28.5 11.5q33 3 125 3q9 28 10 35q19 13 30.5 7.5t16.5 -17t6 -27.5q144 -8 307 -29q12 -1 7 -12q-10 -17 -20 -16q-122 10 -305 12q-7 -12 -27 -42t-27 -44q-37 -69 -54 -134q66 -7 165.5 5.5t130.5 41.5q28 2 33 -14.5t-8 -27.5
q-25 -27 -139 -42.5t-191 1.5q-9 -43 -7 -94q2 -57 31.5 -93.5t89.5 -36.5q74 0 170.5 52.5t147.5 108.5q8 -1 14 -9t6 -15q0 -14 -21 -35q-61 -62 -154.5 -104t-176.5 -42q-68 0 -111 48t-43 138q0 24 5.5 54.5t11.5 54.5t19.5 62l20.5 56.5l23.5 59.5l20.5 51
q-84 0 -136 -3zM286 834q-5 2 -1 18t12 16q9 0 18.5 -7t11.5 -16q16 -5 61.5 -83.5t69.5 -98.5q4 -7 4.5 -15.5t-1.5 -8.5q0 -14 -7 -14q-10 0 -23 10q-18 14 -63 72t-82 127z" />
    <glyph glyph-name="Eacute" unicode="&#xc9;" horiz-adv-x="597" 
d="M41 510q-5 4 -6.5 14.5t7 21t28.5 11.5q33 3 125 3q9 28 10 35q19 13 30.5 7.5t16.5 -17t6 -27.5q144 -8 307 -29q12 -1 7 -12q-10 -17 -20 -16q-122 10 -305 12q-7 -12 -27 -42t-27 -44q-37 -69 -54 -134q66 -7 165.5 5.5t130.5 41.5q28 2 33 -14.5t-8 -27.5
q-25 -27 -139 -42.5t-191 1.5q-9 -43 -7 -94q2 -57 31.5 -93.5t89.5 -36.5q74 0 170.5 52.5t147.5 108.5q8 -1 14 -9t6 -15q0 -14 -21 -35q-61 -62 -154.5 -104t-176.5 -42q-68 0 -111 48t-43 138q0 24 5.5 54.5t11.5 54.5t19.5 62l20.5 56.5l23.5 59.5l20.5 51
q-84 0 -136 -3zM197 636q3 5 6 13t7 14q5 3 127 91.5t167 111.5q18 9 27 7q3 -1 5.5 -12t2.5 -15q-16 -8 -27 -24q-33 -16 -92 -59.5l-117 -89.5t-62 -49q-10 -8 -16 -8t-11 2.5t-7.5 5t-5.5 7t-4 5.5z" />
    <glyph glyph-name="Ecircumflex" unicode="&#xca;" horiz-adv-x="597" 
d="M41 510q-5 4 -6.5 14.5t7 21t28.5 11.5q33 3 125 3q9 28 10 35q19 13 30.5 7.5t16.5 -17t6 -27.5q144 -8 307 -29q12 -1 7 -12q-10 -17 -20 -16q-122 10 -305 12q-7 -12 -27 -42t-27 -44q-37 -69 -54 -134q66 -7 165.5 5.5t130.5 41.5q28 2 33 -14.5t-8 -27.5
q-25 -27 -139 -42.5t-191 1.5q-9 -43 -7 -94q2 -57 31.5 -93.5t89.5 -36.5q74 0 170.5 52.5t147.5 108.5q8 -1 14 -9t6 -15q0 -14 -21 -35q-61 -62 -154.5 -104t-176.5 -42q-68 0 -111 48t-43 138q0 24 5.5 54.5t11.5 54.5t19.5 62l20.5 56.5l23.5 59.5l20.5 51
q-84 0 -136 -3zM397 796q-35 -13 -117.5 -72.5t-103.5 -68.5q-16 -7 -33 7t-16 34q121 55 244 143q4 4 11 15t14 19.5t12 8.5q13 0 29 -13t20 -41q0 -21 10.5 -51t22 -52l29 -55l21.5 -41q-3 -8 -19 -9.5t-27 5.5q-11 8 -47 70t-50 101z" />
    <glyph glyph-name="Edieresis" unicode="&#xcb;" horiz-adv-x="597" 
d="M41 510q-5 4 -6.5 14.5t7 21t28.5 11.5q33 3 125 3q9 28 10 35q19 13 30.5 7.5t16.5 -17t6 -27.5q144 -8 307 -29q12 -1 7 -12q-10 -17 -20 -16q-122 10 -305 12q-7 -12 -27 -42t-27 -44q-37 -69 -54 -134q66 -7 165.5 5.5t130.5 41.5q28 2 33 -14.5t-8 -27.5
q-25 -27 -139 -42.5t-191 1.5q-9 -43 -7 -94q2 -57 31.5 -93.5t89.5 -36.5q74 0 170.5 52.5t147.5 108.5q8 -1 14 -9t6 -15q0 -14 -21 -35q-61 -62 -154.5 -104t-176.5 -42q-68 0 -111 48t-43 138q0 24 5.5 54.5t11.5 54.5t19.5 62l20.5 56.5l23.5 59.5l20.5 51
q-84 0 -136 -3zM356 817q-19 -36 -34.5 -84.5t-25.5 -65.5q-3 -4 -6.5 -5t-7 1.5l-5.5 4t-6.5 7t-6.5 7.5q2 11 17 74.5t13 95.5q3 9 13.5 18t21.5 9q19 0 27 -62zM509 822q-14 -20 -26 -39.5t-27.5 -49.5t-19.5 -37q-15 -17 -37 -2l14 45.5t12.5 43.5t7.5 46q22 47 34 47
q13 0 26 -15.5t16 -38.5z" />
    <glyph glyph-name="Igrave" unicode="&#xcc;" horiz-adv-x="300" 
d="M17 -19q14 86 48.5 199.5t78.5 237.5t52 150q1 5 1.5 21t4 23.5t14.5 9.5q14 3 32 -6.5t25 -24.5q9 -20 -28 -89q-7 -12 -19.5 -21.5t-16.5 -16.5q-38 -85 -76 -213t-56 -227q0 -2 -1 -5q-9 -50 -20 -55l-5 -1q-19 -1 -34 18zM178 881q-5 2 -1 18t12 16q9 0 18.5 -7
t11.5 -16q16 -5 61.5 -83.5t69.5 -98.5q4 -7 4.5 -15.5t-1.5 -8.5q0 -14 -7 -14q-10 0 -23 10q-18 14 -63 72t-82 127z" />
    <glyph glyph-name="Iacute" unicode="&#xcd;" horiz-adv-x="300" 
d="M17 -19q14 86 48.5 199.5t78.5 237.5t52 150q1 5 1.5 21t4 23.5t14.5 9.5q14 3 32 -6.5t25 -24.5q9 -20 -28 -89q-7 -12 -19.5 -21.5t-16.5 -16.5q-38 -85 -76 -213t-56 -227q0 -2 -1 -5q-9 -50 -20 -55l-5 -1q-19 -1 -34 18zM113 680q3 5 6 13t7 14q5 3 127 91.5
t167 111.5q18 9 27 7q3 -1 5.5 -12t2.5 -15q-17 -8 -27 -24q-33 -16 -92 -59.5l-117 -89.5t-62 -49q-10 -8 -16 -8t-11 2.5t-7.5 5t-5.5 7t-4 5.5z" />
    <glyph glyph-name="Icircumflex" unicode="&#xce;" horiz-adv-x="300" 
d="M17 -19q14 86 48.5 199.5t78.5 237.5t52 150q1 5 1.5 21t4 23.5t14.5 9.5q14 3 32 -6.5t25 -24.5q9 -20 -28 -89q-7 -12 -19.5 -21.5t-16.5 -16.5q-38 -85 -76 -213t-56 -227q0 -2 -1 -5q-9 -50 -20 -55l-5 -1q-19 -1 -34 18zM294 789q-35 -13 -117.5 -72.5t-103.5 -68.5
q-16 -7 -33 7t-16 34q121 55 244 143q4 4 11 15t14 19.5t12 8.5q13 0 29 -13t20 -41q0 -21 10.5 -51t22 -52l29 -55l21.5 -41q-3 -8 -19 -9.5t-27 5.5q-11 8 -47 70t-50 101z" />
    <glyph glyph-name="Idieresis" unicode="&#xcf;" horiz-adv-x="300" 
d="M17 -19q14 86 48.5 199.5t78.5 237.5t52 150q1 5 1.5 21t4 23.5t14.5 9.5q14 3 32 -6.5t25 -24.5q9 -20 -28 -89q-7 -12 -19.5 -21.5t-16.5 -16.5q-38 -85 -76 -213t-56 -227q0 -2 -1 -5q-9 -50 -20 -55l-5 -1q-19 -1 -34 18zM395 844q-14 -20 -26 -39.5t-27.5 -49.5
t-19.5 -37q-15 -17 -37 -2l14 45.5t12.5 43.5t7.5 46q22 47 34 47q13 0 26 -15.5t16 -38.5zM242 839q-19 -36 -34.5 -84.5t-25.5 -65.5q-3 -4 -6.5 -5t-7 1.5l-5.5 4t-6.5 7t-6.5 7.5q2 11 17 74.5t13 95.5q3 9 13.5 18t21.5 9q19 0 27 -62z" />
    <glyph glyph-name="Eth" unicode="&#xd0;" horiz-adv-x="574" 
d="M230 617q16 20 39 12q18 -6 23 -41t-1 -69q96 -73 155 -161.5t59 -180.5q0 -95 -59 -150t-159 -55q-98 0 -156 35l-3 -32q9 -12 -3 -24.5t-24 -12.5t-24 19t-4 49l65 221q-17 -1 -109 -5q-28 1 -38.5 5.5t-18.5 15.5q-15 18 11 28q34 -16 164 -14q41 149 63 255
q-83 50 -167 84q-14 6 -21 14t-7.5 15.5t2 14.5t6 11t5.5 5q93 -27 193 -89zM287 222q-62 4 -112 5q-27 -101 -36 -166q50 -46 173 -46q65 0 107.5 43.5t42.5 122.5q0 155 -201 297q-7 -8 -9 -14q0 -1 -7.5 -22l-16 -45t-21 -62.5t-23.5 -76.5l97 5q20 1 49 -2q6 -1 16 -9
t9 -15q0 -8 -6.5 -16.5t-12.5 -7.5q-31 9 -49 9z" />
    <glyph glyph-name="Ntilde" unicode="&#xd1;" horiz-adv-x="674" 
d="M155 376q-6 -20 -30 -93.5t-41 -130.5t-15 -69q-1 -21 1.5 -38.5t5.5 -28.5t3 -13q1 -9 -5.5 -11.5t-14 -2.5t-8.5 -1q-8 -16 -41 -16q-12 3 -11.5 38.5t10.5 70.5q1 3 7 4t7 3q11 40 35.5 121.5l44 147t20.5 68.5q6 21 3 37q0 2 -3.5 14.5t-5 22t-1.5 22t6 21.5t17 13
q1 31 11.5 46t23.5 15q9 0 17 -20q12 0 24.5 -7.5t13.5 -13.5q2 -31 -17 -77q-8 -71 60 -188t138 -165q21 -14 31.5 -12t14.5 23q11 56 41.5 159l56 182.5t25.5 82.5q-6 15 -4 38t6 27q19 19 30 19q6 0 23.5 -11t17.5 -16q0 -8 -5.5 -44.5t-8.5 -40.5q-5 -6 -28 -13
q0 -1 -9.5 -32l-21.5 -73.5t-26 -98.5t-25.5 -108t-17.5 -102.5t-3 -80.5q1 -6 5.5 -11t4.5 -9q-1 -6 -8.5 -9t-15.5 -1q-21 -8 -37.5 10.5t-18.5 44.5q-76 56 -145.5 134t-113.5 160q-15 29 -22 15zM460 720q21 -6 44.5 32.5t23.5 63.5q-8 27 4.5 38t26.5 11
q9 0 15.5 -14.5t6.5 -38.5q0 -27 -45 -90t-71 -63q-21 0 -43.5 30.5l-43.5 61t-38 30.5q-19 0 -40 -21.5t-38.5 -44.5t-25.5 -26q-19 -6 -35.5 -2t-21.5 17q58 78 146 129q35 -2 62.5 -24.5t48 -53.5t24.5 -35z" />
    <glyph glyph-name="Ograve" unicode="&#xd2;" horiz-adv-x="497" 
d="M394 454q0 -2 -0.5 -7t-0.5 -7q56 -46 56 -102q0 -34 -26 -92.5t-67 -117.5t-100.5 -101.5t-118.5 -42.5q-42 0 -83.5 48t-41.5 144q0 62 35.5 157.5t97 173.5t121.5 78q36 0 82 -39t46 -92zM312 449q-13 3 -11 15q6 16 31 10q-5 22 -22.5 40t-42.5 18q-28 0 -55 -21.5
t-40 -46.5q-12 -34 -22.5 -52t-25.5 -36.5t-26 -36.5q-12 -22 -27.5 -76t-15.5 -107q0 -55 27.5 -93.5t70.5 -38.5q45 0 103.5 53.5t99 125.5t40.5 123q0 30 -20 62q-20 -47 -57 -90q-16 4 -19 21q-2 9 5 21t16.5 36.5t11.5 60.5q-12 9 -21 12zM234 857q-5 2 -1 18t12 16
q9 0 18.5 -7t11.5 -16q16 -5 61.5 -83.5t69.5 -98.5q4 -7 4.5 -15.5t-1.5 -8.5q0 -14 -7 -14q-10 0 -23 10q-18 14 -63 72t-82 127z" />
    <glyph glyph-name="Oacute" unicode="&#xd3;" horiz-adv-x="497" 
d="M394 454q0 -2 -0.5 -7t-0.5 -7q56 -46 56 -102q0 -34 -26 -92.5t-67 -117.5t-100.5 -101.5t-118.5 -42.5q-42 0 -83.5 48t-41.5 144q0 62 35.5 157.5t97 173.5t121.5 78q36 0 82 -39t46 -92zM312 449q-13 3 -11 15q6 16 31 10q-5 22 -22.5 40t-42.5 18q-28 0 -55 -21.5
t-40 -46.5q-12 -34 -22.5 -52t-25.5 -36.5t-26 -36.5q-12 -22 -27.5 -76t-15.5 -107q0 -55 27.5 -93.5t70.5 -38.5q45 0 103.5 53.5t99 125.5t40.5 123q0 30 -20 62q-20 -47 -57 -90q-16 4 -19 21q-2 9 5 21t16.5 36.5t11.5 60.5q-12 9 -21 12zM207 670q3 5 6 13t7 14
q5 3 127 91.5t167 111.5q18 9 27 7q3 -1 5.5 -12t2.5 -15q-17 -8 -27 -24q-33 -16 -92 -59.5l-117 -89.5t-62 -49q-10 -8 -16 -8t-11 2.5t-7.5 5t-5.5 7t-4 5.5z" />
    <glyph glyph-name="Ocircumflex" unicode="&#xd4;" horiz-adv-x="497" 
d="M394 454q0 -2 -0.5 -7t-0.5 -7q56 -46 56 -102q0 -34 -26 -92.5t-67 -117.5t-100.5 -101.5t-118.5 -42.5q-42 0 -83.5 48t-41.5 144q0 62 35.5 157.5t97 173.5t121.5 78q36 0 82 -39t46 -92zM312 449q-13 3 -11 15q6 16 31 10q-5 22 -22.5 40t-42.5 18q-28 0 -55 -21.5
t-40 -46.5q-12 -34 -22.5 -52t-25.5 -36.5t-26 -36.5q-12 -22 -27.5 -76t-15.5 -107q0 -55 27.5 -93.5t70.5 -38.5q45 0 103.5 53.5t99 125.5t40.5 123q0 30 -20 62q-20 -47 -57 -90q-16 4 -19 21q-2 9 5 21t16.5 36.5t11.5 60.5q-12 9 -21 12zM363 777
q-35 -13 -117.5 -72.5t-103.5 -68.5q-16 -7 -33 7t-16 34q121 55 244 143q4 4 11 15t14 19.5t12 8.5q13 0 29 -13t20 -41q0 -21 10.5 -51t22 -52l29 -55l21.5 -41q-3 -8 -19 -9.5t-27 5.5q-11 8 -47 70t-50 101z" />
    <glyph glyph-name="Otilde" unicode="&#xd5;" horiz-adv-x="497" 
d="M394 454q0 -2 -0.5 -7t-0.5 -7q56 -46 56 -102q0 -34 -26 -92.5t-67 -117.5t-100.5 -101.5t-118.5 -42.5q-42 0 -83.5 48t-41.5 144q0 62 35.5 157.5t97 173.5t121.5 78q36 0 82 -39t46 -92zM312 449q-13 3 -11 15q6 16 31 10q-5 22 -22.5 40t-42.5 18q-28 0 -55 -21.5
t-40 -46.5q-12 -34 -22.5 -52t-25.5 -36.5t-26 -36.5q-12 -22 -27.5 -76t-15.5 -107q0 -55 27.5 -93.5t70.5 -38.5q45 0 103.5 53.5t99 125.5t40.5 123q0 30 -20 62q-20 -47 -57 -90q-16 4 -19 21q-2 9 5 21t16.5 36.5t11.5 60.5q-12 9 -21 12zM385 684q21 -6 44.5 32.5
t23.5 63.5q-8 27 4.5 38t26.5 11q9 0 15.5 -14.5t6.5 -38.5q0 -27 -45 -90t-71 -63q-21 0 -43.5 30.5l-43.5 61t-38 30.5q-19 0 -40 -21.5t-38.5 -44.5t-25.5 -26q-19 -6 -35.5 -2t-21.5 17q58 78 146 129q35 -2 62.5 -24.5t48 -53.5t24.5 -35z" />
    <glyph glyph-name="Odieresis" unicode="&#xd6;" horiz-adv-x="497" 
d="M394 454q0 -2 -0.5 -7t-0.5 -7q56 -46 56 -102q0 -34 -26 -92.5t-67 -117.5t-100.5 -101.5t-118.5 -42.5q-42 0 -83.5 48t-41.5 144q0 62 35.5 157.5t97 173.5t121.5 78q36 0 82 -39t46 -92zM312 449q-13 3 -11 15q6 16 31 10q-5 22 -22.5 40t-42.5 18q-28 0 -55 -21.5
t-40 -46.5q-12 -34 -22.5 -52t-25.5 -36.5t-26 -36.5q-12 -22 -27.5 -76t-15.5 -107q0 -55 27.5 -93.5t70.5 -38.5q45 0 103.5 53.5t99 125.5t40.5 123q0 30 -20 62q-20 -47 -57 -90q-16 4 -19 21q-2 9 5 21t16.5 36.5t11.5 60.5q-12 9 -21 12zM300 805q-19 -36 -34.5 -84.5
t-25.5 -65.5q-3 -4 -6.5 -5t-7 1.5l-5.5 4t-6.5 7t-6.5 7.5q2 11 17 74.5t13 95.5q3 9 13.5 18t21.5 9q19 0 27 -62zM453 810q-14 -20 -26 -39.5t-27.5 -49.5t-19.5 -37q-15 -17 -37 -2l14 45.5t12.5 43.5t7.5 46q22 47 34 47q13 0 26 -15.5t16 -38.5z" />
    <glyph glyph-name="multiply" unicode="&#xd7;" 
d="M540 372q-57 13 -204 -111l90.5 -77t76.5 -64q8 -11 2 -19.5t-17.5 -9t-20.5 4.5q-19 14 -77.5 63.5l-87.5 72.5q-81 -72 -118 -121q-18 -24 -6 -41q-14 -23 -30 -24q-12 -1 -23.5 5.5t-12.5 18.5q-3 55 157 187q-57 44 -88 55q-24 10 -17 28q6 19 32 14q6 -1 12 -4
q34 -16 97 -65q120 95 202 139q19 10 42 -4.5t35 -34.5q16 -26 4 -31q-3 -1 -7 1z" />
    <glyph glyph-name="Oslash" unicode="&#xd8;" horiz-adv-x="497" 
d="M387 627q5 13 28 13q10 0 27 -17.5t13 -29.5q-6 -18 -32 -42.5t-49 -35.5q20 -30 20 -61q0 -2 -0.5 -7t-0.5 -7q56 -46 56 -102q0 -34 -26 -92.5t-67 -117.5t-100.5 -101.5t-118.5 -42.5q-17 0 -41 11l-2 -9q-3 -9 6.5 -25t9.5 -20q0 -9 -14.5 -36t-19.5 -27
q-8 0 -25 -6.5t-22 -6.5q-13 0 -14.5 4.5t5.5 36.5q12 41 45 113q-53 53 -53 157q0 62 35.5 157.5t97 173.5t121.5 78q38 0 83 -40q25 49 38 82zM55 156q0 -58 29 -97l64 122l86 155l68 121q-6 13 9 18l12 21q-21 36 -56 36q-28 0 -55 -21.5t-40 -46.5q-12 -34 -22.5 -52
t-25.5 -36.5t-26 -36.5q-12 -22 -27.5 -76t-15.5 -107zM333 437l-4 3q-180 -320 -217 -405q19 -11 41 -11q45 0 103.5 53.5t99 125.5t40.5 123q0 30 -20 62q-20 -47 -57 -90q-16 4 -19 21q-2 9 5 21t16.5 36.5t11.5 60.5z" />
    <glyph glyph-name="Ugrave" unicode="&#xd9;" horiz-adv-x="571" 
d="M142 419q-21 -57 -44 -147t-23 -133q0 -83 30.5 -98.5t82.5 36.5q59 57 138.5 161t109.5 186q2 8 6.5 32.5t9.5 43t9 20.5q26 12 50 1.5t24 -29.5q0 -10 -4 -28t-11 -43.5t-9 -31.5q-3 -14 -15 -12q-55 -137 -55 -236q0 -20 2 -36.5t6.5 -28.5t8.5 -20.5t10 -15t9.5 -10
t8.5 -6.5t6 -4q3 -4 1.5 -12t-12 -16t-23.5 -8q-42 0 -59 87.5t6 184.5q6 25 -2 23q-4 -2 -11 -13q-22 -38 -86 -120.5t-108 -114.5q-18 -23 -41.5 -35.5t-47.5 -10t-43.5 17t-30 49t-6.5 83.5q4 54 20 118.5t42.5 149.5l30.5 98q14 51 14 101q0 9 8 16.5t22 7.5
q16 0 31.5 -12t15.5 -26q0 -8 -6 -33.5l-14 -58.5l-11 -46q-6 -29 -40 -31zM270 838q-5 2 -1 18t12 16q9 0 18.5 -7t11.5 -16q16 -5 61.5 -83.5t69.5 -98.5q4 -7 4.5 -15.5t-1.5 -8.5q0 -14 -7 -14q-10 0 -23 10q-18 14 -63 72t-82 127z" />
    <glyph glyph-name="Uacute" unicode="&#xda;" horiz-adv-x="571" 
d="M142 419q-21 -57 -44 -147t-23 -133q0 -83 30.5 -98.5t82.5 36.5q59 57 138.5 161t109.5 186q2 8 6.5 32.5t9.5 43t9 20.5q26 12 50 1.5t24 -29.5q0 -10 -4 -28t-11 -43.5t-9 -31.5q-3 -14 -15 -12q-55 -137 -55 -236q0 -20 2 -36.5t6.5 -28.5t8.5 -20.5t10 -15t9.5 -10
t8.5 -6.5t6 -4q3 -4 1.5 -12t-12 -16t-23.5 -8q-42 0 -59 87.5t6 184.5q6 25 -2 23q-4 -2 -11 -13q-22 -38 -86 -120.5t-108 -114.5q-18 -23 -41.5 -35.5t-47.5 -10t-43.5 17t-30 49t-6.5 83.5q4 54 20 118.5t42.5 149.5l30.5 98q14 51 14 101q0 9 8 16.5t22 7.5
q16 0 31.5 -12t15.5 -26q0 -8 -6 -33.5l-14 -58.5l-11 -46q-6 -29 -40 -31zM219 681q3 5 6 13t7 14q5 3 127 91.5t167 111.5q18 9 27 7q3 -1 5.5 -12t2.5 -15q-17 -8 -27 -24q-33 -16 -92 -59.5l-117 -89.5t-62 -49q-10 -8 -16 -8t-11 2.5t-7.5 5t-5.5 7t-4 5.5z" />
    <glyph glyph-name="Ucircumflex" unicode="&#xdb;" horiz-adv-x="571" 
d="M142 419q-21 -57 -44 -147t-23 -133q0 -83 30.5 -98.5t82.5 36.5q59 57 138.5 161t109.5 186q2 8 6.5 32.5t9.5 43t9 20.5q26 12 50 1.5t24 -29.5q0 -10 -4 -28t-11 -43.5t-9 -31.5q-3 -14 -15 -12q-55 -137 -55 -236q0 -20 2 -36.5t6.5 -28.5t8.5 -20.5t10 -15t9.5 -10
t8.5 -6.5t6 -4q3 -4 1.5 -12t-12 -16t-23.5 -8q-42 0 -59 87.5t6 184.5q6 25 -2 23q-4 -2 -11 -13q-22 -38 -86 -120.5t-108 -114.5q-18 -23 -41.5 -35.5t-47.5 -10t-43.5 17t-30 49t-6.5 83.5q4 54 20 118.5t42.5 149.5l30.5 98q14 51 14 101q0 9 8 16.5t22 7.5
q16 0 31.5 -12t15.5 -26q0 -8 -6 -33.5l-14 -58.5l-11 -46q-6 -29 -40 -31zM418 810q-35 -13 -117.5 -72.5t-103.5 -68.5q-16 -7 -33 7t-16 34q121 55 244 143q4 4 11 15t14 19.5t12 8.5q13 0 29 -13t20 -41q0 -21 10.5 -51t22 -52l29 -55l21.5 -41q-3 -8 -19 -9.5t-27 5.5
q-11 8 -47 70t-50 101z" />
    <glyph glyph-name="Udieresis" unicode="&#xdc;" horiz-adv-x="571" 
d="M142 419q-21 -57 -44 -147t-23 -133q0 -83 30.5 -98.5t82.5 36.5q59 57 138.5 161t109.5 186q2 8 6.5 32.5t9.5 43t9 20.5q26 12 50 1.5t24 -29.5q0 -10 -4 -28t-11 -43.5t-9 -31.5q-3 -14 -15 -12q-55 -137 -55 -236q0 -20 2 -36.5t6.5 -28.5t8.5 -20.5t10 -15t9.5 -10
t8.5 -6.5t6 -4q3 -4 1.5 -12t-12 -16t-23.5 -8q-42 0 -59 87.5t6 184.5q6 25 -2 23q-4 -2 -11 -13q-22 -38 -86 -120.5t-108 -114.5q-18 -23 -41.5 -35.5t-47.5 -10t-43.5 17t-30 49t-6.5 83.5q4 54 20 118.5t42.5 149.5l30.5 98q14 51 14 101q0 9 8 16.5t22 7.5
q16 0 31.5 -12t15.5 -26q0 -8 -6 -33.5l-14 -58.5l-11 -46q-6 -29 -40 -31zM514 828q-14 -20 -26 -39.5t-27.5 -49.5t-19.5 -37q-15 -17 -37 -2l14 45.5t12.5 43.5t7.5 46q22 47 34 47q13 0 26 -15.5t16 -38.5zM361 823q-19 -36 -34.5 -84.5t-25.5 -65.5q-3 -4 -6.5 -5
t-7 1.5l-5.5 4t-6.5 7t-6.5 7.5q2 11 17 74.5t13 95.5q3 9 13.5 18t21.5 9q19 0 27 -62z" />
    <glyph glyph-name="Yacute" unicode="&#xdd;" horiz-adv-x="575" 
d="M198 660q0 7 7 14t14 7q11 0 30.5 -14.5t13.5 -28.5q-39 -94 -66 -116q-5 -2 -6.5 -2t-5.5 2t-7 2q-46 -92 -61 -178q-19 -107 44 -55q34 28 155 142t190 163q5 8 14 2t10 -6q19 -2 28.5 -15t9.5 -31.5t-3 -35t-9 -32.5q-2 -5 -10.5 -6t-12.5 -9q-22 -55 -84 -163
t-110.5 -200.5t-51.5 -136.5q-1 -16 10.5 -21t22 -2.5t12.5 -2.5q0 -14 -15.5 -25.5t-33.5 -11.5q-13 0 -25 8.5t-19 30t8 57.5q18 48 122 242t120 275q2 10 -0.5 13.5t-15.5 -3.5q-53 -38 -165.5 -145t-132.5 -123q-35 -27 -64 -29.5t-38 14.5q-18 25 -1 103
q20 87 67 182.5t59 134.5zM339 679q3 5 6 13t7 14q5 3 127 91.5t167 111.5q18 9 27 7q3 -1 5.5 -12t2.5 -15q-16 -8 -27 -24q-33 -16 -92 -59.5l-117 -89.5t-62 -49q-10 -8 -16 -8t-11 2.5t-7.5 5t-5.5 7t-4 5.5z" />
    <glyph glyph-name="Thorn" unicode="&#xde;" horiz-adv-x="547" 
d="M104 521q-25 -13 -43 -5q-13 5 -18.5 16t-3 21t11.5 11q48 8 106 7l39 -3q8 37 20 79q-9 26 -5.5 40.5t9.5 19.5t12 4q11 -1 25.5 -16.5t15.5 -24.5q1 -16 -14 -21q-14 -45 -23 -87q24 -5 46.5 -13t40.5 -16t36 -19t30 -19t25.5 -19.5t19.5 -17t15 -14.5l10 -10
q24 -24 28 -69t-5 -51q-49 -75 -135 -101.5t-170 -6.5q-12 -122 -9 -189q0 -10 2.5 -16t5 -8l5.5 -4.5t4 -5.5q3 -9 -14.5 -22.5t-31.5 -6.5q-11 6 -11 53q0 239 58 515q-36 4 -82 -1zM226 517q-29 -135 -44 -269q57 -23 115 -12t101.5 47t43.5 73q0 45 -63 94.5t-153 66.5z
" />
    <glyph glyph-name="germandbls" unicode="&#xdf;" horiz-adv-x="495" 
d="M-43 -384q-17 -9 -37 -11q-11 -1 -21.5 10.5t-7.5 31.5q27 168 131 422t206.5 435.5t134.5 181.5q54 0 21 -102q-2 -41 -45 -132t-89 -167q-11 -18 11 -26q30 -12 50 -24.5t38 -41.5t18 -69q0 -38 -34 -85q-6 -10 -2.5 -13.5t12.5 -2.5q36 4 94 26t103 47q12 6 18 3.5
t4.5 -10t-8.5 -12.5q-49 -35 -151 -78.5t-149 -42.5q-26 -10 -42 -9t-25 14.5t-12 24.5t-3 20q0 5 3 7.5t10 -1.5q15 -10 33 -10q25 0 63 47.5t38 86.5q0 75 -76 75q-8 0 -18 -8t-17 -8q-53 0 -53 37q46 43 106.5 157.5t78.5 196.5q3 13 -3 13q-7 -3 -20 -18
q-49 -59 -138.5 -246.5t-162 -404.5t-59.5 -314z" />
    <glyph glyph-name="agrave" unicode="&#xe0;" horiz-adv-x="519" 
d="M278 317q21 -13 24 -25q31 51 35 59q12 8 32.5 0.5t28.5 -15.5q11 -11 1 -31q-25 -51 -38 -54q-28 -60 -37 -116q-10 -59 5 -74.5t61 8.5q53 28 131.5 89.5t117.5 110.5q13 0 17.5 -7t1 -17t-13.5 -20q-56 -54 -146 -125t-142 -94q-14 -6 -30 -7t-32.5 5t-25.5 27.5
t-7 56.5q2 29 29 122q2 7 -1 7q-2 -1 -4 -4q-4 -7 -25.5 -38.5t-55 -76t-56.5 -70.5q-24 -27 -54 -30t-49.5 21.5t-15.5 68.5q10 107 64 177.5t102 70.5t83 -19zM112 51q30 22 78 81.5t94 130.5h-6q-4 0 -27 14.5t-49 14.5q-22 0 -42 -20q-65 -65 -76 -182q-5 -48 10 -48
q8 1 18 9zM183 652q-5 2 -1 18t12 16q9 0 18.5 -7t11.5 -16q16 -5 61.5 -83.5t69.5 -98.5q4 -7 4.5 -15.5t-1.5 -8.5q0 -14 -7 -14q-10 0 -23 10q-18 14 -63 72t-82 127z" />
    <glyph glyph-name="aacute" unicode="&#xe1;" horiz-adv-x="519" 
d="M278 317q21 -13 24 -25q31 51 35 59q12 8 32.5 0.5t28.5 -15.5q11 -11 1 -31q-25 -51 -38 -54q-28 -60 -37 -116q-10 -59 5 -74.5t61 8.5q53 28 131.5 89.5t117.5 110.5q13 0 17.5 -7t1 -17t-13.5 -20q-56 -54 -146 -125t-142 -94q-14 -6 -30 -7t-32.5 5t-25.5 27.5
t-7 56.5q2 29 29 122q2 7 -1 7q-2 -1 -4 -4q-4 -7 -25.5 -38.5t-55 -76t-56.5 -70.5q-24 -27 -54 -30t-49.5 21.5t-15.5 68.5q10 107 64 177.5t102 70.5t83 -19zM112 51q30 22 78 81.5t94 130.5h-6q-4 0 -27 14.5t-49 14.5q-22 0 -42 -20q-65 -65 -76 -182q-5 -48 10 -48
q8 1 18 9zM96 449q3 5 6 13t7 14q5 3 127 91.5t167 111.5q18 9 27 7q3 -1 5.5 -12t2.5 -15q-16 -8 -27 -24q-33 -16 -92 -59.5l-117 -89.5t-62 -49q-10 -8 -16 -8t-11 2.5t-7.5 5t-5.5 7t-4 5.5z" />
    <glyph glyph-name="acircumflex" unicode="&#xe2;" horiz-adv-x="519" 
d="M278 317q21 -13 24 -25q31 51 35 59q12 8 32.5 0.5t28.5 -15.5q11 -11 1 -31q-25 -51 -38 -54q-28 -60 -37 -116q-10 -59 5 -74.5t61 8.5q53 28 131.5 89.5t117.5 110.5q13 0 17.5 -7t1 -17t-13.5 -20q-56 -54 -146 -125t-142 -94q-14 -6 -30 -7t-32.5 5t-25.5 27.5
t-7 56.5q2 29 29 122q2 7 -1 7q-2 -1 -4 -4q-4 -7 -25.5 -38.5t-55 -76t-56.5 -70.5q-24 -27 -54 -30t-49.5 21.5t-15.5 68.5q10 107 64 177.5t102 70.5t83 -19zM336 609q-35 -13 -117.5 -72.5t-103.5 -68.5q-16 -7 -33 7t-16 34q121 55 244 143q4 4 11 15t14 19.5t12 8.5
q13 0 29 -13t20 -41q0 -21 10.5 -51t22 -52l29 -55l21.5 -41q-3 -8 -19 -9.5t-27 5.5q-11 8 -47 70t-50 101zM112 51q30 22 78 81.5t94 130.5h-6q-4 0 -27 14.5t-49 14.5q-22 0 -42 -20q-65 -65 -76 -182q-5 -48 10 -48q8 1 18 9z" />
    <glyph glyph-name="atilde" unicode="&#xe3;" horiz-adv-x="519" 
d="M278 317q21 -13 24 -25q31 51 35 59q12 8 32.5 0.5t28.5 -15.5q11 -11 1 -31q-25 -51 -38 -54q-28 -60 -37 -116q-10 -59 5 -74.5t61 8.5q53 28 131.5 89.5t117.5 110.5q13 0 17.5 -7t1 -17t-13.5 -20q-56 -54 -146 -125t-142 -94q-14 -6 -30 -7t-32.5 5t-25.5 27.5
t-7 56.5q2 29 29 122q2 7 -1 7q-2 -1 -4 -4q-4 -7 -25.5 -38.5t-55 -76t-56.5 -70.5q-24 -27 -54 -30t-49.5 21.5t-15.5 68.5q10 107 64 177.5t102 70.5t83 -19zM352 528q21 -6 44.5 32.5t23.5 63.5q-8 27 4.5 38t26.5 11q9 0 15.5 -14.5t6.5 -38.5q0 -27 -45 -90t-71 -63
q-21 0 -43.5 30.5l-43.5 61t-38 30.5q-19 0 -40 -21.5t-38.5 -44.5t-25.5 -26q-19 -6 -35.5 -2t-21.5 17q58 78 146 129q35 -2 62.5 -24.5t48 -53.5t24.5 -35zM112 51q30 22 78 81.5t94 130.5h-6q-4 0 -27 14.5t-49 14.5q-22 0 -42 -20q-65 -65 -76 -182q-5 -48 10 -48
q8 1 18 9z" />
    <glyph glyph-name="adieresis" unicode="&#xe4;" horiz-adv-x="519" 
d="M278 317q21 -13 24 -25q31 51 35 59q12 8 32.5 0.5t28.5 -15.5q11 -11 1 -31q-25 -51 -38 -54q-28 -60 -37 -116q-10 -59 5 -74.5t61 8.5q53 28 131.5 89.5t117.5 110.5q13 0 17.5 -7t1 -17t-13.5 -20q-56 -54 -146 -125t-142 -94q-14 -6 -30 -7t-32.5 5t-25.5 27.5
t-7 56.5q2 29 29 122q2 7 -1 7q-2 -1 -4 -4q-4 -7 -25.5 -38.5t-55 -76t-56.5 -70.5q-24 -27 -54 -30t-49.5 21.5t-15.5 68.5q10 107 64 177.5t102 70.5t83 -19zM112 51q30 22 78 81.5t94 130.5h-6q-4 0 -27 14.5t-49 14.5q-22 0 -42 -20q-65 -65 -76 -182q-5 -48 10 -48
q8 1 18 9zM274 618q-19 -36 -34.5 -84.5t-25.5 -65.5q-3 -4 -6.5 -5t-7 1.5l-5.5 4t-6.5 7t-6.5 7.5q2 11 17 74.5t13 95.5q3 9 13.5 18t21.5 9q19 0 27 -62zM427 623q-14 -20 -26 -39.5t-27.5 -49.5t-19.5 -37q-15 -17 -37 -2l14 45.5t12.5 43.5t7.5 46q22 47 34 47
q13 0 26 -15.5t16 -38.5z" />
    <glyph glyph-name="aring" unicode="&#xe5;" horiz-adv-x="519" 
d="M278 317q21 -13 24 -25q31 51 35 59q12 8 32.5 0.5t28.5 -15.5q11 -11 1 -31q-25 -51 -38 -54q-28 -60 -37 -116q-10 -59 5 -74.5t61 8.5q53 28 131.5 89.5t117.5 110.5q13 0 17.5 -7t1 -17t-13.5 -20q-56 -54 -146 -125t-142 -94q-14 -6 -30 -7t-32.5 5t-25.5 27.5
t-7 56.5q2 29 29 122q2 7 -1 7q-2 -1 -4 -4q-4 -7 -25.5 -38.5t-55 -76t-56.5 -70.5q-24 -27 -54 -30t-49.5 21.5t-15.5 68.5q10 107 64 177.5t102 70.5t83 -19zM287 690q15 4 29 -8q23 6 60.5 -17.5t37.5 -41.5q0 -44 -40 -89.5t-82.5 -67.5t-53.5 -10q-4 0 -3 -1
q-7 -3 -11 -4q-22 0 -44.5 23.5t-22.5 73.5q0 45 48 100.5t82 41.5zM112 51q30 22 78 81.5t94 130.5h-6q-4 0 -27 14.5t-49 14.5q-22 0 -42 -20q-65 -65 -76 -182q-5 -48 10 -48q8 1 18 9zM367 612q0 24 -32 38q-2 -10 -9.5 -20t-15.5 -11q-9 -1 -17 4.5t-14 5.5
q-18 -7 -34.5 -29t-25.5 -47q-6 -16 -7.5 -30.5t2 -23.5t11.5 -8q40 2 91 50.5t51 70.5z" />
    <glyph glyph-name="ae" unicode="&#xe6;" horiz-adv-x="653" 
d="M751 244q10 1 16 -2.5t-2 -16.5q-24 -29 -59.5 -62.5t-86 -73.5t-111 -68.5t-115.5 -32.5q-35 -10 -57.5 -3t-34.5 28.5t-16.5 43.5t-2.5 43q0 5 10 69q2 12 -4.5 15t-16.5 -9q-6 -7 -43.5 -62.5t-66.5 -85.5t-54 -30q-47 0 -64.5 24.5t-17.5 86.5q0 70 71 159.5
t120 89.5q17 0 42.5 -19.5t28.5 -19.5q5 0 12 11t15 11t27.5 -18t30.5 -34q38 43 89 76q12 8 27 -1q3 -2 7.5 2t8.5 4q15 0 34 -32t21 -58q1 -23 -16 -38l-1 -7q-1 -8 -5 -13q-63 -77 -196 -150q3 -26 18 -35.5t39.5 -6.5t65.5 17q68 22 145.5 74.5t141.5 123.5zM286 271
q-42 30 -66 30q-33 0 -76.5 -43t-61.5 -136q-4 -16 -3.5 -49.5t9.5 -33.5q29 0 91.5 75.5t106.5 156.5zM482 316q-36 0 -84 -65t-57 -138q57 27 117 80.5t61 95.5q0 7 -15 17t-22 10z" />
    <glyph glyph-name="ccedilla" unicode="&#xe7;" horiz-adv-x="361" 
d="M233 271q-36 6 -85.5 -50.5t-61.5 -118.5q-11 -59 10 -81t70 -5l28.5 11.5l29 12.5t31.5 16.5l29.5 17t32 20l30 19.5t31.5 21l28 19t28.5 20t25.5 18q7 3 6 -4q0 -9 -9 -17q-52 -46 -127.5 -99t-132.5 -78q-33 -52 -38 -72q7 -3 34.5 -12t46.5 -17t36 -25t17 -39
q0 -41 -61 -93t-116 -49q-18 -12 -45 9t-15 39q3 4 8 7q8 1 21 -12.5t20 -13.5q31 0 86.5 33.5t55.5 77.5q0 13 -26.5 22t-63 17.5t-50.5 18.5q-22 15 -17 39q2 11 27 42q-48 1 -72.5 42t-14.5 98q19 112 114 186q4 3 4 9.5t5 9.5q35 23 64.5 28t37.5 -9q2 -2 7 1t8 1
q38 -24 38 -50q0 -15 -10 -26t-24 -11q-35 0 -41 27z" />
    <glyph glyph-name="egrave" unicode="&#xe8;" horiz-adv-x="383" 
d="M481 244q10 1 16 -2.5t-2 -16.5q-24 -29 -59.5 -62.5t-86 -73.5t-111 -68.5t-115.5 -32.5q-35 -10 -57.5 -3t-34.5 28.5t-16.5 43.5t-2.5 43q6 73 56.5 145t122.5 119q12 8 27 -1q3 -2 7.5 2t8.5 4q15 0 34 -32t21 -58q1 -23 -16 -38l-1 -7q-1 -8 -5 -13
q-63 -77 -196 -150q3 -26 18 -35.5t39.5 -6.5t65.5 17q68 22 145.5 74.5t141.5 123.5zM212 316q-36 0 -84 -65t-57 -138q57 27 117 80.5t61 95.5q0 7 -15 17t-22 10zM151 642q-5 2 -1 18t12 16q9 0 18.5 -7t11.5 -16q16 -5 61.5 -83.5t69.5 -98.5q4 -7 4.5 -15.5t-1.5 -8.5
q0 -14 -7 -14q-10 0 -23 10q-18 14 -63 72t-82 127z" />
    </font>
</defs>
</svg>
